<svg xmlns="http://www.w3.org/2000/svg" id="svg1" width="23.68" height="24.5" version="1.1" viewBox="0 0 6.27 6.48" >
    <g fill="none" stroke="#000" stroke-width="0.1">
        <path id="chr_33" d="M .2 .75 v3.18m.17 1.04a.15.15 0 1 1-.3 0 .15.15 0 0 1 .3 0z"/>
        <path id="chr_34" d="M 1.1 .75 V2.4M.07.76V2.4"/>
        <path id="chr_35" d="M 1.44 .76 .89 5.19M3.09.76l-.55 4.43M.19 2.15h3.78M0 3.83l3.77-.01"/>
        <path id="chr_36" d="M .05 4.52 c.58.67 2.26.8 2.74.1.4-.6.27-1.37-1.04-1.61a3.25 3.25 0 0 1-1.07-.33c-.53-.33-.62-.91-.25-1.4.45-.57 1.8-.54 2.47-.02M1.57 0l.01 5.95"/>
        <path id="chr_37" d="M .78 5.22 3.8.72m.67 3.33a.87 1.1 0 0 1-.87 1.1.87 1.1 0 0 1-.87-1.1.87 1.1 0 0 1 .87-1.1.87 1.1 0 0 1 .87 1.1zM1.8 1.95a.87 1.1 0 0 1-.87 1.1.87 1.1 0 0 1-.87-1.1.87 1.1 0 0 1 .87-1.1.87 1.1 0 0 1 .87 1.1z"/>
        <path id="chr_38" d="M 3.55 5.16 .89 2.36a.9.9 0 0 1-.11-1.17c.22-.3.76-.44 1.2-.22.46.23.44.66.28.98-.11.22-.3.35-.45.45-.52.33-1.23.8-1.45 1-.55.52-.24 1.25.22 1.53.34.2.85.2 1.17.16 1.06-.18 1.4-1.35 1.52-1.8"/>
        <path id="chr_39" d="M .07 .75 V2.4"/>
        <path id="chr_40" d="M .81 .49 a6.42 6.42 0 0 0-.02 5.96"/>
        <path id="chr_41" d="M .06 6.45 A6.42 6.42 0 0 0 .08.49"/>
        <path id="chr_42" d="M 1.06 .5 v2.24M.03 1.06l2 1.13m-1.98 0 1.96-1.13"/>
        <path id="chr_43" d="M 1.35 1.65 v2.63M0 2.98h2.69"/>
        <path id="chr_44" d="M .38 4.98 c-.04.14-.13.12-.18.12-.08 0-.13-.08-.13-.14 0-.1.07-.15.15-.15.08 0 .16.06.16.14 0 .17-.15.5-.32 1.17"/>
        <path id="chr_45" d="M 0 3.5 h1.63"/>
        <path id="chr_46" d="M .37 4.95 a.15.15 0 1 1-.3 0 .15.15 0 0 1 .3 0z"/>
        <path id="chr_47" d="M .06 5.85 2.1.08"/>
        <path id="chr_48" d="M 3.25 2.97 c0 1.17-.53 2.12-1.6 2.12C.62 5.09.08 4.14.08 2.97.07 1.8.7.85 1.67.85c.96 0 1.58.95 1.58 2.12z"/>
        <path id="chr_49" d="M 0 .9 h1.25l.02 4.29"/>
        <path id="chr_50" d="M .04 1.43 C.91.63 2 .85 2.28 1.07c.58.45.71 1.15-.1 1.94L.2 5.09h2.92"/>
        <path id="chr_51" d="M .17 .9 h2.7L1.33 2.86c.34-.02 1.25-.1 1.54.64.33.83-.15 1.46-.94 1.57a2.38 2.38 0 0 1-1.9-.56"/>
        <path id="chr_52" d="M 2.64 .76 .14 3.84l3.66-.02M2.74 2.6v2.6"/>
        <path id="chr_53" d="M 2.84 .9 H.6L.43 2.78c.5 0 1.64-.07 2.04.27.7.58.5 1.57-.1 1.86-.83.4-1.88.08-2.32-.38"/>
        <path id="chr_54" d="M 2.84 1.1 C2.17.65.36.69.1 2.45c-.13.93 0 2.27 1.08 2.57 1.28.37 2.02-.5 1.76-1.5C2.62 2.26.13 2.47.3 4.22"/>
        <path id="chr_55" d="M .07 1.9 v-1h2.92L1.05 5.2"/>
        <path id="chr_56" d="M 1.6 2.9 c-2.01-.04-2.1 2.23.05 2.2 2.13-.01 1.78-2.26.04-2.2C-.03 3-.37.88 1.6.89c1.98 0 1.55 2.05 0 2.02z"/>
        <path id="chr_57" d="M .24 4.86 c.76.43 2.43.4 2.67-1.35.13-.94.04-2.26-1.03-2.57C.6.58-.14 1.44.12 2.44c.33 1.27 2.82 1.09 2.65-.67"/>
        <path id="chr_58" d="M .38 4.95 a.15.15 0 0 1-.15.16.15.15 0 0 1-.15-.15.15.15 0 0 1 .15-.15.15.15 0 0 1 .15.15zm0-2.81a.15.15 0 0 1-.16.15.15.15 0 0 1-.15-.15.15.15 0 0 1 .15-.15.15.15 0 0 1 .15.15z"/>
        <path id="chr_59" d="M .39 4.98 c-.04.14-.13.12-.18.12-.08 0-.13-.08-.13-.14 0-.1.07-.15.15-.15.08 0 .16.06.16.14 0 .17-.15.5-.32 1.17m.3-3.98a.15.15 0 1 1-.3 0 .15.15 0 0 1 .3 0z"/>
        <path id="chr_60" d="M 2.88 1.9 .18 2.99l2.7 1.13"/>
        <path id="chr_61" d="M 0 2.7 l2.08-.02M0 3.75h2.08"/>
        <path id="chr_62" d="M .03 4.08 2.73 3 .03 1.87"/>
        <path id="chr_63" d="M 1.65 4.95 a.15.15 0 1 1-.3 0 .15.15 0 0 1 .3 0zM.05 1.43a1.7 1.7 0 0 1 1.5-.58c.43.03.98.17 1.12.77.12.52-.2.97-.55 1.25-.41.33-.61.53-.61 1.04"/>
        <path id="chr_64" d="M 4.28 3.59 a1.45 1.54 0 0 1-1.45 1.53 1.45 1.54 0 0 1-1.45-1.53 1.45 1.54 0 0 1 1.45-1.54 1.45 1.54 0 0 1 1.45 1.54zm0-1.64.03 2.58c0 .6.68.8 1.04.32.84-1.14.13-3.4-1.4-3.82C1.49.37.07 1.9.07 3.59c0 2.85 2.99 3.03 4.05 2.48"/>
        <path id="chr_65" d="M .06 5.22 2.1.77 4.15 5.2M.7 3.8h2.8"/>
        <path id="chr_66" d="M .07 5.07 V.89h1.67C3.8.9 3.3 2.97 2 2.95c1.77.02 1.9 2.14-.05 2.13zM2 2.95l-1.93.02"/>
        <path id="chr_67" d="M 3.67 1.45 C2.35.23.02 1.03.07 3.03c.04 2 2.36 2.68 3.6 1.52"/>
        <path id="chr_68" d="M .07 .9 v4.17H1.7C4.59 5.07 4.57.9 1.6.9z"/>
        <path id="chr_69" d="M 2.83 .9 .07.92v4.16l2.87-.02m-.37-2.11-2.5.02"/>
        <path id="chr_70" d="M 2.87 .9 H.07v4.3m2.52-2.1H.1"/>
        <path id="chr_71" d="M 3.72 1.45 C2.35.25.05 1.05.07 3 .1 4.95 2.33 5.68 3.64 4.6l.02-1.58"/>
        <path id="chr_72" d="M .07 .76 v4.46M3.37.76V5.2M.08 2.96l3.28-.01"/>
        <path id="chr_73" d="M .07 .77 V5.2"/>
        <path id="chr_74" d="M .4 .9 h1.8v3.03c0 1.54-1.65 1.37-2.14.6"/>
        <path id="chr_75" d="M .07 .78 V5.2M.05 4.04 3.2.76M1.24 2.8 3.3 5.2"/>
        <path id="chr_76" d="M .07 .78 l.02 4.28 2.69-.02"/>
        <path id="chr_77" d="M .08 5.19 .07.76l2.1 3.7L4.33.78V5.2"/>
        <path id="chr_78" d="M .09 5.2 .07.78 3.4 5.2 3.39.76"/>
        <path id="chr_79" d="M 4.4 2.99 A2.17 2.12 0 0 1 2.24 5.1 2.17 2.12 0 0 1 .07 2.99 2.17 2.12 0 0 1 2.24.87 2.17 2.12 0 0 1 4.4 2.99z"/>
        <path id="chr_80" d="M .07 5.19 V.92H1.7c1.88 0 1.95 2.64-.04 2.68l-1.6.03"/>
        <path id="chr_81" d="M 2.36 5.09 c.68.82 1.42 1.18 2.3.38m-.25-2.48c0 1.17-.97 2.12-2.17 2.12S.07 4.16.07 2.99c0-1.17.97-2.12 2.17-2.12s2.17.95 2.17 2.12z"/>
        <path id="chr_82" d="M .07 5.19 V.92H1.7c1.88 0 1.95 2.64-.05 2.68l-1.6.03M3.18 5.2 2 3.52"/>
        <path id="chr_83" d="M .05 4.54 c.59.67 2.27.8 2.74.1.4-.6.28-1.36-1.03-1.61A3.25 3.25 0 0 1 .68 2.7C.15 2.37.06 1.8.43 1.3c.45-.57 1.8-.54 2.48-.02"/>
        <path id="chr_84" d="M 0 .9 h3.52M1.79.9v4.3"/>
        <path id="chr_85" d="M .07 .76 l.02 2.78c0 2.1 3.2 2.1 3.22-.03L3.33.78"/>
        <path id="chr_86" d="M .06 .76 2.03 5.2 3.99.78"/>
        <path id="chr_87" d="M .06 .76 l1.5 4.44L3.14.76 4.7 5.2 6.2.76"/>
        <path id="chr_88" d="M 3.35 .76 .05 5.2M.17.75 3.44 5.2"/>
        <path id="chr_89" d="M .06 .75 l1.83 2.9V5.2m-.01-1.54L3.66.76"/>
        <path id="chr_90" d="M .15 .9 h3.5L.15 5.1l3.55-.03"/>
        <path id="chr_91" d="M .9 .64 H.08v5.65H.9"/>
        <path id="chr_92" d="M .06 .08 l2.05 5.74"/>
        <path id="chr_93" d="M 0 6.3 h.85V.66H0"/>
        <path id="chr_94" d="M 2.26 4.32 1.2 1.62.06 4.32"/>
        <path id="chr_95" d="M 0 5.34 l3.16-.01"/>
        <path id="chr_96" d="M .05 .76 1 1.7"/>
        <path id="chr_97" d="M .05 2.44 c.95-.7 2.4-.58 2.4.6V5.2m-.02-1.72H1.08c-1.16-.02-1.17 1-.79 1.36.51.47 1.78.39 2.14-.7"/>
        <path id="chr_98" d="M .09 .48 .1 5.22m2.96-1.66a1.5 1.54 0 0 1-1.5 1.54 1.5 1.54 0 0 1-1.5-1.54A1.5 1.54 0 0 1 1.57 2a1.5 1.54 0 0 1 1.5 1.55z"/>
        <path id="chr_99" d="M 2.72 4.55 a1.5 1.54 0 0 1-1.67.44 1.5 1.54 0 0 1-.98-1.44 1.5 1.54 0 0 1 .98-1.44 1.5 1.54 0 0 1 1.67.44"/>
        <path id="chr_100" d="M 3.06 .48 l.02 4.74m-.01-1.66c0 .85-.67 1.54-1.5 1.54S.07 4.4.07 3.56C.07 2.7.74 2 1.57 2s1.5.7 1.5 1.55z"/>
        <path id="chr_101" d="M .07 3.5 h2.85A1.44 1.44 0 0 0 .7 2.26c-.9.63-.75 2.08-.07 2.52.53.35 1.28.58 2.14-.15"/>
        <path id="chr_102" d="M .79 5.2 .78 1.39c0-.88.93-.9 1.36-.6M0 2.03h2"/>
        <path id="chr_103" d="M 3.09 1.89 v3.14c0 1.72-2.21 1.47-2.86.8m2.86-2.32c0 .85-.74 1.43-1.56 1.43-.83 0-1.46-.6-1.46-1.45C.07 2.63.74 2 1.57 2c.82 0 1.52.64 1.52 1.5z"/>
        <path id="chr_104" d="M .08 .47 .1 5.2M.07 3.54C.05 2.82.57 2 1.55 2c.92 0 1.19.62 1.19 1.4v1.76"/>
        <path id="chr_105" d="M .22 1.9 v3.3M.37.82a.15.15 0 0 1-.15.15.15.15 0 0 1-.15-.15.15.15 0 0 1 .15-.15.15.15 0 0 1 .15.15z"/>
        <path id="chr_106" d="M 1.56 .82 a.15.15 0 0 1-.15.15.15.15 0 0 1-.15-.15.15.15 0 0 1 .15-.15.15.15 0 0 1 .15.15zm-.17 1.07.02 3.73c0 .82-.96.83-1.37.53"/>
        <path id="chr_107" d="M .07 .48 l.02 4.74m-.03-.98L2.54 1.9M1.12 3.22 2.67 5.2"/>
        <path id="chr_108" d="M .07 .48 v4.74"/>
        <path id="chr_109" d="M 2.66 3.42 c-.02-.72.4-1.42 1.37-1.4.92 0 1.16.6 1.16 1.38v1.8M.07 1.9l.02 3.3M.07 3.54C.06 2.82.47 2 1.46 2c.92 0 1.19.63 1.19 1.4v1.8"/>
        <path id="chr_110" d="M .07 1.9 l.02 3.3M.07 3.54C.06 2.82.52 1.98 1.5 2c.92 0 1.2.63 1.2 1.4v1.79"/>
        <path id="chr_111" d="M 3.07 3.55 a1.5 1.54 0 0 1-1.5 1.55 1.5 1.54 0 0 1-1.5-1.54A1.5 1.54 0 0 1 1.57 2a1.5 1.54 0 0 1 1.5 1.55z"/>
        <path id="chr_112" d="M .1 1.9 v4.54m2.97-2.88a1.5 1.54 0 0 1-1.5 1.54 1.5 1.54 0 0 1-1.5-1.54A1.5 1.54 0 0 1 1.57 2a1.5 1.54 0 0 1 1.5 1.55z"/>
        <path id="chr_113" d="M 3.06 1.9 v4.54m0-2.88a1.5 1.54 0 0 1-1.5 1.54 1.5 1.54 0 0 1-1.5-1.54A1.5 1.54 0 0 1 1.57 2a1.5 1.54 0 0 1 1.5 1.55z"/>
        <path id="chr_114" d="M .07 1.9 l.02 3.3M.08 3.54C.06 2.82.53 1.98 1.5 2"/>
        <path id="chr_115" d="M .04 4.7 c.51.47 1.9.64 2.27.09.4-.58.08-1.1-.85-1.2C.56 3.5-.07 3.02.4 2.35c.32-.46 1.47-.4 2.02-.03"/>
        <path id="chr_116" d="M .79 1.18 v3.2c0 .89 1.04.8 1.35.5M0 2.03h2"/>
        <path id="chr_117" d="M 2.7 5.2 l-.02-3.3m0 1.66c.03.72-.44 1.56-1.42 1.55C.34 5.09.06 4.47.06 3.7V1.9"/>
        <path id="chr_118" d="M .06 1.89 l1.5 3.32 1.51-3.3"/>
        <path id="chr_119" d="M .06 1.89 l1.27 3.34 1.28-3.34L3.86 5.2l1.26-3.32"/>
        <path id="chr_120" d="M .12 1.89 l2.53 3.28m-2.6.04 2.6-3.32"/>
        <path id="chr_121" d="M .33 1.9 l1.5 3.27M3.3 1.9 1.56 5.85c-.24.55-1.04.64-1.52.22"/>
        <path id="chr_122" d="M .2 2.03 h2.5L.14 5.15l2.62-.01"/>
        <path id="chr_123" d="M 1.48 .64 C.88.6.66.78.66 1.3v1.66c0 .54-.38.48-.66.5.27.02.66 0 .66.52v1.6c0 .56.2.76.83.72"/>
        <path id="chr_124" d="M .07 .49 v5.95"/>
        <path id="chr_125" d="M .01 6.3 c.58.03.8-.15.8-.66V3.97c0-.53.4-.48.67-.5-.27-.02-.66 0-.66-.52v-1.6C.82.8.62.6 0 .64"/>
        <path id="chr_126" d="M .07 3.4 c.02-.23.13-.71.54-.75.69-.08.84.67 1.45.65.55-.02.58-.6.58-.8"/>
    </g>
</svg>