<svg xmlns="http://www.w3.org/2000/svg" viewBox="0 0 1224 792" role="graphics-document" aria-label="Piper Logo"><defs><clipPath id="a"><path fill="none" d="M-16.9 816.2h1262.5V-19H-16.9z"/></clipPath></defs><g><path fill="#005cb9" d="M-16.5-18.2h1261.7v832.7H-16.5z"/><g clip-path="url(#a)"><path fill="#3b82c9" d="M21.6 38.2h-38.5v.3h38.5zm41.4 0H22v.3h41zm41.5 0h-41v.3h41zm41.4 0h-41v.3h41zm41.4 0h-41v.3h41zm41.4 0h-41v.3h41zm41.4 0h-41v.3h41zm41.4 0h-41v.3h41zm41.4 0h-41v.3h41zm41.4 0h-41v.3h41zm41.4 0h-41v.3h41zm41.4 0h-41v.3h41zm41.4 0h-41v.3h41zm41.4 0h-41v.3h41zm41.4 0h-41v.3h41zm37 0h-36.6v.3h36.6zm41.4 0h-41v.3h41zm41.4 0h-41v.3h41zm41.4 0h-41v.3h41zm41.4 0h-41v.3h41zm41.4 0h-41v.3h41zm41.4 0h-41v.3h41zm41.4 0h-41v.3h41zm41.4 0h-41v.3h41zm41.4 0h-41v.3h41zm41.4 0h-41v.3h41zm41.5 0h-41v.3h41zm41.4 0h-41v.3h41zm41.4 0h-41v.3h41zm41.4 0h-41v.3h41zm27.6 0h-27.3v.3h27.3zm-1224 190h-38.5v.3h38.5zm41.4 0H22v.3h41zm41.5 0h-41v.3h41zm41.4 0h-41v.3h41zm41.4 0h-41v.3h41zm41.4 0h-41v.3h41zm41.4 0h-41v.3h41zm41.4 0h-41v.3h41zm41.4 0h-41v.3h41zm41.4 0h-41v.3h41zm41.4 0h-41v.3h41zm41.4 0h-41v.3h41zm41.4 0h-41v.3h41zm41.4 0h-41v.3h41zm41.4 0h-41v.3h41zm37 0h-36.6v.3h36.6zm41.4 0h-41v.3h41zm41.4 0h-41v.3h41zm41.4 0h-41v.3h41zm41.4 0h-41v.3h41zm41.4 0h-41v.3h41zm41.4 0h-41v.3h41zm41.4 0h-41v.3h41zm41.4 0h-41v.3h41zm41.4 0h-41v.3h41zm41.4 0h-41v.3h41zm41.5 0h-41v.3h41zm41.4 0h-41v.3h41zm41.4 0h-41v.3h41zm41.4 0h-41v.3h41zm27.6 0h-27.3v.3h27.3zM21.6.2h-38.5v.3h38.5zM63 .2H22v.3h41zm41.5 0h-41v.3h41zm41.4 0h-41v.3h41zm41.4 0h-41v.3h41zm41.4 0h-41v.3h41zm41.4 0h-41v.3h41zm41.4 0h-41v.3h41zm41.4 0h-41v.3h41zm41.4 0h-41v.3h41zm41.4 0h-41v.3h41zm41.4 0h-41v.3h41zm41.4 0h-41v.3h41zm41.4 0h-41v.3h41zm41.4 0h-41v.3h41zm37 0h-36.6v.3h36.6zm41.4 0h-41v.3h41zm41.4 0h-41v.3h41zm41.4 0h-41v.3h41zm41.4 0h-41v.3h41zm41.4 0h-41v.3h41zm41.4 0h-41v.3h41zm41.4 0h-41v.3h41zm41.4 0h-41v.3h41zm41.4 0h-41v.3h41zm41.4 0h-41v.3h41zm41.5 0h-41v.3h41zm41.4 0h-41v.3h41zm41.4 0h-41v.3h41zm41.4 0h-41v.3h41zm27.6 0h-27.3v.3h27.3zm-1224 190h-38.5v.3h38.5zm41.4 0H22v.3h41zm41.5 0h-41v.3h41zm41.4 0h-41v.3h41zm41.4 0h-41v.3h41zm41.4 0h-41v.3h41zm41.4 0h-41v.3h41zm41.4 0h-41v.3h41zm41.4 0h-41v.3h41zm41.4 0h-41v.3h41zm41.4 0h-41v.3h41zm41.4 0h-41v.3h41zm41.4 0h-41v.3h41zm41.4 0h-41v.3h41zm41.4 0h-41v.3h41zm37 0h-36.6v.3h36.6zm41.4 0h-41v.3h41zm41.4 0h-41v.3h41zm41.4 0h-41v.3h41zm41.4 0h-41v.3h41zm41.4 0h-41v.3h41zm41.4 0h-41v.3h41zm41.4 0h-41v.3h41zm41.4 0h-41v.3h41zm41.4 0h-41v.3h41zm41.4 0h-41v.3h41zm41.5 0h-41v.3h41zm41.4 0h-41v.3h41zm41.4 0h-41v.3h41zm41.4 0h-41v.3h41zm27.6 0h-27.3v.3h27.3zm-1224-38h-38.5v.3h38.5zm41.4 0H22v.3h41zm41.5 0h-41v.3h41zm41.4 0h-41v.3h41zm41.4 0h-41v.3h41zm41.4 0h-41v.3h41zm41.4 0h-41v.3h41zm41.4 0h-41v.3h41zm41.4 0h-41v.3h41zm41.4 0h-41v.3h41zm41.4 0h-41v.3h41zm41.4 0h-41v.3h41zm41.4 0h-41v.3h41zm41.4 0h-41v.3h41zm41.4 0h-41v.3h41zm37 0h-36.6v.3h36.6zm41.4 0h-41v.3h41zm41.4 0h-41v.3h41zm41.4 0h-41v.3h41zm41.4 0h-41v.3h41zm41.4 0h-41v.3h41zm41.4 0h-41v.3h41zm41.4 0h-41v.3h41zm41.4 0h-41v.3h41zm41.4 0h-41v.3h41zm41.4 0h-41v.3h41zm41.5 0h-41v.3h41zm41.4 0h-41v.3h41zm41.4 0h-41v.3h41zm41.4 0h-41v.3h41zm27.6 0h-27.3v.3h27.3zm-1224-38h-38.5v.3h38.5zm41.4 0H22v.3h41zm41.5 0h-41v.3h41zm41.4 0h-41v.3h41zm41.4 0h-41v.3h41zm41.4 0h-41v.3h41zm41.4 0h-41v.3h41zm41.4 0h-41v.3h41zm41.4 0h-41v.3h41zm41.4 0h-41v.3h41zm41.4 0h-41v.3h41zm41.4 0h-41v.3h41zm41.4 0h-41v.3h41zm41.4 0h-41v.3h41zm41.4 0h-41v.3h41zm37 0h-36.6v.3h36.6zm41.4 0h-41v.3h41zm41.4 0h-41v.3h41zm41.4 0h-41v.3h41zm41.4 0h-41v.3h41zm41.4 0h-41v.3h41zm41.4 0h-41v.3h41zm41.4 0h-41v.3h41zm41.4 0h-41v.3h41zm41.4 0h-41v.3h41zm41.4 0h-41v.3h41zm41.5 0h-41v.3h41zm41.4 0h-41v.3h41zm41.4 0h-41v.3h41zm41.4 0h-41v.3h41zm27.6 0h-27.3v.3h27.3zM21.6 342.3h-38.5v.3h38.5zm41.4 0H22v.3h41zm41.5 0h-41v.3h41zm41.4 0h-41v.3h41zm41.4 0h-41v.3h41zm41.4 0h-41v.3h41zm41.4 0h-41v.3h41zm41.4 0h-41v.3h41zm41.4 0h-41v.3h41zm41.4 0h-41v.3h41zm41.4 0h-41v.3h41zm41.4 0h-41v.3h41zm41.4 0h-41v.3h41zm41.4 0h-41v.3h41zm41.4 0h-41v.3h41zm37 0h-36.6v.3h36.6zm41.4 0h-41v.3h41zm41.4 0h-41v.3h41zm41.4 0h-41v.3h41zm41.4 0h-41v.3h41zm41.4 0h-41v.3h41zm41.4 0h-41v.3h41zm41.4 0h-41v.3h41zm41.4 0h-41v.3h41zm41.4 0h-41v.3h41zm41.4 0h-41v.3h41zm41.5 0h-41v.3h41zm41.4 0h-41v.3h41zm41.4 0h-41v.3h41zm41.4 0h-41v.3h41zm27.6 0h-27.3v.3h27.3zm-1224 76h-38.5v.3h38.5zm41.4 0H22v.3h41zm41.5 0h-41v.3h41zm41.4 0h-41v.3h41zm41.4 0h-41v.3h41zm41.4 0h-41v.3h41zm41.4 0h-41v.3h41zm41.4 0h-41v.3h41zm41.4 0h-41v.3h41zm41.4 0h-41v.3h41zm41.4 0h-41v.3h41zm41.4 0h-41v.3h41zm41.4 0h-41v.3h41zm41.4 0h-41v.3h41zm41.4 0h-41v.3h41zm37 0h-36.6v.3h36.6zm41.4 0h-41v.3h41zm41.4 0h-41v.3h41zm41.4 0h-41v.3h41zm41.4 0h-41v.3h41zm41.4 0h-41v.3h41zm41.4 0h-41v.3h41zm41.4 0h-41v.3h41zm41.4 0h-41v.3h41zm41.4 0h-41v.3h41zm41.4 0h-41v.3h41zm41.5 0h-41v.3h41zm41.4 0h-41v.3h41zm41.4 0h-41v.3h41zm41.4 0h-41v.3h41zm27.6 0h-27.3v.3h27.3zM21.6 266.2h-38.5v.3h38.5zm41.4 0H22v.3h41zm41.5 0h-41v.3h41zm41.4 0h-41v.3h41zm41.4 0h-41v.3h41zm41.4 0h-41v.3h41zm41.4 0h-41v.3h41zm41.4 0h-41v.3h41zm41.4 0h-41v.3h41zm41.4 0h-41v.3h41zm41.4 0h-41v.3h41zm41.4 0h-41v.3h41zm41.4 0h-41v.3h41zm41.4 0h-41v.3h41zm41.4 0h-41v.3h41zm37 0h-36.6v.3h36.6zm41.4 0h-41v.3h41zm41.4 0h-41v.3h41zm41.4 0h-41v.3h41zm41.4 0h-41v.3h41zm41.4 0h-41v.3h41zm41.4 0h-41v.3h41zm41.4 0h-41v.3h41zm41.4 0h-41v.3h41zm41.4 0h-41v.3h41zm41.4 0h-41v.3h41zm41.5 0h-41v.3h41zm41.4 0h-41v.3h41zm41.4 0h-41v.3h41zm41.4 0h-41v.3h41zm27.6 0h-27.3v.3h27.3zm-1224-190h-38.5v.3h38.5zm41.4 0H22v.3h41zm41.5 0h-41v.3h41zm41.4 0h-41v.3h41zm41.4 0h-41v.3h41zm41.4 0h-41v.3h41zm41.4 0h-41v.3h41zm41.4 0h-41v.3h41zm41.4 0h-41v.3h41zm41.4 0h-41v.3h41zm41.4 0h-41v.3h41zm41.4 0h-41v.3h41zm41.4 0h-41v.3h41zm41.4 0h-41v.3h41zm41.4 0h-41v.3h41zm37 0h-36.6v.3h36.6zm41.4 0h-41v.3h41zm41.4 0h-41v.3h41zm41.4 0h-41v.3h41zm41.4 0h-41v.3h41zm41.4 0h-41v.3h41zm41.4 0h-41v.3h41zm41.4 0h-41v.3h41zm41.4 0h-41v.3h41zm41.4 0h-41v.3h41zm41.4 0h-41v.3h41zm41.5 0h-41v.3h41zm41.4 0h-41v.3h41zm41.4 0h-41v.3h41zm41.4 0h-41v.3h41zm27.6 0h-27.3v.3h27.3zM21.6 304.3h-38.5v.3h38.5zm41.4 0H22v.3h41zm41.5 0h-41v.3h41zm41.4 0h-41v.3h41zm41.4 0h-41v.3h41zm41.4 0h-41v.3h41zm41.4 0h-41v.3h41zm41.4 0h-41v.3h41zm41.4 0h-41v.3h41zm41.4 0h-41v.3h41zm41.4 0h-41v.3h41zm41.4 0h-41v.3h41zm41.4 0h-41v.3h41zm41.4 0h-41v.3h41zm41.4 0h-41v.3h41zm37 0h-36.6v.3h36.6zm41.4 0h-41v.3h41zm41.4 0h-41v.3h41zm41.4 0h-41v.3h41zm41.4 0h-41v.3h41zm41.4 0h-41v.3h41zm41.4 0h-41v.3h41zm41.4 0h-41v.3h41zm41.4 0h-41v.3h41zm41.4 0h-41v.3h41zm41.4 0h-41v.3h41zm41.5 0h-41v.3h41zm41.4 0h-41v.3h41zm41.4 0h-41v.3h41zm41.4 0h-41v.3h41zm27.6 0h-27.3v.3h27.3zm-1224 76h-38.5v.3h38.5zm41.4 0H22v.3h41zm41.5 0h-41v.3h41zm41.4 0h-41v.3h41zm41.4 0h-41v.3h41zm41.4 0h-41v.3h41zm41.4 0h-41v.3h41zm41.4 0h-41v.3h41zm41.4 0h-41v.3h41zm41.4 0h-41v.3h41zm41.4 0h-41v.3h41zm41.4 0h-41v.3h41zm41.4 0h-41v.3h41zm41.4 0h-41v.3h41zm41.4 0h-41v.3h41zm37 0h-36.6v.3h36.6zm41.4 0h-41v.3h41zm41.4 0h-41v.3h41zm41.4 0h-41v.3h41zm41.4 0h-41v.3h41zm41.4 0h-41v.3h41zm41.4 0h-41v.3h41zm41.4 0h-41v.3h41zm41.4 0h-41v.3h41zm41.4 0h-41v.3h41zm41.4 0h-41v.3h41zm41.5 0h-41v.3h41zm41.4 0h-41v.3h41zm41.4 0h-41v.3h41zm41.4 0h-41v.3h41zm27.6 0h-27.3v.3h27.3zM21.6 489.9h-38.5v.3h38.5zm41.4 0H22v.3h41zm41.5 0h-41v.3h41zm41.4 0h-41v.3h41zm41.4 0h-41v.3h41zm41.4 0h-41v.3h41zm41.4 0h-41v.3h41zm41.4 0h-41v.3h41zm41.4 0h-41v.3h41zm41.4 0h-41v.3h41zm41.4 0h-41v.3h41zm41.4 0h-41v.3h41zm41.4 0h-41v.3h41zm41.4 0h-41v.3h41zm41.4 0h-41v.3h41zm37 0h-36.6v.3h36.6zm41.4 0h-41v.3h41zm41.4 0h-41v.3h41zm41.4 0h-41v.3h41zm41.4 0h-41v.3h41zm41.4 0h-41v.3h41zm41.4 0h-41v.3h41zm41.4 0h-41v.3h41zm41.4 0h-41v.3h41zm41.4 0h-41v.3h41zm41.4 0h-41v.3h41zm41.5 0h-41v.3h41zm41.4 0h-41v.3h41zm41.4 0h-41v.3h41zm41.4 0h-41v.3h41zm27.6 0h-27.3v.3h27.3zM21.6 680h-38.5v.3h38.5zm41.4 0H22v.3h41zm41.5 0h-41v.3h41zm41.4 0h-41v.3h41zm41.4 0h-41v.3h41zm41.4 0h-41v.3h41zm41.4 0h-41v.3h41zm41.4 0h-41v.3h41zm41.4 0h-41v.3h41zm41.4 0h-41v.3h41zm41.4 0h-41v.3h41zm41.4 0h-41v.3h41zm41.4 0h-41v.3h41zm41.4 0h-41v.3h41zm41.4 0h-41v.3h41zm37 0h-36.6v.3h36.6zm41.4 0h-41v.3h41zm41.4 0h-41v.3h41zm41.4 0h-41v.3h41zm41.4 0h-41v.3h41zm41.4 0h-41v.3h41zm41.4 0h-41v.3h41zm41.4 0h-41v.3h41zm41.4 0h-41v.3h41zm41.4 0h-41v.3h41zm41.4 0h-41v.3h41zm41.5 0h-41v.3h41zm41.4 0h-41v.3h41zm41.4 0h-41v.3h41zm41.4 0h-41v.3h41zm27.6 0h-27.3v.3h27.3zM21.6 451.9h-38.5v.3h38.5zm41.4 0H22v.3h41zm41.5 0h-41v.3h41zm41.4 0h-41v.3h41zm41.4 0h-41v.3h41zm41.4 0h-41v.3h41zm41.4 0h-41v.3h41zm41.4 0h-41v.3h41zm41.4 0h-41v.3h41zm41.4 0h-41v.3h41zm41.4 0h-41v.3h41zm41.4 0h-41v.3h41zm41.4 0h-41v.3h41zm41.4 0h-41v.3h41zm41.4 0h-41v.3h41zm37 0h-36.6v.3h36.6zm41.4 0h-41v.3h41zm41.4 0h-41v.3h41zm41.4 0h-41v.3h41zm41.4 0h-41v.3h41zm41.4 0h-41v.3h41zm41.4 0h-41v.3h41zm41.4 0h-41v.3h41zm41.4 0h-41v.3h41zm41.4 0h-41v.3h41zm41.4 0h-41v.3h41zm41.5 0h-41v.3h41zm41.4 0h-41v.3h41zm41.4 0h-41v.3h41zm41.4 0h-41v.3h41zm27.6 0h-27.3v.3h27.3zM21.6 642h-38.5v.3h38.5zm41.4 0H22v.3h41zm41.5 0h-41v.3h41zm41.4 0h-41v.3h41zm41.4 0h-41v.3h41zm41.4 0h-41v.3h41zm41.4 0h-41v.3h41zm41.4 0h-41v.3h41zm41.4 0h-41v.3h41zm41.4 0h-41v.3h41zm41.4 0h-41v.3h41zm41.4 0h-41v.3h41zm41.4 0h-41v.3h41zm41.4 0h-41v.3h41zm41.4 0h-41v.3h41zm37 0h-36.6v.3h36.6zm41.4 0h-41v.3h41zm41.4 0h-41v.3h41zm41.4 0h-41v.3h41zm41.4 0h-41v.3h41zm41.4 0h-41v.3h41zm41.4 0h-41v.3h41zm41.4 0h-41v.3h41zm41.4 0h-41v.3h41zm41.4 0h-41v.3h41zm41.4 0h-41v.3h41zm41.5 0h-41v.3h41zm41.4 0h-41v.3h41zm41.4 0h-41v.3h41zm41.4 0h-41v.3h41zm27.6 0h-27.3v.3h27.3zm-1224-38h-38.5v.3h38.5zm41.4 0H22v.3h41zm41.5 0h-41v.3h41zm41.4 0h-41v.3h41zm41.4 0h-41v.3h41zm41.4 0h-41v.3h41zm41.4 0h-41v.3h41zm41.4 0h-41v.3h41zm41.4 0h-41v.3h41zm41.4 0h-41v.3h41zm41.4 0h-41v.3h41zm41.4 0h-41v.3h41zm41.4 0h-41v.3h41zm41.4 0h-41v.3h41zm41.4 0h-41v.3h41zm37 0h-36.6v.3h36.6zm41.4 0h-41v.3h41zm41.4 0h-41v.3h41zm41.4 0h-41v.3h41zm41.4 0h-41v.3h41zm41.4 0h-41v.3h41zm41.4 0h-41v.3h41zm41.4 0h-41v.3h41zm41.4 0h-41v.3h41zm41.4 0h-41v.3h41zm41.4 0h-41v.3h41zm41.5 0h-41v.3h41zm41.4 0h-41v.3h41zm41.4 0h-41v.3h41zm41.4 0h-41v.3h41zm27.6 0h-27.3v.3h27.3zm-1224-38h-38.5v.3h38.5zm41.4 0H22v.3h41zm41.5 0h-41v.3h41zm41.4 0h-41v.3h41zm41.4 0h-41v.3h41zm41.4 0h-41v.3h41zm41.4 0h-41v.3h41zm41.4 0h-41v.3h41zm41.4 0h-41v.3h41zm41.4 0h-41v.3h41zm41.4 0h-41v.3h41zm41.4 0h-41v.3h41zm41.4 0h-41v.3h41zm41.4 0h-41v.3h41zm41.4 0h-41v.3h41zm37 0h-36.6v.3h36.6zm41.4 0h-41v.3h41zm41.4 0h-41v.3h41zm41.4 0h-41v.3h41zm41.4 0h-41v.3h41zm41.4 0h-41v.3h41zm41.4 0h-41v.3h41zm41.4 0h-41v.3h41zm41.4 0h-41v.3h41zm41.4 0h-41v.3h41zm41.4 0h-41v.3h41zm41.5 0h-41v.3h41zm41.4 0h-41v.3h41zm41.4 0h-41v.3h41zm41.4 0h-41v.3h41zm27.6 0h-27.3v.3h27.3zM21.6 718h-38.5v.3h38.5zm41.4 0H22v.3h41zm41.5 0h-41v.3h41zm41.4 0h-41v.3h41zm41.4 0h-41v.3h41zm41.4 0h-41v.3h41zm41.4 0h-41v.3h41zm41.4 0h-41v.3h41zm41.4 0h-41v.3h41zm41.4 0h-41v.3h41zm41.4 0h-41v.3h41zm41.4 0h-41v.3h41zm41.4 0h-41v.3h41zm41.4 0h-41v.3h41zm41.4 0h-41v.3h41zm37 0h-36.6v.3h36.6zm41.4 0h-41v.3h41zm41.4 0h-41v.3h41zm41.4 0h-41v.3h41zm41.4 0h-41v.3h41zm41.4 0h-41v.3h41zm41.4 0h-41v.3h41zm41.4 0h-41v.3h41zm41.4 0h-41v.3h41zm41.4 0h-41v.3h41zm41.4 0h-41v.3h41zm41.5 0h-41v.3h41zm41.4 0h-41v.3h41zm41.4 0h-41v.3h41zm41.4 0h-41v.3h41zm27.6 0h-27.3v.3h27.3zM21.6 528h-38.5v.3h38.5zm41.4 0H22v.3h41zm41.5 0h-41v.3h41zm41.4 0h-41v.3h41zm41.4 0h-41v.3h41zm41.4 0h-41v.3h41zm41.4 0h-41v.3h41zm41.4 0h-41v.3h41zm41.4 0h-41v.3h41zm41.4 0h-41v.3h41zm41.4 0h-41v.3h41zm41.4 0h-41v.3h41zm41.4 0h-41v.3h41zm41.4 0h-41v.3h41zm41.4 0h-41v.3h41zm37 0h-36.6v.3h36.6zm41.4 0h-41v.3h41zm41.4 0h-41v.3h41zm41.4 0h-41v.3h41zm41.4 0h-41v.3h41zm41.4 0h-41v.3h41zm41.4 0h-41v.3h41zm41.4 0h-41v.3h41zm41.4 0h-41v.3h41zm41.4 0h-41v.3h41zm41.4 0h-41v.3h41zm41.5 0h-41v.3h41zm41.4 0h-41v.3h41zm41.4 0h-41v.3h41zm41.4 0h-41v.3h41zm27.6 0h-27.3v.3h27.3zM21.6 756h-38.5v.3h38.5zm41.4 0H22v.3h41zm41.5 0h-41v.3h41zm41.4 0h-41v.3h41zm41.4 0h-41v.3h41zm41.4 0h-41v.3h41zm41.4 0h-41v.3h41zm41.4 0h-41v.3h41zm41.4 0h-41v.3h41zm41.4 0h-41v.3h41zm41.4 0h-41v.3h41zm41.4 0h-41v.3h41zm41.4 0h-41v.3h41zm41.4 0h-41v.3h41zm41.4 0h-41v.3h41zm37 0h-36.6v.3h36.6zm41.4 0h-41v.3h41zm41.4 0h-41v.3h41zm41.4 0h-41v.3h41zm41.4 0h-41v.3h41zm41.4 0h-41v.3h41zm41.4 0h-41v.3h41zm41.4 0h-41v.3h41zm41.4 0h-41v.3h41zm41.4 0h-41v.3h41zm41.4 0h-41v.3h41zm41.5 0h-41v.3h41zm41.4 0h-41v.3h41zm41.4 0h-41v.3h41zm41.4 0h-41v.3h41zm27.6 0h-27.3v.3h27.3z"/><path fill="#3b82c9" d="M601.7 418.6h-.4v33.3h.4zm0-38h-.4v37.7h.4zm0-38h-.4v37.7h.4zm0-38h-.4v37.7h.4zm0-38h-.4v37.7h.4zm0-38h-.4v37.7h.4zm0-38h-.4v37.7h.4zm0-38h-.4v37.7h.4zm0-38.1h-.4v37.7h.4zm0-38h-.4v37.7h.4zm0-38h-.4v37.7h.4zm0-38h-.4v37.7h.4zm0-19.5h-.4V.2h.4z"/><path fill="#3b82c9" d="M601.7 38.2h-.4v.3h.4zm0 190h-.4v.4h.4zm0-228h-.4v.3h.4zm0 190h-.4v.4h.4zm0-38h-.4v.4h.4zm0-38h-.4v.3h.4zm0 228.1h-.4v.3h.4zm0 76h-.4v.3h.4zm0-152.1h-.4v.4h.4zm0-190h-.4v.3h.4zm0 228.1h-.4v.3h.4zm0 76h-.4v.3h.4zm0 110h-.4V528h.4zm0-38h-.4V490h.4z"/><path fill="#3b82c9" d="M601.7 489.9h-.4v.4h.4zm0 228.4h-.4V756h.4zm0-38h-.4V718h.4zm0-38h-.4V680h.4zm0-38h-.4V642h.4zm0-38h-.4V604h.4zm0-38h-.4V566h.4zm0 151.7h-.4v.3h.4zm0-228.1h-.4v.4h.4zm0 190.1h-.4v.3h.4zm0-38h-.4v.3h.4zm0-38h-.4v.3h.4zm0 152h-.4v.3h.4zm0-190h-.4v.3h.4zm0 266.4h-.4v21.8h.4zm0-38h-.4v37.7h.4zm0-.4h-.4v.4h.4zm-207-337.4h-.4v33.3h.4zm0-38h-.4v37.7h.4zm0-38h-.4v37.7h.4zm0-38h-.4v37.7h.4zm0-38h-.4v37.7h.4zm0-38h-.4v37.7h.4zm0-38h-.4v37.7h.4zm0-38h-.4v37.7h.4zm0-38.1h-.4v37.7h.4zm0-38h-.4v37.7h.4zm0-38h-.4v37.7h.4zm0-38h-.4v37.7h.4zm0-19.5h-.4V.2h.4z"/><path fill="#3b82c9" d="M394.7 38.2h-.4v.3h.4zm0 190h-.4v.4h.4zm0-228h-.4v.3h.4zm0 190h-.4v.4h.4zm0-38h-.4v.4h.4zm0-38h-.4v.3h.4zm0 228.1h-.4v.3h.4zm0 76h-.4v.3h.4zm0-152.1h-.4v.4h.4zm0-190h-.4v.3h.4zm0 228.1h-.4v.3h.4zm0 76h-.4v.3h.4zm0 110h-.4V528h.4zm0-38h-.4V490h.4z"/><path fill="#3b82c9" d="M394.7 489.9h-.4v.4h.4zm0 228.4h-.4V756h.4zm0-38h-.4V718h.4zm0-38h-.4V680h.4zm0-38h-.4V642h.4zm0-38h-.4V604h.4zm0-38h-.4V566h.4zm0 151.7h-.4v.3h.4zm0-228.1h-.4v.4h.4zm0 190.1h-.4v.3h.4zm0-38h-.4v.3h.4zm0-38h-.4v.3h.4zm0 152h-.4v.3h.4zm0-190h-.4v.3h.4zm0 266.4h-.4v21.8h.4zm0-38h-.4v37.7h.4zm0-.4h-.4v.4h.4zM146.2 418.6h-.4v33.3h.4zm0-38h-.4v37.7h.4zm0-38h-.4v37.7h.4zm0-38h-.4v37.7h.4zm0-38h-.4v37.7h.4zm0-38h-.4v37.7h.4zm0-38h-.4v37.7h.4zm0-38h-.4v37.7h.4zm0-38.1h-.4v37.7h.4zm0-38h-.4v37.7h.4zm0-38h-.4v37.7h.4zm0-38h-.4v37.7h.4zm0-19.5h-.4V.2h.4z"/><path fill="#3b82c9" d="M146.2 38.2h-.3v.3h.3zm0 190h-.3v.4h.3zm0-228h-.3v.3h.3zm0 190h-.3v.4h.3zm0-38h-.3v.4h.3zm0-38h-.3v.3h.3zm0 228.1h-.3v.3h.3zm0 76h-.3v.3h.3zm0-152.1h-.3v.4h.3zm0-190h-.3v.3h.3zm0 228.1h-.3v.3h.3zm0 76h-.3v.3h.3zm0 110h-.4V528h.4zm0-38h-.4V490h.4z"/><path fill="#3b82c9" d="M146.2 489.9h-.3v.4h.3zm0 228.4h-.4V756h.4zm0-38h-.4V718h.4zm0-38h-.4V680h.4zm0-38h-.4V642h.4zm0-38h-.4V604h.4zm0-38h-.4V566h.4zm0 151.7h-.3v.3h.3zm0-228.1h-.3v.4h.3zm0 190.1h-.3v.3h.3zm0-38h-.3v.3h.3zm0-38h-.3v.3h.3zm0 152h-.3v.3h.3zm0-190h-.3v.3h.3zm0 266.4h-.4v21.8h.4zm0-38h-.4v37.7h.4zm0-.4h-.3v.4h.3zm289.9-337.4h-.4v33.3h.4zm0-38h-.4v37.7h.4zm0-38h-.4v37.7h.4zm0-38h-.4v37.7h.4zm0-38h-.4v37.7h.4zm0-38h-.4v37.7h.4zm0-38h-.4v37.7h.4zm0-38h-.4v37.7h.4zm0-38.1h-.4v37.7h.4zm0-38h-.4v37.7h.4zm0-38h-.4v37.7h.4zm0-38h-.4v37.7h.4zm0-19.5h-.4V.2h.4z"/><path fill="#3b82c9" d="M436.1 38.2h-.4v.3h.4zm0 190h-.4v.4h.4zm0-228h-.4v.3h.4zm0 190h-.4v.4h.4zm0-38h-.4v.4h.4zm0-38h-.4v.3h.4zm0 228.1h-.4v.3h.4zm0 76h-.4v.3h.4zm0-152.1h-.4v.4h.4zm0-190h-.4v.3h.4zm0 228.1h-.4v.3h.4zm0 76h-.4v.3h.4zm0 110h-.4V528h.4zm0-38h-.4V490h.4z"/><path fill="#3b82c9" d="M436.1 489.9h-.4v.4h.4zm0 228.4h-.4V756h.4zm0-38h-.4V718h.4zm0-38h-.4V680h.4zm0-38h-.4V642h.4zm0-38h-.4V604h.4zm0-38h-.4V566h.4zm0 151.7h-.4v.3h.4zm0-228.1h-.4v.4h.4zm0 190.1h-.4v.3h.4zm0-38h-.4v.3h.4zm0-38h-.4v.3h.4zm0 152h-.4v.3h.4zm0-190h-.4v.3h.4zm0 266.4h-.4v21.8h.4zm0-38h-.4v37.7h.4zm0-.4h-.4v.4h.4zM187.6 418.6h-.4v33.3h.4zm0-38h-.4v37.7h.4zm0-38h-.4v37.7h.4zm0-38h-.4v37.7h.4zm0-38h-.4v37.7h.4zm0-38h-.4v37.7h.4zm0-38h-.4v37.7h.4zm0-38h-.4v37.7h.4zm0-38.1h-.4v37.7h.4zm0-38h-.4v37.7h.4zm0-38h-.4v37.7h.4zm0-38h-.4v37.7h.4zm0-19.5h-.4V.2h.4z"/><path fill="#3b82c9" d="M187.6 38.2h-.3v.3h.3zm0 190h-.3v.4h.3zm0-228h-.3v.3h.3zm0 190h-.3v.4h.3zm0-38h-.3v.4h.3zm0-38h-.3v.3h.3zm0 228.1h-.3v.3h.3zm0 76h-.3v.3h.3zm0-152.1h-.3v.4h.3zm0-190h-.3v.3h.3zm0 228.1h-.3v.3h.3zm0 76h-.3v.3h.3zm0 110h-.4V528h.4zm0-38h-.4V490h.4z"/><path fill="#3b82c9" d="M187.6 489.9h-.3v.4h.3zm0 228.4h-.4V756h.4zm0-38h-.4V718h.4zm0-38h-.4V680h.4zm0-38h-.4V642h.4zm0-38h-.4V604h.4zm0-38h-.4V566h.4zm0 151.7h-.3v.3h.3zm0-228.1h-.3v.4h.3zm0 190.1h-.3v.3h.3zm0-38h-.3v.3h.3zm0-38h-.3v.3h.3zm0 152h-.3v.3h.3zm0-190h-.3v.3h.3zm0 266.4h-.4v21.8h.4zm0-38h-.4v37.7h.4zm0-.4h-.3v.4h.3zM22 794.4h-.4v21.8h.4zm0-38h-.4v37.7h.4zm0-38.1h-.4V756h.4zm0-38h-.4V718h.4zm0-38h-.4V680h.4zm0-38h-.4V642h.4zm0-38h-.4V604h.4zm0-38h-.4V566h.4zm0-38h-.4V528h.4zm0-38h-.4V490h.4zm0-33.7h-.4v33.3h.4zm0-38h-.4v37.7h.4zm0-38h-.4v37.7h.4zm0-38h-.4v37.7h.4zm0-38h-.4v37.7h.4zm0-38h-.4v37.7h.4zm0-38h-.4v37.7h.4zm0-38h-.4v37.7h.4zm0-38.1h-.4v37.7h.4zm0-38h-.4v37.7h.4zm0-38h-.4v37.7h.4zm0-38h-.4v37.7h.4zM22-19h-.4V.2h.4z"/><path fill="#3b82c9" d="M22 38.2h-.4v.3h.4zm0 190h-.4v.4h.4zm0-228h-.4v.3h.4zm0 190h-.4v.4h.4zm0-38h-.4v.4h.4zm0-38h-.4v.3h.4zm0 228.1h-.4v.3h.4zm0 76h-.4v.3h.4zm0-152.1h-.4v.4h.4zm0-190h-.4v.3h.4zm0 228.1h-.4v.3h.4zm0 76h-.4v.3h.4zm0 109.6h-.4v.4h.4zM22 680h-.4v.3h.4zm0-228.1h-.4v.4h.4zM22 642h-.4v.3h.4zm0-38h-.4v.3h.4zm0-38h-.4v.3h.4zm0 152h-.4v.3h.4zm0-190h-.4v.3h.4zm0 228h-.4v.4h.4zm455.5 38.4h-.4v21.8h.4zm0-38h-.4v37.7h.4zm0-38.1h-.4V756h.4zm0-38h-.4V718h.4zm0-38h-.4V680h.4zm0-38h-.4V642h.4zm0-38h-.4V604h.4zm0-38h-.4V566h.4zm0-38h-.4V528h.4zm0-38h-.4V490h.4zm0-33.7h-.4v33.3h.4zm0-38h-.4v37.7h.4zm0-38h-.4v37.7h.4zm0-38h-.4v37.7h.4zm0-38h-.4v37.7h.4zm0-38h-.4v37.7h.4zm0-38h-.4v37.7h.4zm0-38h-.4v37.7h.4zm0-38.1h-.4v37.7h.4zm0-38h-.4v37.7h.4zm0-38h-.4v37.7h.4zm0-38h-.4v37.7h.4zm0-19.5h-.4V.2h.4z"/><path fill="#3b82c9" d="M477.5 38.2h-.4v.3h.4zm0 190h-.4v.4h.4zm0-228h-.4v.3h.4zm0 190h-.4v.4h.4zm0-38h-.4v.4h.4zm0-38h-.4v.3h.4zm0 228.1h-.4v.3h.4zm0 76h-.4v.3h.4zm0-152.1h-.4v.4h.4zm0-190h-.4v.3h.4zm0 228.1h-.4v.3h.4zm0 76h-.4v.3h.4zm0 109.6h-.4v.4h.4zm0 190.1h-.4v.3h.4zm0-228.1h-.4v.4h.4zm0 190.1h-.4v.3h.4zm0-38h-.4v.3h.4zm0-38h-.4v.3h.4zm0 152h-.4v.3h.4zm0-190h-.4v.3h.4zm0 228h-.4v.4h.4zM229 794.4h-.4v21.8h.4zm0-38h-.4v37.7h.4zm0-38.1h-.4V756h.4zm0-38h-.4V718h.4zm0-38h-.4V680h.4zm0-38h-.4V642h.4zm0-38h-.4V604h.4zm0-38h-.4V566h.4zm0-38h-.4V528h.4zm0-38h-.4V490h.4zm0-33.7h-.4v33.3h.4zm0-38h-.4v37.7h.4zm0-38h-.4v37.7h.4zm0-38h-.4v37.7h.4zm0-38h-.4v37.7h.4zm0-38h-.4v37.7h.4zm0-38h-.4v37.7h.4zm0-38h-.4v37.7h.4zm0-38.1h-.4v37.7h.4zm0-38h-.4v37.7h.4zm0-38h-.4v37.7h.4zm0-38h-.4v37.7h.4zm0-19.5h-.4V.2h.4z"/><path fill="#3b82c9" d="M229 38.2h-.3v.3h.3zm0 190h-.3v.4h.3zm0-228h-.3v.3h.3zm0 190h-.3v.4h.3zm0-38h-.3v.4h.3zm0-38h-.3v.3h.3zm0 228.1h-.3v.3h.3zm0 76h-.3v.3h.3zm0-152.1h-.3v.4h.3zm0-190h-.3v.3h.3zm0 228.1h-.3v.3h.3zm0 76h-.3v.3h.3zm0 109.6h-.3v.4h.3zm0 190.1h-.3v.3h.3zm0-228.1h-.3v.4h.3zm0 190.1h-.3v.3h.3zm0-38h-.3v.3h.3zm0-38h-.3v.3h.3zm0 152h-.3v.3h.3zm0-190h-.3v.3h.3zm0 228h-.3v.4h.3zM63.4 794.4H63v21.8h.4zm0-38H63v37.7h.4zm0-38.1H63V756h.4zm0-38H63V718h.4zm0-38H63V680h.4zm0-38H63V642h.4zm0-38H63V604h.4zm0-38H63V566h.4zm0-38H63V528h.4zm0-38H63V490h.4zm0-33.7H63v33.3h.4zm0-38H63v37.7h.4zm0-38H63v37.7h.4zm0-38H63v37.7h.4zm0-38H63v37.7h.4zm0-38H63v37.7h.4zm0-38H63v37.7h.4zm0-38H63v37.7h.4zm0-38.1H63v37.7h.4zm0-38H63v37.7h.4zm0-38H63v37.7h.4zm0-38H63v37.7h.4zm0-19.5H63V.2h.4z"/><path fill="#3b82c9" d="M63.4 38.2H63v.3h.4zm0 190H63v.4h.4zm0-228H63v.3h.4zm0 190H63v.4h.4zm0-38H63v.4h.4zm0-38H63v.3h.4zm0 228.1H63v.3h.4zm0 76H63v.3h.4zm0-152.1H63v.4h.4zm0-190H63v.3h.4zm0 228.1H63v.3h.4zm0 76H63v.3h.4zm0 109.6H63v.4h.4zm0 190.1H63v.3h.4zm0-228.1H63v.4h.4zm0 190.1H63v.3h.4zm0-38H63v.3h.4zm0-38H63v.3h.4zm0 152H63v.3h.4zm0-190H63v.3h.4zm0 228H63v.4h.4zm455.5 38.4h-.4v21.8h.4zm0-38h-.4v37.7h.4zm0-38.1h-.4V756h.4zm0-38h-.4V718h.4zm0-38h-.4V680h.4zm0-38h-.4V642h.4zm0-38h-.4V604h.4zm0-38h-.4V566h.4zm0-38h-.4V528h.4zm0-38h-.4V490h.4zm0-33.7h-.4v33.3h.4zm0-38h-.4v37.7h.4zm0-38h-.4v37.7h.4zm0-38h-.4v37.7h.4zm0-38h-.4v37.7h.4zm0-38h-.4v37.7h.4zm0-38h-.4v37.7h.4zm0-38h-.4v37.7h.4zm0-38.1h-.4v37.7h.4zm0-38h-.4v37.7h.4zm0-38h-.4v37.7h.4zm0-38h-.4v37.7h.4zm0-19.5h-.4V.2h.4z"/><path fill="#3b82c9" d="M518.9 38.2h-.4v.3h.4zm0 190h-.4v.4h.4zm0-228h-.4v.3h.4zm0 190h-.4v.4h.4zm0-38h-.4v.4h.4zm0-38h-.4v.3h.4zm0 228.1h-.4v.3h.4zm0 76h-.4v.3h.4zm0-152.1h-.4v.4h.4zm0-190h-.4v.3h.4zm0 228.1h-.4v.3h.4zm0 76h-.4v.3h.4zm0 109.6h-.4v.4h.4zm0 190.1h-.4v.3h.4zm0-228.1h-.4v.4h.4zm0 190.1h-.4v.3h.4zm0-38h-.4v.3h.4zm0-38h-.4v.3h.4zm0 152h-.4v.3h.4zm0-190h-.4v.3h.4zm0 228h-.4v.4h.4zm-248.5 38.4h-.4v21.8h.4zm0-38h-.4v37.7h.4zm0-38.1h-.4V756h.4zm0-38h-.4V718h.4zm0-38h-.4V680h.4zm0-38h-.4V642h.4zm0-38h-.4V604h.4zm0-38h-.4V566h.4zm0-38h-.4V528h.4zm0-38h-.4V490h.4zm0-33.7h-.4v33.3h.4zm0-38h-.4v37.7h.4zm0-38h-.4v37.7h.4zm0-38h-.4v37.7h.4zm0-38h-.4v37.7h.4zm0-38h-.4v37.7h.4zm0-38h-.4v37.7h.4zm0-38h-.4v37.7h.4zm0-38.1h-.4v37.7h.4zm0-38h-.4v37.7h.4zm0-38h-.4v37.7h.4zm0-38h-.4v37.7h.4zm0-19.5h-.4V.2h.4z"/><path fill="#3b82c9" d="M270.4 38.2h-.3v.3h.3zm0 190h-.3v.4h.3zm0-228h-.3v.3h.3zm0 190h-.3v.4h.3zm0-38h-.3v.4h.3zm0-38h-.3v.3h.3zm0 228.1h-.3v.3h.3zm0 76h-.3v.3h.3zm0-152.1h-.3v.4h.3zm0-190h-.3v.3h.3zm0 228.1h-.3v.3h.3zm0 76h-.3v.3h.3zm0 109.6h-.3v.4h.3zm0 190.1h-.3v.3h.3zm0-228.1h-.3v.4h.3zm0 190.1h-.3v.3h.3zm0-38h-.3v.3h.3zm0-38h-.3v.3h.3zm0 152h-.3v.3h.3zm0-190h-.3v.3h.3zm0 228h-.3v.4h.3zm82.9 38.4h-.4v21.8h.4zm0-38h-.4v37.7h.4zm0-38.1h-.4V756h.4zm0-38h-.4V718h.4zm0-38h-.4V680h.4zm0-38h-.4V642h.4zm0-38h-.4V604h.4zm0-38h-.4V566h.4zm0-38h-.4V528h.4zm0-38h-.4V490h.4zm0-33.7h-.4v33.3h.4zm0-38h-.4v37.7h.4zm0-38h-.4v37.7h.4zm0-38h-.4v37.7h.4zm0-38h-.4v37.7h.4zm0-38h-.4v37.7h.4zm0-38h-.4v37.7h.4zm0-38h-.4v37.7h.4zm0-38.1h-.4v37.7h.4zm0-38h-.4v37.7h.4zm0-38h-.4v37.7h.4zm0-38h-.4v37.7h.4zm0-19.5h-.4V.2h.4z"/><path fill="#3b82c9" d="M353.3 38.2h-.4v.3h.4zm0 190h-.4v.4h.4zm0-228h-.4v.3h.4zm0 190h-.4v.4h.4zm0-38h-.4v.4h.4zm0-38h-.4v.3h.4zm0 228.1h-.4v.3h.4zm0 76h-.4v.3h.4zm0-152.1h-.4v.4h.4zm0-190h-.4v.3h.4zm0 228.1h-.4v.3h.4zm0 76h-.4v.3h.4zm0 109.6h-.4v.4h.4zm0 190.1h-.4v.3h.4zm0-228.1h-.4v.4h.4zm0 190.1h-.4v.3h.4zm0-38h-.4v.3h.4zm0-38h-.4v.3h.4zm0 152h-.4v.3h.4zm0-190h-.4v.3h.4zm0 228h-.4v.4h.4zm-248.5 38.4h-.4v21.8h.4zm0-38h-.4v37.7h.4zm0-38.1h-.4V756h.4zm0-38h-.4V718h.4zm0-38h-.4V680h.4zm0-38h-.4V642h.4zm0-38h-.4V604h.4zm0-38h-.4V566h.4zm0-38h-.4V528h.4zm0-38h-.4V490h.4zm0-33.7h-.4v33.3h.4zm0-38h-.4v37.7h.4zm0-38h-.4v37.7h.4zm0-38h-.4v37.7h.4zm0-38h-.4v37.7h.4zm0-38h-.4v37.7h.4zm0-38h-.4v37.7h.4zm0-38h-.4v37.7h.4zm0-38.1h-.4v37.7h.4zm0-38h-.4v37.7h.4zm0-38h-.4v37.7h.4zm0-38h-.4v37.7h.4zm0-19.5h-.4V.2h.4z"/><path fill="#3b82c9" d="M104.8 38.2h-.3v.3h.3zm0 190h-.3v.4h.3zm0-228h-.3v.3h.3zm0 190h-.3v.4h.3zm0-38h-.3v.4h.3zm0-38h-.3v.3h.3zm0 228.1h-.3v.3h.3zm0 76h-.3v.3h.3zm0-152.1h-.3v.4h.3zm0-190h-.3v.3h.3zm0 228.1h-.3v.3h.3zm0 76h-.3v.3h.3zm0 109.6h-.3v.4h.3zm0 190.1h-.3v.3h.3zm0-228.1h-.3v.4h.3zm0 190.1h-.3v.3h.3zm0-38h-.3v.3h.3zm0-38h-.3v.3h.3zm0 152h-.3v.3h.3zm0-190h-.3v.3h.3zm0 228h-.3v.4h.3zm455.5 38.4h-.4v21.8h.4zm0-38h-.4v37.7h.4zm0-38.1h-.4V756h.4zm0-38h-.4V718h.4zm0-38h-.4V680h.4zm0-38h-.4V642h.4zm0-38h-.4V604h.4zm0-38h-.4V566h.4zm0-38h-.4V528h.4zm0-38h-.4V490h.4zm0-33.7h-.4v33.3h.4zm0-38h-.4v37.7h.4zm0-38h-.4v37.7h.4zm0-38h-.4v37.7h.4zm0-38h-.4v37.7h.4zm0-38h-.4v37.7h.4zm0-38h-.4v37.7h.4zm0-38h-.4v37.7h.4zm0-38.1h-.4v37.7h.4zm0-38h-.4v37.7h.4zm0-38h-.4v37.7h.4zm0-38h-.4v37.7h.4zm0-19.5h-.4V.2h.4z"/><path fill="#3b82c9" d="M560.3 38.2h-.4v.3h.4zm0 190h-.4v.4h.4zm0-228h-.4v.3h.4zm0 190h-.4v.4h.4zm0-38h-.4v.4h.4zm0-38h-.4v.3h.4zm0 228.1h-.4v.3h.4zm0 76h-.4v.3h.4zm0-152.1h-.4v.4h.4zm0-190h-.4v.3h.4zm0 228.1h-.4v.3h.4zm0 76h-.4v.3h.4zm0 109.6h-.4v.4h.4zm0 190.1h-.4v.3h.4zm0-228.1h-.4v.4h.4zm0 190.1h-.4v.3h.4zm0-38h-.4v.3h.4zm0-38h-.4v.3h.4zm0 152h-.4v.3h.4zm0-190h-.4v.3h.4zm0 228h-.4v.4h.4zm-248.4 38.4h-.4v21.8h.4zm0-38h-.4v37.7h.4zm0-38.1h-.4V756h.4zm0-38h-.4V718h.4zm0-38h-.4V680h.4zm0-38h-.4V642h.4zm0-38h-.4V604h.4zm0-38h-.4V566h.4zm0-38h-.4V528h.4zm0-38h-.4V490h.4zm0-33.7h-.4v33.3h.4zm0-38h-.4v37.7h.4zm0-38h-.4v37.7h.4zm0-38h-.4v37.7h.4zm0-38h-.4v37.7h.4zm0-38h-.4v37.7h.4zm0-38h-.4v37.7h.4zm0-38h-.4v37.7h.4zm0-38.1h-.4v37.7h.4zm0-38h-.4v37.7h.4zm0-38h-.4v37.7h.4zm0-38h-.4v37.7h.4zm0-19.5h-.4V.2h.4z"/><path fill="#3b82c9" d="M311.9 38.2h-.4v.3h.4zm0 190h-.4v.4h.4zm0-228h-.4v.3h.4zm0 190h-.4v.4h.4zm0-38h-.4v.4h.4zm0-38h-.4v.3h.4zm0 228.1h-.4v.3h.4zm0 76h-.4v.3h.4zm0-152.1h-.4v.4h.4zm0-190h-.4v.3h.4zm0 228.1h-.4v.3h.4zm0 76h-.4v.3h.4zm0 109.6h-.4v.4h.4zm0 190.1h-.4v.3h.4zm0-228.1h-.4v.4h.4zm0 190.1h-.4v.3h.4zm0-38h-.4v.3h.4zm0-38h-.4v.3h.4zm0 152h-.4v.3h.4zm0-190h-.4v.3h.4zm0 228h-.4v.4h.4zm906.4 38.4h-.4v21.8h.4zm0-38h-.4v37.7h.4zm0-38.1h-.4V756h.4zm0-38h-.4V718h.4zm0-38h-.4V680h.4zm0-38h-.4V642h.4zm0-38h-.4V604h.4zm0-38h-.4V566h.4zm0-38h-.4V528h.4zm0-38h-.4V490h.4zm0-33.7h-.4v33.3h.4zm0-38h-.4v37.7h.4zm0-38h-.4v37.7h.4zm0-38h-.4v37.7h.4zm0-38h-.4v37.7h.4zm0-38h-.4v37.7h.4zm0-38h-.4v37.7h.4zm0-38h-.4v37.7h.4zm0-38.1h-.4v37.7h.4zm0-38h-.4v37.7h.4zm0-38h-.4v37.7h.4zm0-38h-.4v37.7h.4zm0-19.5h-.4V.2h.4z"/><path fill="#3b82c9" d="M1218.3 38.2h-.3v.3h.3zm0 190h-.3v.4h.3zm0-228h-.3v.3h.3zm0 190h-.3v.4h.3zm0-38h-.3v.4h.3zm0-38h-.3v.3h.3zm0 228.1h-.3v.3h.3zm0 76h-.3v.3h.3zm0-152.1h-.3v.4h.3zm0-190h-.3v.3h.3zm0 228.1h-.3v.3h.3zm0 76h-.3v.3h.3zm0 109.6h-.3v.4h.3zm0 190.1h-.3v.3h.3zm0-228.1h-.3v.4h.3zm0 190.1h-.3v.3h.3zm0-38h-.3v.3h.3zm0-38h-.3v.3h.3zm0 152h-.3v.3h.3zm0-190h-.3v.3h.3zm0 228h-.3v.4h.3zm-207 38.4h-.4v21.8h.4zm0-38h-.4v37.7h.4zm0-38.1h-.4V756h.4zm0-38h-.4V718h.4zm0-38h-.4V680h.4zm0-38h-.4V642h.4zm0-38h-.4V604h.4zm0-38h-.4V566h.4zm0-38h-.4V528h.4zm0-38h-.4V490h.4zm0-33.7h-.4v33.3h.4zm0-38h-.4v37.7h.4zm0-38h-.4v37.7h.4zm0-38h-.4v37.7h.4zm0-38h-.4v37.7h.4zm0-38h-.4v37.7h.4zm0-38h-.4v37.7h.4zm0-38h-.4v37.7h.4zm0-38.1h-.4v37.7h.4zm0-38h-.4v37.7h.4zm0-38h-.4v37.7h.4zm0-38h-.4v37.7h.4zm0-19.5h-.4V.2h.4z"/><path fill="#3b82c9" d="M1011.3 38.2h-.4v.3h.4zm0 190h-.4v.4h.4zm0-228h-.4v.3h.4zm0 190h-.4v.4h.4zm0-38h-.4v.4h.4zm0-38h-.4v.3h.4zm0 228.1h-.4v.3h.4zm0 76h-.4v.3h.4zm0-152.1h-.4v.4h.4zm0-190h-.4v.3h.4zm0 228.1h-.4v.3h.4zm0 76h-.4v.3h.4zm0 109.6h-.4v.4h.4zm0 190.1h-.4v.3h.4zm0-228.1h-.4v.4h.4zm0 190.1h-.4v.3h.4zm0-38h-.4v.3h.4zm0-38h-.4v.3h.4zm0 152h-.4v.3h.4zm0-190h-.4v.3h.4zm0 228h-.4v.4h.4zm-248.4 38.4h-.4v21.8h.4zm0-38h-.4v37.7h.4zm0-38.1h-.4V756h.4zm0-38h-.4V718h.4zm0-38h-.4V680h.4zm0-38h-.4V642h.4zm0-38h-.4V604h.4zm0-38h-.4V566h.4zm0-38h-.4V528h.4zm0-38h-.4V490h.4zm0-33.7h-.4v33.3h.4zm0-38h-.4v37.7h.4zm0-38h-.4v37.7h.4zm0-38h-.4v37.7h.4zm0-38h-.4v37.7h.4zm0-38h-.4v37.7h.4zm0-38h-.4v37.7h.4zm0-38h-.4v37.7h.4zm0-38.1h-.4v37.7h.4zm0-38h-.4v37.7h.4zm0-38h-.4v37.7h.4zm0-38h-.4v37.7h.4zm0-19.5h-.4V.2h.4z"/><path fill="#3b82c9" d="M762.9 38.2h-.4v.3h.4zm0 190h-.4v.4h.4zm0-228h-.4v.3h.4zm0 190h-.4v.4h.4zm0-38h-.4v.4h.4zm0-38h-.4v.3h.4zm0 228.1h-.4v.3h.4zm0 76h-.4v.3h.4zm0-152.1h-.4v.4h.4zm0-190h-.4v.3h.4zm0 228.1h-.4v.3h.4zm0 76h-.4v.3h.4zm0 109.6h-.4v.4h.4zm0 190.1h-.4v.3h.4zm0-228.1h-.4v.4h.4zm0 190.1h-.4v.3h.4zm0-38h-.4v.3h.4zm0-38h-.4v.3h.4zm0 152h-.4v.3h.4zm0-190h-.4v.3h.4zm0 228h-.4v.4h.4zm289.8 38.4h-.4v21.8h.4zm0-38h-.4v37.7h.4zm0-38.1h-.4V756h.4zm0-38h-.4V718h.4zm0-38h-.4V680h.4zm0-38h-.4V642h.4zm0-38h-.4V604h.4zm0-38h-.4V566h.4zm0-38h-.4V528h.4zm0-38h-.4V490h.4zm0-33.7h-.4v33.3h.4zm0-38h-.4v37.7h.4zm0-38h-.4v37.7h.4zm0-38h-.4v37.7h.4zm0-38h-.4v37.7h.4zm0-38h-.4v37.7h.4zm0-38h-.4v37.7h.4zm0-38h-.4v37.7h.4zm0-38.1h-.4v37.7h.4zm0-38h-.4v37.7h.4zm0-38h-.4v37.7h.4zm0-38h-.4v37.7h.4zm0-19.5h-.4V.2h.4z"/><path fill="#3b82c9" d="M1052.7 38.2h-.4v.3h.4zm0 190h-.4v.4h.4zm0-228h-.4v.3h.4zm0 190h-.4v.4h.4zm0-38h-.4v.4h.4zm0-38h-.4v.3h.4zm0 228.1h-.4v.3h.4zm0 76h-.4v.3h.4zm0-152.1h-.4v.4h.4zm0-190h-.4v.3h.4zm0 228.1h-.4v.3h.4zm0 76h-.4v.3h.4zm0 109.6h-.4v.4h.4zm0 190.1h-.4v.3h.4zm0-228.1h-.4v.4h.4zm0 190.1h-.4v.3h.4zm0-38h-.4v.3h.4zm0-38h-.4v.3h.4zm0 152h-.4v.3h.4zm0-190h-.4v.3h.4zm0 228h-.4v.4h.4zm-248.4 38.4h-.4v21.8h.4zm0-38h-.4v37.7h.4zm0-38.1h-.4V756h.4zm0-38h-.4V718h.4zm0-38h-.4V680h.4zm0-38h-.4V642h.4zm0-38h-.4V604h.4zm0-38h-.4V566h.4zm0-38h-.4V528h.4zm0-38h-.4V490h.4zm0-33.7h-.4v33.3h.4zm0-38h-.4v37.7h.4zm0-38h-.4v37.7h.4zm0-38h-.4v37.7h.4zm0-38h-.4v37.7h.4zm0-38h-.4v37.7h.4zm0-38h-.4v37.7h.4zm0-38h-.4v37.7h.4zm0-38.1h-.4v37.7h.4zm0-38h-.4v37.7h.4zm0-38h-.4v37.7h.4zm0-38h-.4v37.7h.4zm0-19.5h-.4V.2h.4z"/><path fill="#3b82c9" d="M804.3 38.2h-.4v.3h.4zm0 190h-.4v.4h.4zm0-228h-.4v.3h.4zm0 190h-.4v.4h.4zm0-38h-.4v.4h.4zm0-38h-.4v.3h.4zm0 228.1h-.4v.3h.4zm0 76h-.4v.3h.4zm0-152.1h-.4v.4h.4zm0-190h-.4v.3h.4zm0 228.1h-.4v.3h.4zm0 76h-.4v.3h.4zm0 109.6h-.4v.4h.4zm0 190.1h-.4v.3h.4zm0-228.1h-.4v.4h.4zm0 190.1h-.4v.3h.4zm0-38h-.4v.3h.4zm0-38h-.4v.3h.4zm0 152h-.4v.3h.4zm0-190h-.4v.3h.4zm0 228h-.4v.4h.4zm-165.6 38.4h-.4v21.8h.4zm0-38h-.4v37.7h.4zm0-38.1h-.4V756h.4zm0-38h-.4V718h.4zm0-38h-.4V680h.4zm0-38h-.4V642h.4zm0-38h-.4V604h.4zm0-38h-.4V566h.4zm0-38h-.4V528h.4zm0-38h-.4V490h.4zm0-33.7h-.4v33.3h.4zm0-38h-.4v37.7h.4zm0-38h-.4v37.7h.4zm0-38h-.4v37.7h.4zm0-38h-.4v37.7h.4zm0-38h-.4v37.7h.4zm0-38h-.4v37.7h.4zm0-38h-.4v37.7h.4zm0-38.1h-.4v37.7h.4zm0-38h-.4v37.7h.4zm0-38h-.4v37.7h.4zm0-38h-.4v37.7h.4zm0-19.5h-.4V.2h.4z"/><path fill="#3b82c9" d="M638.7 38.2h-.4v.3h.4zm0 190h-.4v.4h.4zm0-228h-.4v.3h.4zm0 190h-.4v.4h.4zm0-38h-.4v.4h.4zm0-38h-.4v.3h.4zm0 228.1h-.4v.3h.4zm0 76h-.4v.3h.4zm0-152.1h-.4v.4h.4zm0-190h-.4v.3h.4zm0 228.1h-.4v.3h.4zm0 76h-.4v.3h.4zm0 109.6h-.4v.4h.4zm0 190.1h-.4v.3h.4zm0-228.1h-.4v.4h.4zm0 190.1h-.4v.3h.4zm0-38h-.4v.3h.4zm0-38h-.4v.3h.4zm0 152h-.4v.3h.4zm0-190h-.4v.3h.4zm0 228h-.4v.4h.4zm455.4 38.4h-.4v21.8h.4zm0-38h-.4v37.7h.4zm0-38.1h-.4V756h.4zm0-38h-.4V718h.4zm0-38h-.4V680h.4zm0-38h-.4V642h.4zm0-38h-.4V604h.4zm0-38h-.4V566h.4zm0-38h-.4V528h.4zm0-38h-.4V490h.4zm0-33.7h-.4v33.3h.4zm0-38h-.4v37.7h.4zm0-38h-.4v37.7h.4zm0-38h-.4v37.7h.4zm0-38h-.4v37.7h.4zm0-38h-.4v37.7h.4zm0-38h-.4v37.7h.4zm0-38h-.4v37.7h.4zm0-38.1h-.4v37.7h.4zm0-38h-.4v37.7h.4zm0-38h-.4v37.7h.4zm0-38h-.4v37.7h.4zm0-19.5h-.4V.2h.4z"/><path fill="#3b82c9" d="M1094.1 38.2h-.3v.3h.3zm0 190h-.3v.4h.3zm0-228h-.3v.3h.3zm0 190h-.3v.4h.3zm0-38h-.3v.4h.3zm0-38h-.3v.3h.3zm0 228.1h-.3v.3h.3zm0 76h-.3v.3h.3zm0-152.1h-.3v.4h.3zm0-190h-.3v.3h.3zm0 228.1h-.3v.3h.3zm0 76h-.3v.3h.3zm0 109.6h-.3v.4h.3zm0 190.1h-.3v.3h.3zm0-228.1h-.3v.4h.3zm0 190.1h-.3v.3h.3zm0-38h-.3v.3h.3zm0-38h-.3v.3h.3zm0 152h-.3v.3h.3zm0-190h-.3v.3h.3zm0 228h-.3v.4h.3zm-248.4 38.4h-.4v21.8h.4zm0-38h-.4v37.7h.4zm0-38.1h-.4V756h.4zm0-38h-.4V718h.4zm0-38h-.4V680h.4zm0-38h-.4V642h.4zm0-38h-.4V604h.4zm0-38h-.4V566h.4zm0-38h-.4V528h.4zm0-38h-.4V490h.4zm0-33.7h-.4v33.3h.4zm0-38h-.4v37.7h.4zm0-38h-.4v37.7h.4zm0-38h-.4v37.7h.4zm0-38h-.4v37.7h.4zm0-38h-.4v37.7h.4zm0-38h-.4v37.7h.4zm0-38h-.4v37.7h.4zm0-38.1h-.4v37.7h.4zm0-38h-.4v37.7h.4zm0-38h-.4v37.7h.4zm0-38h-.4v37.7h.4zm0-19.5h-.4V.2h.4z"/><path fill="#3b82c9" d="M845.7 38.2h-.4v.3h.4zm0 190h-.4v.4h.4zm0-228h-.4v.3h.4zm0 190h-.4v.4h.4zm0-38h-.4v.4h.4zm0-38h-.4v.3h.4zm0 228.1h-.4v.3h.4zm0 76h-.4v.3h.4zm0-152.1h-.4v.4h.4zm0-190h-.4v.3h.4zm0 228.1h-.4v.3h.4zm0 76h-.4v.3h.4zm0 109.6h-.4v.4h.4zm0 190.1h-.4v.3h.4zm0-228.1h-.4v.4h.4zm0 190.1h-.4v.3h.4zm0-38h-.4v.3h.4zm0-38h-.4v.3h.4zm0 152h-.4v.3h.4zm0-190h-.4v.3h.4zm0 228h-.4v.4h.4zm-165.6 38.4h-.4v21.8h.4zm0-38h-.4v37.7h.4zm0-38.1h-.4V756h.4zm0-38h-.4V718h.4zm0-38h-.4V680h.4zm0-38h-.4V642h.4zm0-38h-.4V604h.4zm0-38h-.4V566h.4zm0-38h-.4V528h.4zm0-38h-.4V490h.4zm0-33.7h-.4v33.3h.4zm0-38h-.4v37.7h.4zm0-38h-.4v37.7h.4zm0-38h-.4v37.7h.4zm0-38h-.4v37.7h.4zm0-38h-.4v37.7h.4zm0-38h-.4v37.7h.4zm0-38h-.4v37.7h.4zm0-38.1h-.4v37.7h.4zm0-38h-.4v37.7h.4zm0-38h-.4v37.7h.4zm0-38h-.4v37.7h.4zm0-19.5h-.4V.2h.4z"/><path fill="#3b82c9" d="M680.1 38.2h-.4v.3h.4zm0 190h-.4v.4h.4zm0-228h-.4v.3h.4zm0 190h-.4v.4h.4zm0-38h-.4v.4h.4zm0-38h-.4v.3h.4zm0 228.1h-.4v.3h.4zm0 76h-.4v.3h.4zm0-152.1h-.4v.4h.4zm0-190h-.4v.3h.4zm0 228.1h-.4v.3h.4zm0 76h-.4v.3h.4zm0 109.6h-.4v.4h.4zm0 190.1h-.4v.3h.4zm0-228.1h-.4v.4h.4zm0 190.1h-.4v.3h.4zm0-38h-.4v.3h.4zm0-38h-.4v.3h.4zm0 152h-.4v.3h.4zm0-190h-.4v.3h.4zm0 228h-.4v.4h.4zm455.4 38.4h-.4v21.8h.4zm0-38h-.4v37.7h.4zm0-38.1h-.4V756h.4zm0-38h-.4V718h.4zm0-38h-.4V680h.4zm0-38h-.4V642h.4zm0-38h-.4V604h.4zm0-38h-.4V566h.4zm0-38h-.4V528h.4zm0-38h-.4V490h.4zm0-33.7h-.4v33.3h.4zm0-38h-.4v37.7h.4zm0-38h-.4v37.7h.4zm0-38h-.4v37.7h.4zm0-38h-.4v37.7h.4zm0-38h-.4v37.7h.4zm0-38h-.4v37.7h.4zm0-38h-.4v37.7h.4zm0-38.1h-.4v37.7h.4zm0-38h-.4v37.7h.4zm0-38h-.4v37.7h.4zm0-38h-.4v37.7h.4zm0-19.5h-.4V.2h.4z"/><path fill="#3b82c9" d="M1135.5 38.2h-.3v.3h.3zm0 190h-.3v.4h.3zm0-228h-.3v.3h.3zm0 190h-.3v.4h.3zm0-38h-.3v.4h.3zm0-38h-.3v.3h.3zm0 228.1h-.3v.3h.3zm0 76h-.3v.3h.3zm0-152.1h-.3v.4h.3zm0-190h-.3v.3h.3zm0 228.1h-.3v.3h.3zm0 76h-.3v.3h.3zm0 109.6h-.3v.4h.3zm0 190.1h-.3v.3h.3zm0-228.1h-.3v.4h.3zm0 190.1h-.3v.3h.3zm0-38h-.3v.3h.3zm0-38h-.3v.3h.3zm0 152h-.3v.3h.3zm0-190h-.3v.3h.3zm0 228h-.3v.4h.3zm-248.4 38.4h-.4v21.8h.4zm0-38h-.4v37.7h.4zm0-38.1h-.4V756h.4zm0-38h-.4V718h.4zm0-38h-.4V680h.4zm0-38h-.4V642h.4zm0-38h-.4V604h.4zm0-38h-.4V566h.4zm0-38h-.4V528h.4zm0-38h-.4V490h.4zm0-33.7h-.4v33.3h.4zm0-38h-.4v37.7h.4zm0-38h-.4v37.7h.4zm0-38h-.4v37.7h.4zm0-38h-.4v37.7h.4zm0-38h-.4v37.7h.4zm0-38h-.4v37.7h.4zm0-38h-.4v37.7h.4zm0-38.1h-.4v37.7h.4zm0-38h-.4v37.7h.4zm0-38h-.4v37.7h.4zm0-38h-.4v37.7h.4zm0-19.5h-.4V.2h.4z"/><path fill="#3b82c9" d="M887.1 38.2h-.4v.3h.4zm0 190h-.4v.4h.4zm0-228h-.4v.3h.4zm0 190h-.4v.4h.4zm0-38h-.4v.4h.4zm0-38h-.4v.3h.4zm0 228.1h-.4v.3h.4zm0 76h-.4v.3h.4zm0-152.1h-.4v.4h.4zm0-190h-.4v.3h.4zm0 228.1h-.4v.3h.4zm0 76h-.4v.3h.4zm0 109.6h-.4v.4h.4zm0 190.1h-.4v.3h.4zm0-228.1h-.4v.4h.4zm0 190.1h-.4v.3h.4zm0-38h-.4v.3h.4zm0-38h-.4v.3h.4zm0 152h-.4v.3h.4zm0-190h-.4v.3h.4zm0 228h-.4v.4h.4zm82.8 38.4h-.4v21.8h.4zm0-38h-.4v37.7h.4zm0-38.1h-.4V756h.4zm0-38h-.4V718h.4zm0-38h-.4V680h.4zm0-38h-.4V642h.4zm0-38h-.4V604h.4zm0-38h-.4V566h.4zm0-38h-.4V528h.4zm0-38h-.4V490h.4zm0-33.7h-.4v33.3h.4zm0-38h-.4v37.7h.4zm0-38h-.4v37.7h.4zm0-38h-.4v37.7h.4zm0-38h-.4v37.7h.4zm0-38h-.4v37.7h.4zm0-38h-.4v37.7h.4zm0-38h-.4v37.7h.4zm0-38.1h-.4v37.7h.4zm0-38h-.4v37.7h.4zm0-38h-.4v37.7h.4zm0-38h-.4v37.7h.4zm0-19.5h-.4V.2h.4z"/><path fill="#3b82c9" d="M969.9 38.2h-.4v.3h.4zm0 190h-.4v.4h.4zm0-228h-.4v.3h.4zm0 190h-.4v.4h.4zm0-38h-.4v.4h.4zm0-38h-.4v.3h.4zm0 228.1h-.4v.3h.4zm0 76h-.4v.3h.4zm0-152.1h-.4v.4h.4zm0-190h-.4v.3h.4zm0 228.1h-.4v.3h.4zm0 76h-.4v.3h.4zm0 109.6h-.4v.4h.4zm0 190.1h-.4v.3h.4zm0-228.1h-.4v.4h.4zm0 190.1h-.4v.3h.4zm0-38h-.4v.3h.4zm0-38h-.4v.3h.4zm0 152h-.4v.3h.4zm0-190h-.4v.3h.4zm0 228h-.4v.4h.4zm-248.4 38.4h-.4v21.8h.4zm0-38h-.4v37.7h.4zm0-38.1h-.4V756h.4zm0-38h-.4V718h.4zm0-38h-.4V680h.4zm0-38h-.4V642h.4zm0-38h-.4V604h.4zm0-38h-.4V566h.4zm0-38h-.4V528h.4zm0-38h-.4V490h.4zm0-33.7h-.4v33.3h.4zm0-38h-.4v37.7h.4zm0-38h-.4v37.7h.4zm0-38h-.4v37.7h.4zm0-38h-.4v37.7h.4zm0-38h-.4v37.7h.4zm0-38h-.4v37.7h.4zm0-38h-.4v37.7h.4zm0-38.1h-.4v37.7h.4zm0-38h-.4v37.7h.4zm0-38h-.4v37.7h.4zm0-38h-.4v37.7h.4zm0-19.5h-.4V.2h.4z"/><path fill="#3b82c9" d="M721.5 38.2h-.4v.3h.4zm0 190h-.4v.4h.4zm0-228h-.4v.3h.4zm0 190h-.4v.4h.4zm0-38h-.4v.4h.4zm0-38h-.4v.3h.4zm0 228.1h-.4v.3h.4zm0 76h-.4v.3h.4zm0-152.1h-.4v.4h.4zm0-190h-.4v.3h.4zm0 228.1h-.4v.3h.4zm0 76h-.4v.3h.4zm0 109.6h-.4v.4h.4zm0 190.1h-.4v.3h.4zm0-228.1h-.4v.4h.4zm0 190.1h-.4v.3h.4zm0-38h-.4v.3h.4zm0-38h-.4v.3h.4zm0 152h-.4v.3h.4zm0-190h-.4v.3h.4zm0 228h-.4v.4h.4zm455.4 38.4h-.4v21.8h.4zm0-38h-.4v37.7h.4zm0-38.1h-.4V756h.4zm0-38h-.4V718h.4zm0-38h-.4V680h.4zm0-38h-.4V642h.4zm0-38h-.4V604h.4zm0-38h-.4V566h.4zm0-38h-.4V528h.4zm0-38h-.4V490h.4zm0-33.7h-.4v33.3h.4zm0-38h-.4v37.7h.4zm0-38h-.4v37.7h.4zm0-38h-.4v37.7h.4zm0-38h-.4v37.7h.4zm0-38h-.4v37.7h.4zm0-38h-.4v37.7h.4zm0-38h-.4v37.7h.4zm0-38.1h-.4v37.7h.4zm0-38h-.4v37.7h.4zm0-38h-.4v37.7h.4zm0-38h-.4v37.7h.4zm0-19.5h-.4V.2h.4z"/><path fill="#3b82c9" d="M1176.9 38.2h-.3v.3h.3zm0 190h-.3v.4h.3zm0-228h-.3v.3h.3zm0 190h-.3v.4h.3zm0-38h-.3v.4h.3zm0-38h-.3v.3h.3zm0 228.1h-.3v.3h.3zm0 76h-.3v.3h.3zm0-152.1h-.3v.4h.3zm0-190h-.3v.3h.3zm0 228.1h-.3v.3h.3zm0 76h-.3v.3h.3zm0 109.6h-.3v.4h.3zm0 190.1h-.3v.3h.3zm0-228.1h-.3v.4h.3zm0 190.1h-.3v.3h.3zm0-38h-.3v.3h.3zm0-38h-.3v.3h.3zm0 152h-.3v.3h.3zm0-190h-.3v.3h.3zm0 228h-.3v.4h.3zm-248.4 38.4h-.4v21.8h.4zm0-38h-.4v37.7h.4zm0-38.1h-.4V756h.4zm0-38h-.4V718h.4zm0-38h-.4V680h.4zm0-38h-.4V642h.4zm0-38h-.4V604h.4zm0-38h-.4V566h.4zm0-38h-.4V528h.4zm0-38h-.4V490h.4zm0-33.7h-.4v33.3h.4zm0-38h-.4v37.7h.4zm0-38h-.4v37.7h.4zm0-38h-.4v37.7h.4zm0-38h-.4v37.7h.4zm0-38h-.4v37.7h.4zm0-38h-.4v37.7h.4zm0-38h-.4v37.7h.4zm0-38.1h-.4v37.7h.4zm0-38h-.4v37.7h.4zm0-38h-.4v37.7h.4zm0-38h-.4v37.7h.4zm0-19.5h-.4V.2h.4z"/><path fill="#3b82c9" d="M928.5 38.2h-.4v.3h.4zm0 190h-.4v.4h.4zm0-228h-.4v.3h.4zm0 190h-.4v.4h.4zm0-38h-.4v.4h.4zm0-38h-.4v.3h.4zm0 228.1h-.4v.3h.4zm0 76h-.4v.3h.4zm0-152.1h-.4v.4h.4zm0-190h-.4v.3h.4zm0 228.1h-.4v.3h.4zm0 76h-.4v.3h.4zm0 109.6h-.4v.4h.4zm0 190.1h-.4v.3h.4zm0-228.1h-.4v.4h.4zm0 190.1h-.4v.3h.4zm0-38h-.4v.3h.4zm0-38h-.4v.3h.4zm0 152h-.4v.3h.4zm0-190h-.4v.3h.4zm0 228h-.4v.4h.4z"/></g></g><g role="graphics-object" aria-labelledby="acc-t-41" tabindex="0"><title id="acc-t-41">Piper Logo</title><g transform="translate(-3.9 4.2)"><path fill="#f7323f" d="M32.8 15.3h21.4v21.4H32.8Z"/><path fill="#fee300" d="M56.5 15.3h21.4v21.4H56.5Z"/><path fill="#72d54a" d="M80.2 15.3h21.4v21.4H80.2Z"/><path fill="#00a1df" d="M104 15.3h21.4v21.4H104Z"/><path fill="#ef4136" d="M127.7 15.3h21.4v21.4h-21.4z"/><path fill="#fff" d="M45.8 22.1c-.8-.6-1.7-.9-2.9-.9h-2.4v10.5h2.4v-3.9c1.3 0 2.3-.4 2.9-.9.8-.6 1.2-1.5 1.2-2.5q0-1.5-1.2-2.4zm-1.2 2.4c0 .4-.1.6-.4.8-.2.1-.6.3-1.3.3v-2.2c1 0 1.3.2 1.4.3.2.2.4.4.4.7zM66 21.3h2.4v10.5H66Zm27.3.8c-.8-.6-1.7-.9-2.9-.9H88v10.5h2.4v-3.9c1.3 0 2.3-.4 3-.9.8-.6 1.2-1.5 1.2-2.5q0-1.5-1.2-2.4zM92 24.5c0 .4-.1.6-.4.8-.2.1-.6.3-1.3.3v-2.2c1 0 1.3.2 1.4.3.2.2.4.4.4.7zm19.7 7.3h6.3v-2.4h-3.9v-2.1h3.9v-2.4h-3.9v-1.3h3.9v-2.3h-6.3zm27.9-4.3c.6-.2 1.1-.6 1.5-1 .5-.6.8-1.3.8-2q0-1.5-1.2-2.4c-.7-.6-1.7-.9-2.8-.9h-2.6v10.5h2.4v-3.1l2.1 3.1h2.8l-2.9-4.3zm-.2-2.9c0 .3 0 1-1.8 1.1v-2.2c.3 0 .6 0 1 .1.2 0 .4.2.6.3.1.2.2.4.2.6z"/></g></g><text x="24.3682" y="96.9" fill="#fff" font-family="Montserrat-ExtraBold, Montserrat" font-size="54.6" font-weight="700"><tspan x="24.3682" y="96.9">Mission:</tspan></text><text x="26.392" y="128.8" fill="#fff" font-family="Montserrat-Regular, Montserrat" font-size="22"><tspan x="26.392" y="128.8">Piper Make</tspan><tspan x="26.392" y="155.2">Base Station</tspan></text><text x="28.305" y="218.8" fill="#fff" font-family="Montserrat-Black, Montserrat" font-size="17.5" font-weight="800"><tspan x="28.305" y="218.8">Components Sheet</tspan></text><text x="29.2525" y="242.6" fill="#fff" font-family="Montserrat-Regular, Montserrat" font-size="14.1"><tspan x="29.2525" y="242.6">Gather and organize</tspan><tspan x="29.2525" y="263.5">your supplies</tspan></text><path fill="#005cb9" fill-rule="evenodd" stroke="#fff" stroke-linecap="round" stroke-linejoin="round" d="M1195.9 765.8H40.1c-5.9 0-10.7-4.8-10.7-10.7v-410c0-5.4 4.4-9.8 9.8-9.8h243.9c5.4 0 9.8-4.4 9.8-9.8V29.8c0-5.4 4.4-9.8 9.8-9.8H1196c5.9 0 10.7 4.8 10.7 10.7V755c0 5.9-4.8 10.7-10.7 10.7z"/><g role="graphics-object" aria-labelledby="acc-t-50 acc-d-50" tabindex="0"><desc id="acc-d-50">The outline of a rectangular wooden panel. The piece is taller than it is wide, featuring two distinct T-shaped tabs protruding from the top corners and two similar tabs at the bottom corners. At the top center, there is a wide, shallow U-shaped dip in the edge, and directly below that dip is a horizontal, pill-shaped cutout serving as a handle or slot. The vertical sides of the piece have a slight inward taper starting near the top.</desc><title id="acc-t-50">Back (1) - Wood</title><path fill="none" stroke="#fff" stroke-linecap="round" stroke-linejoin="round" stroke-width="2" d="M342.1 150.7c-.7 2.5-1.1 5.1-1.1 7.7v113.7h-11.3c-1.6 0-2.8 1.3-2.8 2.8v14.2c0 1.6 1.3 2.8 2.8 2.8h186.7c1.6 0 2.8-1.3 2.8-2.8v-14.2c0-1.6-1.3-2.8-2.8-2.8h-11.3V164.5c0-2.6-.4-5.2-1.1-7.7s-1.1-5.1-1.1-7.7V68.7h16.3c1.6 0 2.8-1.3 2.8-2.8V54c0-1.6-1.3-2.8-2.8-2.8h-64.7c-4.5 0-8.7 2.1-11.3 5.7-2.7 3.6-6.9 5.7-11.3 5.7h-17.6c-4.5 0-8.7-2.1-11.3-5.7-2.7-3.6-6.9-5.7-11.3-5.7H327c-1.6 0-2.8 1.3-2.8 2.8v11.9c0 1.6 1.3 2.8 2.8 2.8h16.3V143c0 2.6-.4 5.2-1.1 7.7z"/><path fill="none" stroke="#fff" stroke-linecap="round" stroke-linejoin="round" stroke-width="2" d="M389 73.8h68c2.3 0 4.4.9 6 2.5s2.5 3.8 2.5 6V88c0 2.3-.9 4.4-2.5 6s-3.8 2.5-6 2.5h-68c-4.7 0-8.5-3.8-8.5-8.5v-5.7c0-4.7 3.8-8.5 8.5-8.5"/><text x="395.9" y="321.8" fill="#fff" font-family="Montserrat-Regular, Montserrat" font-size="14"><tspan x="395.9" y="321.8">Back x 1</tspan></text></g><g role="graphics-object" aria-labelledby="acc-t-53 acc-d-53" tabindex="0"><desc id="acc-d-53">A large, black rubber O-ring. It is a seamless, flexible loop made of smooth synthetic rubber. The overall diameter is approximately 2 inches, roughly the width of a standard credit card. Unlike a flat washer, the ring itself is cylindrical if cut in half; it feels like a thick, continuous noodle joined into a perfect circle.</desc><title id="acc-t-53">O-Ring (1) - Rubber</title><text x="575.5" y="190" fill="#fff" font-family="Montserrat-Regular, Montserrat" font-size="14"><tspan x="575.5" y="190">O-Ring x 1</tspan></text><ellipse cx="609.9" cy="116.8" fill="none" stroke="#000" stroke-linejoin="round" stroke-width="2" rx="44.7" ry="44.4"/></g><g role="graphics-object" aria-labelledby="acc-t-54 acc-d-54" tabindex="0"><desc id="acc-d-54">A wide, rectangular wooden panel with rounded corners. A plastic breadboard is mounted to this wood, with a small Raspberry Pi Pico microcontroller board plugged into one end of it. In the center of both the top and bottom long edges, there is a wide, square-shaped tab protruding outward.</desc><title id="acc-t-54">Lid with Breadboard (1) - Wood and Plastic</title><text x="1002.9" y="241.8" fill="#fff" font-family="Montserrat-Regular, Montserrat" font-size="14"><tspan x="1002.9" y="241.8">Lid with Breadboard x 1</tspan></text><path fill="none" stroke="#fff" stroke-linecap="round" stroke-linejoin="round" stroke-width="2" d="M712.7 205.6c0 4.7 4.5 10.3 9.9 10.3H904v15.6c0 1.6 1.3 2.8 2.8 2.8h79.4c1.6 0 2.8-1.3 2.8-2.8v-15.6h181.4c5.5 0 9.9-4.6 9.9-10.3V67.8c0-5.7-4.4-10.3-9.9-10.3H989V41.9c0-1.6-1.3-2.8-2.8-2.8h-79.4c-1.6 0-2.8 1.3-2.8 2.8v15.6H722.6c-5.5 0-9.9 4.6-9.9 10.3v137.9z"/><path fill="none" stroke="#fff" stroke-linecap="round" stroke-linejoin="round" stroke-width=".5" d="M895.7 123h18.4v18.4h-18.4zm20.8 0h18.4v18.4h-18.4zm20.9 0h18.4v18.4h-18.4zm20.8 0h18.4v18.4h-18.4zm20.9 0h18.4v18.4h-18.4z"/><path fill="none" stroke="#fff" stroke-linecap="round" stroke-linejoin="round" stroke-width=".5" d="M924.9 127.8h1.9v8.7h-1.9zm-20.7 2c.3 0 .7 0 1 .2.5.2.4.8.3 1-.3.4-1 .4-1.3.4zm0 6.7v-3.1c.6 0 1.4-.2 2.1-.6 1.4-.9 1.7-2.9.5-4-.7-.6-1.5-.8-2.4-.9h-2.2v8.7h2zm83.1-6.7c.5 0 1.4 0 1.4.8 0 .7-.8.8-1.4.8zm-2 6.8h2v-2.3l1.5 2.3h2.5l-2.2-3.5c1-.3 1.6-1.2 1.7-2.3 0-.8-.3-1.7-.9-2.3-.9-.7-1.9-.8-4.5-.7v8.8zm-20.2 0h5.2v-1.9h-3.2V133h3.2v-1.7h-3.2v-1.5h3.2v-2h-5.2zm-19.2-6.8c.3 0 .7 0 1 .2.5.2.4.8.3 1-.3.4-1 .4-1.3.4zm0 6.7v-3.1c.6 0 1.4-.2 2.1-.6 1.4-.9 1.7-2.9.5-4-.7-.6-1.5-.8-2.4-.9h-2.2v8.7h2zm-50.1 13.9v-6.3l3 4.6 3-4.6v6.3m6.3-1.9h-3.3m-1.2 1.9 2.8-6.2 2.8 6.2m5.6 0-2.6-2.9m-.7.1 3.4-3.5m-3.7 6.3v-6.2m10.2 6.2H917v-6.2h4.3m-3.8 2.8h3.2m14.6 3.4h-4.1v-6.3m13.1 6.3v-2.1l-2.5-4.1m2.7 3.7 2.3-3.8m7.8 6.3v-6.3m27.6 5.4c-.8.8-2 1.1-3.1.8-1.1-.2-2-1-2.3-2-.4-1.1-.1-2.5.8-3.4 1-.9 2.5-1.1 3.7-.6.3.1.6.4.9.6m2.9 5.1c-.9-.5-1.5-1.6-1.5-2.7s.5-2.2 1.4-2.7c1.2-.8 2.9-.6 4 .4s1.2 2.8.4 4.1c-.6 1-1.7 1.5-2.8 1.4-.5 0-1-.2-1.4-.4zm-60.1.4v-6.2h2c1.6 0 2.5.6 2.5 1.9 0 1.4-1.3 1.9-2.5 1.9h-1.5m15.5.5h-3.3m-1.2 1.9 2.8-6.2 2.8 6.2m6.3 0v-6.2h2c1.6 0 2.5.6 2.5 1.9 0 1.4-1.3 1.9-2.5 1.9h-1.5m7.9 2.4v-6.2h2c1.6 0 2.5.6 2.5 1.9s-1.3 1.9-2.5 1.9h-1.5m34 2.4v-6.3l3 4.6 3-4.6v6.3m-29.7 0h-4.4v-6.2h4.3m-3.9 2.8h3.2m5.2 1 1.5 2.4m-4.4 0v-6.2h2c1.6 0 2.5.7 2.5 1.8s-1.3 1.8-2.5 1.8h-1.5m-46.4 2.1c.1 0 .2.1.2.2s-.1.2-.2.2-.2-.1-.2-.2.1-.2.2-.2m52.5 0c.1 0 .2 0 .2.2s-.1.2-.2.2-.2-.1-.2-.2.1-.2.2-.2"/></g><g role="graphics-object" aria-labelledby="acc-t-58 acc-d-58" tabindex="0"><desc id="acc-d-58">A small, rectangular ultrasonic sensor module. The front features two prominent silver metal cylinders (the "eyes"). On the back of the circuit board, there is a white plastic "Grove" connector housing. This housing is a small, hollow rectangular box with four thin metal pins protected inside. One side of the plastic housing has two raised vertical ribs (the "key"), ensuring the cable can only be plugged in when oriented correctly.</desc><title id="acc-t-58">Ultrasonic Range Finder (1) - Electronic Module</title><text x="78.6" y="543.4" fill="#fff" font-family="Montserrat-Regular, Montserrat" font-size="14"><tspan x="78.6" y="543.4">Ultrasonic Range Finder x 1</tspan></text><rect width="198.7" height="136.1" x="72.2" y="374" fill="none" stroke="#fff" stroke-linecap="round" stroke-linejoin="round" stroke-width="2.9" rx="14.5" ry="14.5"/><path fill="#005cb9" stroke="#fff" stroke-linecap="round" stroke-linejoin="round" stroke-width=".3" d="m116.3 428.9 95.2-35.4v60.7l-94.8 34.5z"/><path fill="#005cb9" stroke="#fff" stroke-linecap="round" stroke-linejoin="round" stroke-width=".3" d="M119.7 430.5 215 395v60.8l-94.8 34.4z"/><path fill="#005cb9" stroke="#fff" stroke-linecap="round" stroke-linejoin="round" stroke-width=".3" d="m157.9 430.5 19-7.8 8.5 4.7-18.5 7.3z"/><path fill="#005cb9" stroke="#fff" stroke-linecap="round" stroke-linejoin="round" stroke-width=".3" d="M197.3 416.2c-.3-.2-.7-.3-1.1-.4-7.7-2.4-16.7 4.7-20.2 15.8s0 22.1 7.6 24.5l21.6 8.3 12.6-40.2-20.6-7.9z"/><ellipse cx="-360.6973" cy="334.8044" fill="#005cb9" stroke="#fff" stroke-linecap="round" stroke-linejoin="round" stroke-width=".3" rx="21.1" ry="14.6" transform="rotate(-72.6)"/><ellipse cx="-360.3032" cy="335.9266" fill="#fff" stroke="#fff" stroke-linecap="round" stroke-linejoin="round" stroke-width=".3" rx="14.6" ry="10.1" transform="rotate(-72.6)"/><path fill="#005cb9" stroke="#fff" stroke-linecap="round" stroke-linejoin="round" stroke-width=".3" d="M154.7 432.2c-.3-.2-.7-.3-1.1-.4-7.7-2.4-16.7 4.7-20.2 15.8s0 22.1 7.6 24.5l21.6 8.3 12.6-40.2-20.6-7.9z"/><ellipse cx="-388.7592" cy="298.781" fill="#005cb9" stroke="#fff" stroke-linecap="round" stroke-linejoin="round" stroke-width=".3" rx="21.1" ry="14.6" transform="rotate(-72.6)"/><ellipse cx="-388.3352" cy="299.9986" fill="#fff" stroke="#fff" stroke-linecap="round" stroke-linejoin="round" stroke-width=".3" rx="14.6" ry="10.1" transform="rotate(-72.6)"/><path fill="#005cb9" stroke="#fff" stroke-linecap="round" stroke-linejoin="round" stroke-width=".3" d="m211.5 393.5 3.5 1.5-95.3 35.5-3.4-1.6z"/><path fill="#005cb9" stroke="#fff" stroke-linecap="round" stroke-linejoin="round" stroke-width=".3" d="m157.8 411.4 19.1-7v18.3l-19 7.8zm19.1-7 8.5 3.9v19.1l-8.5-4.7z"/><path fill="#005cb9" stroke="#fff" stroke-linecap="round" stroke-linejoin="round" stroke-width=".3" d="m166.9 415.3 4.7-2v12.2l9.5-3.6V410l4.3-1.7v19.1l-18.5 7.3zm-9.1-3.9c3 1.3 6.1 2.6 9.1 3.9v19.4l-9.1-4.2zm-41.5 17.5 3.4 1.6.5 59.7-3.5-1.5z"/></g><g role="graphics-object" aria-labelledby="acc-t-68 acc-d-68" tabindex="0"><desc id="acc-d-68">A rectangular wooden piece. Each side of the piece has unique features: the left and right sides each have two large rectangular tabs with a small, T-shaped cutout (nut slot) centered between them. The bottom edge has two wide, square tabs. The top edge is flat. The overall shape is symmetrical horizontally.</desc><title id="acc-t-68">Front (1) - Wood</title><text x="418.3" y="543.4" fill="#fff" font-family="Montserrat-Regular, Montserrat" font-size="14"><tspan x="418.3" y="543.4">Front x 1</tspan></text><path fill="none" stroke="#fff" stroke-linecap="round" stroke-linejoin="round" stroke-width="2" d="M540.1 418.9c1.6 0 2.8-1.3 2.8-2.8v-22.7c0-1.6-1.3-2.8-2.8-2.8h-11.3v-14.2c0-1.6-1.3-2.8-2.8-2.8H367.6c-1.6 0-2.8 1.3-2.8 2.8v14.2h-11.3c-1.6 0-2.8 1.3-2.8 2.8v22.7c0 1.6 1.3 2.8 2.8 2.8h11.3v18.4h12c.4 0 .7-.3.7-.7v-3.3c0-.4.3-.7.7-.7h4.3c.4 0 .7.3.7.7v3.8c0 .4.3.7.7.7s.7.3.7.7v6.2c0 .4-.3.7-.7.7s-.7.3-.7.7v3.8c0 .4-.3.7-.7.7h-4.3c-.4 0-.7-.3-.7-.7v-3.3c0-.4-.3-.7-.7-.7h-12v12.8h-11.3c-1.6 0-2.8 1.3-2.8 2.8v25c0 1.6 1.3 2.8 2.8 2.8h11.3v.6c0 1.6 1.3 2.8 2.8 2.8h39.7v10.8c0 1.4 1.4 2.8 2.8 2.8H434c1.3 0 2.8-1.5 2.8-2.8v-10.8h19.8v10.8c0 1.3 1.5 2.8 2.8 2.8h23.9c1.3 0 2.8-1.5 2.8-2.8v-10.8h39.7c1.6 0 2.8-1.3 2.8-2.8v-.6h11.3c1.6 0 2.8-1.3 2.8-2.8v-25c0-1.6-1.3-2.8-2.8-2.8h-11.3v-12.8h-12c-.4 0-.7.3-.7.7v3.3c0 .4-.3.7-.7.7h-4.3c-.4 0-.7-.3-.7-.7v-3.8c0-.4-.3-.7-.7-.7s-.7-.3-.7-.7v-6.2c0-.4.3-.7.7-.7s.7-.3.7-.7v-3.8c0-.4.3-.7.7-.7h4.3c.4 0 .7.3.7.7v3.3c0 .4.3.7.7.7h12v-18.4h11.3z"/></g><g role="graphics-object" aria-labelledby="acc-t-70 acc-d-70" tabindex="0"><desc id="acc-d-70">A long, irregular side panel. There are two of these pieces that are mirrors of each other. The top edge features a deep, horizontal slot resembling a hook pointing toward the right. The left side is taller, with a rounded protrusion at the top and a keyhole-shaped cutout at the bottom corner. Two large rectangular windows are cut into the center. The smooth side of the wood contains the etched graphics (a robot and a mouse) and must face outward during assembly.</desc><title id="acc-t-70">Side (2) - Wood</title><text x="841.7" y="501.2" fill="#fff" font-family="Montserrat-Regular, Montserrat" font-size="14"><tspan x="841.7" y="501.2">Sides x 2</tspan></text><path fill="none" stroke="#fff" stroke-linecap="round" stroke-linejoin="round" stroke-width="2" d="M695.1 261.9c-4.7-4.7-10.9-7.6-17.5-8.1l-9.8-.9c-1.5-.1-2.9 1-3.1 2.5l-1.3 11.6-14.6-1.7 1.3-11.1c.2-1.6-1-3-2.6-3.1l-34.1-3c-5.9-.5-10.5 5-9 10.7l2.1 7.9c4.9 18.5 2.1 38.1-7.9 54.4-3.3 5.4.2 12.4 6.5 12.9l32.6 2.9c3.7.3 6 4 4.9 7.4l-51.2 153.6c-1.8 5.5 2.3 11.2 8.1 11.2h50.2c3.7 0 6.9-2.3 8.1-5.8l7.9-23.6c1.2-3.5 4.4-5.8 8.1-5.8h392.1c3.7 0 6.9 2.3 8.1 5.8l7.9 23.8c1.2 3.5 4.4 5.8 8.1 5.8h47.3c5.8 0 9.9-5.7 8.1-11.2l-7.3-21.8c-2.1-6.3-2.7-12.9-1.8-19.5l16.1-112.5c.7-5.2-2.2-10.2-7-12.1l-137.3-54.9c-5-2-10.4-3-15.8-3h-100c-3.8 0-6.9 3-7.1 6.8s2.7 7 6.5 7.4l48.2 4.2-1.3 14.7-138.3-12.1c-6.7-.6-12.7-4.6-16.2-10.3s-9.6-9.5-16.3-10.1l-54.9-4.8c-6.6-.6-12.8-3.5-17.5-8.1z"/><path fill="none" stroke="#fff" stroke-linecap="round" stroke-linejoin="round" stroke-width="2" d="m639.8 471.6-2.3 17.2-14.6-1.9 2.3-17.2c.2-1.4-.2-2.9-1-4-2.8-4-3-9.2-.5-13.4s7.2-6.5 12-5.8c4.8.6 8.8 4.1 10.1 8.7 1.3 4.7-.2 9.7-4 12.8-1.1.9-1.8 2.2-2 3.6m4.4-187.6-1.6 18.4c-.4 4.7-7.5 4.1-7.1-.6l1.6-18.4c.4-4.7 7.5-4.1 7.1.6m-6.3-19.4c0-7-10.5-7-10.5 0s10.5 7 10.5 0m-4.9 55.1c0-7-10.5-7-10.5 0s10.5 7 10.5 0m490.1898 57.6065 3.9875-28.0176 14.5534 2.0712-3.9875 28.0177zM694.2 459.7c0-5.7-8.5-5.7-8.5 0s8.5 5.7 8.5 0m268.9 0c0-5.7-8.5-5.7-8.5 0s8.5 5.7 8.5 0m150.0716-12.8646 4.3116-30.2947 14.5534 2.0713-4.3116 30.2947zM736.4 452.6h28.3v14.7h-28.3zm99.2 0h28.3v14.7h-28.3zm204.1 0h28.3v14.7h-28.3zm92.1-51.5c0-5.7-8.5-5.7-8.5 0s8.5 5.7 8.5 0"/><path fill="none" stroke="#fff" stroke-linecap="round" stroke-linejoin="round" stroke-width=".5" d="m924.5 408.5-2.6-36.5-35.3-7.7 2.3 37.7zM896.4 375l1.1 18.6 18.7 3.7-1.4-18.2-18.5-4.1zm.8 11.8 5.1.9-1-11.6m14.5 14.7-4.9-.9-1-11.8m14.6 30.4-7.8 3.9m17.9 17.6-13.7-15.8M899.8 425l-.3-10.7m-4.7 10.2 18.8 2.2-.4-10.2-18.7-2.8.2 10.8zm-9.6-17.8 35.6 6.5.7 16.6m-35.9.1-.3-23.2-5.6 3.6m3.7 10.6-4.7 9.2m-32.1-.6 13.5-26.1m4.4 14.9-6.3 11.7m1.9-26.6 18.1 3 5.1 14.4-18.8-2.6-4.4-14.9zm14.7 5.8 2.3 6.5-8.6-1.2-2.1-6.5zm9.3-15.1-3.3 2.6.2 5.1 3.2-2.6-.2-5.1zm-7.5-11.2-3.3 2.6.9 14.7 3.3-2.8-.9-14.4zm4.9-14.4.9 14.4-3.3 2.8-.9-14.6m-5.9 34.3-1.7-28 16.1-13m2.2 37.6-9.9 6.3m41.8-4.3-2-28.9-28-6.1 1.8 29.5zm53.4-36.4 100.2 8.7c4.1.4 7.2 3.8 7.2 7.9v37.7c0 4.4-3.5 7.9-7.9 7.9H973.5c-4.4 0-7.9-3.5-7.9-7.9v-46.4c0-4.6 4-8.3 8.6-7.9"/><path fill="none" stroke="#fff" stroke-linecap="round" stroke-linejoin="round" stroke-width=".5" d="M934.6 430H813.7c-4.9 0-9-4-9-9v-57.9c0-5.2 4.5-9.4 9.7-8.9l120.9 10.3c4.6.4 8.2 4.3 8.2 8.9V421c0 4.9-4 9-9 9zm45.4-17.5-6.6-1.2-2.7-5.7 2.6-4.9 6.2-1.9 4.7 2.3 2.1 4.2m3.8-1.3-1.7-4.5 2.6-4.2 5.7-1.5 4.4 2.2 1.8 4.5-2.5 4.6m-12.6 11.3-1.7-.6-2-4.9.8-1.8 3.7-1.7 2.6.8 1.7 4.9-.3 1.1m.8 4 3.9-1.6 1.3.7.3 4.1-2.4 1-3.1-2.5z"/><path fill="none" stroke="#fff" stroke-linecap="round" stroke-linejoin="round" stroke-width=".5" d="m984.6 406.1-4 4.7-.6 1.7.4 7.1 2.1 3.7 5.2 2 6 .7 6.7-1.1 2.2-1.7 2.7-2.5.2-4.7-4.3-5.6-.8-5.3-1-.9-2.9-.8-4.6.4-1.8.2-3.8 1.3zm-4.2 13.5 2.1 10.1"/><path fill="none" stroke="#fff" stroke-linecap="round" stroke-linejoin="round" stroke-width=".5" d="m997.6 421.9.6 2-4.2-.3m4.2.3 3.6-2.5m2.3 8.3 2.7-5 .5-1.5-2.5-1.1-2.2 1.1.4 6.5m-18.3 0 2.8-2.6h5.4l4.9-.7 2 2 .8 1.3M661.5 307.6l27.7 2.4 13.6-11.6-11.4-13.7-27.7-2.4L675 296z"/><path fill="none" stroke="#fff" stroke-linecap="round" stroke-linejoin="round" stroke-width=".5" d="m698.6 311 27.8 2.4 13.5-11.6-11.4-13.8-27.7-2.4 11.3 13.8zm274.9 118.7v-18.4m0-10.7v-15.3c0-4.6 4-8.3 8.6-7.9l99.5 8.7m-159.5-13.5 21.4 1.8m-130.8 55.5v-57c0-5.2 4.4-9.4 9.7-8.9l58.5 5m113.6 44.9-.9-.8-.8-4.7 1.4-2 4.4-.4 1.5 1.2.5 5-.7 1.2"/><path fill="none" stroke="#fff" stroke-linecap="round" stroke-linejoin="round" stroke-width=".5" d="m985.3 419.8 1.9-3 1.9-1.1 3-1.4 4-.6 3.4-.3 2.1.1m-336.9-15.3H686v21.3h-21.3zm24.2 0h21.3v21.3h-21.3zm24.2 0h21.3v21.3h-21.3zm24.2 0h21.3v21.3h-21.3zm24.1 0h21.3v21.3h-21.3zm-96.6 31.7v-7.2l3.5 5.4 3.5-5.4v7.2m7.3-2.2h-3.8m-1.4 2.2 3.3-7.2 3.3 7.2m6.4 0-3.1-3.4m-.8.2 3.9-4m-4.2 7.2v-7.2m11.8 7.2h-5.1v-7.2h4.9m-4.4 3.4h3.7m17.1 3.8h-4.8v-7.2m15.2 7.2v-2.5l-2.9-4.7m3.1 4.4 2.7-4.4m9 7.2v-7.2m32.1 6.2c-.9 1-2.3 1.2-3.5 1s-2.3-1.2-2.7-2.4c-.4-1.3-.1-2.9.9-3.9 1.1-1 2.9-1.3 4.3-.7.4.2.7.4 1 .7m3.3 5.9c-1.1-.6-1.8-1.8-1.8-3.1s.6-2.5 1.6-3.2c1.4-.9 3.4-.8 4.6.4s1.4 3.3.5 4.7c-.7 1.1-2 1.7-3.3 1.6-.6 0-1.2-.2-1.7-.5zm-69.7.4v-7.2h2.4c1.9 0 2.9.6 2.9 2.2s-1.5 2.2-2.9 2.2h-1.7m17.8.6h-3.8m-1.4 2.2 3.3-7.2 3.3 7.2m7.2 0v-7.2h2.4c1.9 0 2.9.6 2.9 2.2s-1.5 2.2-2.9 2.2h-1.7m9.1 2.8v-7.2h2.4c1.9 0 2.9.6 2.9 2.2s-1.5 2.2-2.9 2.2h-1.7m39.3 2.8v-7.2l3.5 5.4 3.4-5.4v7.2m-34.4 0H743v-7.2h4.9m-4.4 3.4h3.7m6 1.1 1.8 2.7m-5.1 0v-7.2h2.4c1.9 0 2.9.8 2.9 2.1s-1.5 2.1-2.9 2.1h-1.7m-53.9 2.5c.2 0 .4.2.4.4s-.2.4-.4.4-.4-.2-.4-.4.2-.4.4-.4m60.9 0c.2 0 .4.2.4.4s-.2.4-.4.4-.4-.2-.4-.4.2-.4.4-.4m146.6-14.3.4 10.5m4.2-9.8.4 10.4m-6.1-31.5.2 4.4 8.2 1.5-.3-4.3"/><path fill="none" stroke="#fff" stroke-linecap="round" stroke-linejoin="round" stroke-width=".5" d="m996.1 413.7-.6-.5-.5-3.6.9-1.2 2.4-.3 1.3.9.4 3.6-.5.8m-10.4 2.3-1.2-.4-1.5-3.2.5-1.5 2.5-1 1.6.6 1.3 3.1-.2 1m-293.6-10.5h2.2v10.1h-2.2zm-23.9 2.3c.3 0 .8 0 1.1.2.6.3.5.9.3 1.1-.3.5-1.2.5-1.5.5v-1.8zm0 7.7v-3.6c.7 0 1.6-.2 2.5-.7 1.6-1 2-3.3.5-4.7-.8-.7-1.8-.9-2.8-1h-2.6v10zm96.4-7.7c.6 0 1.6 0 1.6.9 0 .8-1 .9-1.6.9V406Zm-2.3 7.8h2.3v-2.7l1.8 2.7h2.9l-2.6-4c1.1-.3 1.9-1.4 2-2.7.1-1-.3-2-1.1-2.6-1-.8-2.2-.9-5.2-.9v10.2zm-23.5 0h6v-2.2h-3.7v-1.9h3.7v-2h-3.7v-1.7h3.7v-2.4h-6zm-22.2-7.8c.3 0 .8 0 1.1.2.6.3.5.9.3 1.1-.3.5-1.2.5-1.5.5v-1.8zm0 7.8v-3.6c.7 0 1.6-.2 2.5-.7 1.6-1 2-3.3.5-4.7-.8-.7-1.8-.9-2.8-1h-2.6v10z"/></g><g role="graphics-object" aria-labelledby="acc-t-80 acc-d-80" tabindex="0"><desc id="acc-d-80">A small brass screw. The head is a "pan head" style—rounded on top with a flat underside. It features a Phillips-head drive (a cross-shaped indentation). The shaft is 1/2 inch long and fully threaded with #4-40 machine threading, which feels like 40 very fine, closely spaced ridges per inch. The end of the screw is flat rather than pointed.</desc><title id="acc-t-80">1/2-inch #4-40 Screw (8) - Brass Metal</title><text x="66" y="727.8" fill="#fff" font-family="Montserrat-Regular, Montserrat" font-size="14"><tspan x="66" y="727.8">#4-40 Screw x 8</tspan></text><rect width="105.1" height="105.1" x="69.2" y="591.7" fill="none" stroke="#fff" stroke-linecap="round" stroke-linejoin="round" stroke-width="2.9" rx="12.7" ry="12.7"/><path fill="none" stroke="#fff" stroke-linecap="round" stroke-linejoin="round" stroke-width=".1" d="m104.1 638.3 1.9-.1m.3 2-2.2-.1m1.9-1.8-1.9.1m0 .8h1.7m-1.7.9 2.1.1m-.4-.9h-1.7m.8-2 1.7.2m.3-.4-1.5-.1m1.4 3.8-1.8.1m.5.4 1.6-.2m-1.7-4.2 1.5.2m.2 4.1-1.6.1m3.1 4 .5-.1.8-.7.6-1.1m0 0 .5-1.6.3-1.7v-1.8l-.3-1.8-.5-1.5-.6-1.2-.8-.7-.6-.2m-.9 12.4.5-.1.7-.7.7-1.1" style="stroke-width:.4;stroke-dasharray:none"/><path fill="none" stroke="#fff" stroke-linecap="round" stroke-linejoin="round" stroke-width=".1" d="m109.5 643.4.5-1.6.2-1.7v-1.8l-.2-1.8-.5-1.5-.7-1.2-.7-.7-.7-.1m32.2 6.7v-1.5l-.2-.7-.3-.6-.4-.3-.2-.1" style="stroke-width:.4;stroke-dasharray:none"/><path fill="none" stroke="#fff" stroke-linecap="round" stroke-linejoin="round" stroke-width=".1" d="m139.6 639.7.1-.9-.1-.9-.3-.7-.2-.3m-.2.3.1.2.1.4v1.8m-1.5 1.5h-.2m-13 .2h-.2m-1.3 0h-.2m-18.1-4.2h-.5m.6 4.3-.5.1m17.2-.2h-.2m-1.3 0h-.1m-1.3 0h-.2m-1.3 0h-.1m-1.3 0h-.2" style="stroke-width:.4;stroke-dasharray:none"/><path fill="none" stroke="#fff" stroke-linecap="round" stroke-linejoin="round" stroke-width=".1" d="M139.1 640.9h.1l.1-.1.1-.2v-.2l.1-.1.1-.2v-.4" style="stroke-width:.4;stroke-dasharray:none"/><path fill="none" stroke="#fff" stroke-linecap="round" stroke-linejoin="round" stroke-width=".1" d="m138.9 637.1.2.2.3.7.2.8v.9m-25.5 1.6h-.1m-1.3 0h-.2m0 0 .3-.2.2-.5.2-.7v-.9l-.2-.8-.2-.4m1.2 3.5.3-.2.2-.5.2-.7-.1-.9-.1-.8-.2-.4m1.2 3.5.2-.2.3-.5.1-.7v-.9l-.2-.8-.2-.4m1.3 3.5.2-.2.3-.5.1-.7-.1-.9-.1-.8-.2-.5m1.2 3.6.3-.2.2-.5.1-.7v-.9l-.2-.8-.2-.5m1.3 3.6.3-.2.2-.5.1-.7-.1-.9-.1-.8-.2-.5m1.2 3.6h.1l.3-.2.2-.5.1-.7-.1-.9-.1-.9-.2-.4m1.2 3.6.3-.2.3-.5V639l-.2-.9-.2-.4m1.3 3.6.3-.2.2-.5.1-.7v-.9l-.2-.9-.2-.4m13 3.4v.1l.4-.3.2-.5v-1.6l-.2-.8-.2-.4" style="stroke-width:.4;stroke-dasharray:none"/><path fill="none" stroke="#fff" stroke-linecap="round" stroke-linejoin="round" stroke-width=".1" d="m139.1 639.6-.1 1-.3.7-.3.5-.5.1-.3-.2-.2-.3m1.7-1.8v-.8l-.2-1.2-.5-1-.5-.6-.6-.2-.6.2m-.9 5.3.4.6.5.2.4-.3.3-.7m0 0 .2-1v-1.3l-.2-1.2-.4-1-.6-.6-.6-.2-.6.2m-12.6 5.5.3.5.5.2.5-.2.3-.7m0 0 .2-1.1V639l-.3-1.2-.4-1.1-.6-.6-.6-.2-.6.3" style="stroke-width:.4;stroke-dasharray:none"/><path fill="none" stroke="#fff" stroke-linecap="round" stroke-linejoin="round" stroke-width=".1" d="m121.1 641.5.3.5.5.2.5-.2.3-.7m0 0 .2-1.1V639l-.2-1.2-.4-1-.6-.7-.6-.2-.7.3" style="stroke-width:.4;stroke-dasharray:none"/><path fill="none" stroke="#fff" stroke-linecap="round" stroke-linejoin="round" stroke-width=".1" d="m119.7 641.5.3.5.4.3.5-.3.3-.7m0 0 .2-1.1V639l-.2-1.2-.4-1-.6-.7-.6-.2-.6.3m-.8 5.3.3.6.4.2.5-.3.4-.7" style="stroke-width:.4;stroke-dasharray:none"/><path fill="none" stroke="#fff" stroke-linecap="round" stroke-linejoin="round" stroke-width=".1" d="m119.8 641.3.2-1.1V639l-.2-1.2-.4-1-.7-.7-.5-.2-.7.3m-.8 5.3.4.6.4.2.5-.3.3-.7" style="stroke-width:.4;stroke-dasharray:none"/><path fill="none" stroke="#fff" stroke-linecap="round" stroke-linejoin="round" stroke-width=".1" d="m118.3 641.3.2-1.1V639l-.2-1.2-.4-1-.6-.6-.6-.3-.6.3m-.9 5.3.4.6.4.2.5-.3.4-.7" style="stroke-width:.4;stroke-dasharray:none"/><path fill="none" stroke="#fff" stroke-linecap="round" stroke-linejoin="round" stroke-width=".1" d="m116.9 641.3.2-1.1-.1-1.2-.2-1.2-.4-1-.6-.6-.6-.2-.6.2m-.8 5.3.3.6.5.2.4-.3.4-.7" style="stroke-width:.4;stroke-dasharray:none"/><path fill="none" stroke="#fff" stroke-linecap="round" stroke-linejoin="round" stroke-width=".1" d="m115.4 641.3.2-1.1V639l-.2-1.2-.4-1-.6-.6-.6-.2-.7.2m-.8 5.3.4.6.4.2.5-.3.4-.7" style="stroke-width:.4;stroke-dasharray:none"/><path fill="none" stroke="#fff" stroke-linecap="round" stroke-linejoin="round" stroke-width=".1" d="m114 641.3.1-1.1V639l-.2-1.2-.4-1-.6-.6-.6-.2-.6.2m-.1 6.1h.1l.4-.3.4-.7" style="stroke-width:.4;stroke-dasharray:none"/><path fill="none" stroke="#fff" stroke-linecap="round" stroke-linejoin="round" stroke-width=".1" d="m112.5 641.3.2-1.1V639l-.2-1.2-.5-1-.5-.6-.7-.2" style="stroke-width:.4;stroke-dasharray:none"/><path fill="none" stroke="#fff" stroke-linecap="round" stroke-linejoin="round" stroke-width=".1" d="m112.7 641.3.1-1.1V639l-.2-1.2-.4-1-.6-.6-.6-.2m.8 6.3.5-.3.4-.7m1.4 0 .2-1.1V639l-.2-1.2-.4-1-.6-.6-.6-.2m.8 6.3.5-.3.3-.7m1.5 0 .2-1.1-.1-1.2-.2-1.2-.4-1-.6-.6-.5-.2m.7 6.3.5-.3.4-.7m1.4 0 .2-1.1V639l-.2-1.2-.4-1-.6-.6-.5-.2m.7 6.3.5-.3.3-.7m1.5 0 .2-1.1V639l-.3-1.2-.3-1-.6-.6-.6-.2m.8 6.3.5-.3.3-.7m1.4 0 .3-1.1V639l-.3-1.2-.4-1-.6-.7-.5-.1m.8 6.2v.1l.4-.3.3-.7m1.5 0 .3-1.1V639l-.3-1.2-.4-1-.6-.7-.6-.2m.8 6.3.1.1.4-.3.3-.7m1.5 0 .2-1.1V639l-.2-1.2-.5-1-.5-.7-.6-.2m.8 6.3.5-.2.3-.7m1.5 0 .2-1.1V639l-.2-1.2-.5-1.1-.5-.6-.6-.2m.7 6.3h.1l.4-.2.4-.7m13.2-.2.3-1-.1-1.3-.2-1.2-.5-1-.5-.6-.6-.2m.8 6.3.5-.3.3-.7m1.3-3.9-.3-.6-.5-.6-.6-.2m1.6 5.1.1-.1.2-.6v-.7l-.1-.8-.2-.9-.2-.6" style="stroke-width:.4;stroke-dasharray:none"/><path fill="none" stroke="#fff" stroke-linecap="round" stroke-linejoin="round" stroke-width=".1" d="m112.8 640.8.1-.2.1-.7v-.9l-.2-.8v-.1m1.5 2.7v-.2l.2-.7v-.9l-.2-.8-.1-.1m1.5 2.7.1-.2.2-.7-.1-.9-.2-.8v-.1m1.5 2.7.1-.2.1-.7v-.9l-.2-.8v-.1m1.5 2.7v-.2l.2-.7-.1-.9-.1-.8-.1-.1m1.6 2.7v-.2l.1-.7v-.9l-.2-.8v-.1m1.6 2.7v-.2l.1-.7-.1-.9-.1-.8-.1-.1m1.6 2.7v-.2l.2-.7-.1-.9-.1-.9h-.1m1.6 2.6v-.1l.1-.7v-.9l-.2-.9v0m13.3 2.5.1-.1.1-.8-.1-.9-.1-.8h-.1m-30.2 7.3h.1m-1.6-5.4-.1-.2v0-.2 0-.1l-.1-.1v-.1m.2.7.1.1m1.2 1.3-.2-.2-.2-.2-.1-.1-.2-.2-.1-.1-.1-.2-.2-.1-.1-.2" style="stroke-width:.4;stroke-dasharray:none"/><path fill="none" stroke="#fff" stroke-linecap="round" stroke-linejoin="round" stroke-width=".1" d="m106.7 642.5.1-.2.1-.1.1-.1v-.2l.1-.1v-.2l.1-.1.1-.2m-1.8 0 .1.2.2.1.1.2.2.1.1.1.2.2.2.1.1.2m-1.7-1.6.1.1v.1h.2l.1.1v0l.1.1m-.5-.4h-.1v.1m-.2.3h.1v-.2h.1v-.1m-.2 1.6v-.3l-.1-.1v-.7l.1-.2m-.5.2v.1l.1.2.1.2v.1l.1.2.1.1v.1l.1.1m-.6-2.5v1.2l.1.2m-.1-2.2v.8m0-.8v-.1 0m0-.8v.8m0-.8v-.1m0-1.2v.3l-.1.1v.5l.1.1v.2m.5-2.4-.1.1-.1.1v.1l-.1.2v.2l-.1.1-.1.2v.2m.5-.1v-1.1m0 1.1v.1m.3.2h-.1l-.1-.1-.1-.1v0m.3.2v.1zm.5-.3v.1h-.2l-.1.1v.1h-.2m.5-.3v-.1m1.2-1.2-.2.2-.1.1-.2.2-.1.1-.1.2-.2.1-.1.2-.2.1m1.7-.1v-.3l-.1-.1-.1-.2-.1-.2v-.1l-.1-.1-.1-.1" style="stroke-width:.4;stroke-dasharray:none"/><path fill="none" stroke="#fff" stroke-linecap="round" stroke-linejoin="round" stroke-width=".1" d="m106 638.1.1-.1.2-.2.1-.2.2-.1.1-.2.1-.1.2-.2.1-.2m-1.1 1.3v.1m-.2.8v-.2l.1-.1v0-.2 0l.1-.2v-.1m-.2.8v.2m-.5 4.7.4.5.8.6.8-.1.8-.6.7-1.1" style="stroke-width:.4;stroke-dasharray:none"/><path fill="none" stroke="#fff" stroke-linecap="round" stroke-linejoin="round" stroke-width=".1" d="m108.8 643.2.4-1.6.2-1.7V638l-.3-1.7-.5-1.5-.7-1-.8-.5-.8.1-.8.6-.3.4m33.9 2.5-.2-.2m-.4 4.9.6-.7m-1.4-5.1h-.6m-32.2 1.6 1.7.1m.2 3.3-1.8.1m34.2-3-.1-.3-.1-.3m-26.2.8-.2-.3-.1-.3m1.8.6-.2-.3-.1-.3m1.7.6-.1-.3-.1-.3m1.7.6-.2-.3-.1-.3m1.7.6-.1-.3-.1-.3m1.7.6-.2-.3v-.3m1.7.6-.2-.3-.1-.4m1.7.7-.1-.3-.1-.4m1.7.7-.1-.3-.2-.4m13.5.6-.1-.4-.1-.3m-24.9 4.2.1-.4.1-.3m1.2.7.2-.4.1-.3m1.2.7.2-.4v-.3m1.3.7.1-.4.1-.3m1.2.6.2-.3.1-.3m1.2.6.1-.3.2-.3m1.2.6.1-.3.2-.3m1.2.6.1-.3.1-.3m1.2.6.1-.3.2-.3m13 .5.1-.4.1-.3m-26.7 2.5.3-.8.3-1.5.1-1.7v-.6m0 0-.1-1.1-.4-1.5-.5-1.4-.9-1-.8-.4-.7-.1m.2 12.3.8-.2.8-.5.6-.9.2-.4m-3.5 2h1.1m-.1-12.4-1.1.1" style="stroke-width:.4;stroke-dasharray:none"/><path fill="none" stroke="#fff" stroke-linecap="round" stroke-linejoin="round" stroke-width=".1" d="M107.4 633h-.4l-.9.4-.7.7-.6 1.1-.1.2m.7 8.6.2.4.8.7.9.2h.3" style="stroke-width:.4;stroke-dasharray:none"/><path fill="none" stroke="#fff" stroke-linecap="round" stroke-linejoin="round" stroke-width=".1" d="m105.2 634.4-.6 1.1-.5 1.2-.2 1.2v2.5l.3 1.2.4 1.2.7 1.1m28-2.7h-.1m-1.3 0h-.2m-1.3 0h-.2m-1.3 0h-.1m-1.3 0h-.2m-1.3 0h-.2m-1.4.1.3-.2.3-.5.1-.7v-.9l-.2-.9-.3-.4m1.3 3.6.3-.2.2-.5.2-.7-.1-.9-.2-.9-.2-.5m1.2 3.7h.1l.3-.2.2-.5.1-.8v-.8l-.2-.9-.2-.5m1.2 3.7.3-.2.2-.5.2-.8-.1-.8-.1-.9-.2-.5m1.2 3.7.3-.2.2-.5.2-.8-.1-.8-.1-.9-.3-.5m1.3 3.7.2-.2.3-.5.1-.8v-.9l-.2-.8-.2-.5m1.3 3.7.2-.2.2-.5.2-.8-.1-.9-.1-.8-.2-.5m-2 3.8.4.6.4.2.5-.3.4-.7" style="stroke-width:.4;stroke-dasharray:none"/><path fill="none" stroke="#fff" stroke-linecap="round" stroke-linejoin="round" stroke-width=".1" d="m133.2 641.2.1-1.1v-1.2l-.2-1.2-.4-1-.6-.7-.6-.1-.6.2m-.9 5.3.4.6.5.2.4-.3.4-.7" style="stroke-width:.4;stroke-dasharray:none"/><path fill="none" stroke="#fff" stroke-linecap="round" stroke-linejoin="round" stroke-width=".1" d="m131.7 641.2.2-1.1v-1.2l-.2-1.2-.4-1-.6-.7-.7-.1-.6.2m-.8 5.3.4.6.4.2.4-.3.4-.7" style="stroke-width:.4;stroke-dasharray:none"/><path fill="none" stroke="#fff" stroke-linecap="round" stroke-linejoin="round" stroke-width=".1" d="m130.2 641.2.2-1v-1.3l-.2-1.1-.4-1.1-.6-.7-.6-.1-.6.2m-.9 5.3.4.6.4.2.5-.3.4-.7" style="stroke-width:.4;stroke-dasharray:none"/><path fill="none" stroke="#fff" stroke-linecap="round" stroke-linejoin="round" stroke-width=".1" d="m128.8 641.2.2-1v-1.3l-.2-1.1-.5-1.1-.6-.7-.6-.1-.6.3m-.9 5.2.5.6.4.2.4-.3.4-.7" style="stroke-width:.4;stroke-dasharray:none"/><path fill="none" stroke="#fff" stroke-linecap="round" stroke-linejoin="round" stroke-width=".1" d="m127.3 641.2.2-1v-1.3l-.2-1.1-.5-1.1-.5-.6-.7-.2-.5.3m-.9 5.2.4.6.4.2.5-.3.3-.7" style="stroke-width:.4;stroke-dasharray:none"/><path fill="none" stroke="#fff" stroke-linecap="round" stroke-linejoin="round" stroke-width=".1" d="m125.8 641.2.3-1-.1-1.3-.2-1.1-.4-1.1-.6-.6-.7-.2-.5.3" style="stroke-width:.4;stroke-dasharray:none"/><path fill="none" stroke="#fff" stroke-linecap="round" stroke-linejoin="round" stroke-width=".1" d="m126 641.2.2-1v-1.3l-.2-1.1-.4-1.1-.6-.6-.6-.2m.7 6.3h.1l.4-.3.4-.7m1.5 0 .2-1v-1.3l-.3-1.1-.3-1.1-.7-.6-.6-.2m.8 6.3.5-.3.4-.7m1.4 0 .2-1v-1.3l-.2-1.1-.4-1.1-.6-.7-.6-.1m.8 6.3.5-.3.3-.7m1.5 0 .2-1v-1.3l-.2-1.1-.4-1.1-.6-.7-.6-.1m.8 6.3.4-.3.4-.7m1.5 0 .1-1.1v-1.2l-.2-1.2-.4-1-.6-.7-.5-.1m.7 6.3.5-.3.4-.7m1.4 0 .2-1.1v-1.2l-.2-1.2-.4-1-.6-.7-.5-.1m.7 6.3.5-.3.3-.7m-8.6-.5.1-.1.1-.7v-.9l-.2-.9-.1-.1" style="stroke-width:.4;stroke-dasharray:none"/><path fill="none" stroke="#fff" stroke-linecap="round" stroke-linejoin="round" stroke-width=".1" d="m126.2 640.7.1-.1V639l-.2-.9v-.1m1.6 2.7v-.1l.1-.8v-.8l-.2-.9v-.1m1.5 2.7.1-.1.1-.8v-.8l-.2-.9v-.1m1.5 2.7v-.1l.2-.8-.1-.8-.2-.9v-.1m1.5 2.7.1-.1.2-.8-.1-.9-.2-.8v-.1m1.5 2.6h.1l.1-.8v-.9l-.2-.8v-.1m-7.4 0-.1-.2-.2-.4m1.8.6-.1-.2-.2-.4m1.8.6-.2-.3-.1-.3m1.7.6-.1-.3-.1-.3m1.7.6-.2-.3v-.3m1.7.6-.2-.3-.1-.3m-7.2 4 .1-.3.1-.3" style="stroke-width:.4;stroke-dasharray:none"/><path fill="none" stroke="#fff" stroke-linecap="round" stroke-linejoin="round" stroke-width=".1" d="m127.4 641.3.2-.2.1-.4m1.2.6.1-.3.1-.3m1.2.6.2-.3.1-.3m1.2.6.2-.3v-.3m1.3.6.1-.3.1-.3m2.4.4h-.1m-1.3 0h-.2m-1.3 0h-.2m-1.4 0 .3-.2.2-.5.2-.7-.1-.9-.2-.8-.2-.5m1.2 3.6h.1l.3-.2.2-.5.1-.7v-.9l-.2-.8-.2-.5m1.2 3.6.3-.2.3-.5.1-.7v-.9l-.2-.8-.3-.5m1.3 3.6.3-.2.2-.5.2-.7-.1-.9-.1-.8-.3-.5m-1.9 3.8.4.5.4.2.5-.2.4-.7" style="stroke-width:.4;stroke-dasharray:none"/><path fill="none" stroke="#fff" stroke-linecap="round" stroke-linejoin="round" stroke-width=".1" d="m135.8 641.1.1-1.1v-1.2l-.2-1.2-.4-1-.6-.7-.7-.2-.5.3m-.9 5.3.4.5.5.2.4-.2.4-.7" style="stroke-width:.4;stroke-dasharray:none"/><path fill="none" stroke="#fff" stroke-linecap="round" stroke-linejoin="round" stroke-width=".1" d="m134.3 641.1.2-1.1v-1.2l-.2-1.2-.5-1-.5-.7-.7-.2-.6.3m.1 6 .1.1.4-.3.4-.7" style="stroke-width:.4;stroke-dasharray:none"/><path fill="none" stroke="#fff" stroke-linecap="round" stroke-linejoin="round" stroke-width=".1" d="m134.5 641.1.1-1.1v-1.2l-.2-1.2-.4-1-.6-.7-.6-.2" style="stroke-width:.4;stroke-dasharray:none"/><path fill="none" stroke="#fff" stroke-linecap="round" stroke-linejoin="round" stroke-width=".1" d="m133.6 642 .5-.2.4-.7m1.4 0 .2-1.1v-1.2l-.2-1.2-.4-1-.6-.7-.6-.2" style="stroke-width:.4;stroke-dasharray:none"/><path fill="none" stroke="#fff" stroke-linecap="round" stroke-linejoin="round" stroke-width=".1" d="M135 642h.1l.4-.2.4-.7m-4.2-.5.1-.2v-1.6l-.2-.8v-.1m1.6 2.7v-.2l.1-.7v-.9l-.2-.8-.1-.1m1.6 2.7.1-.2.1-.7v-.9l-.2-.8-.1-.1m1.6 2.6.1-.1.1-.7v-.9l-.3-.8v-.1m-4.4 0-.1-.3-.1-.3m1.7.6-.1-.3-.2-.3m1.7.6-.1-.3-.1-.3m1.7.6-.1-.3-.1-.3m-4.3 3.9.1-.3.1-.3m1.2.6.1-.3.2-.3m1.2.6.1-.3.1-.3" style="stroke-width:.4;stroke-dasharray:none"/><path fill="none" stroke="#fff" stroke-linecap="round" stroke-linejoin="round" stroke-width=".1" d="m135.8 641.2.2-.3.1-.3" style="stroke-width:.4;stroke-dasharray:none"/><path fill="none" stroke="#fff" stroke-miterlimit="10" stroke-width=".5" d="M103.7 653.7h36.1" style="stroke-width:.5;stroke-dasharray:none"/><path fill="#fff" d="M103.5 652.1h.5v3.2h-.5zm36.1 0h.5v3.2h-.5z" style="stroke-width:.5;stroke-dasharray:none"/><path fill="#005cb9" d="M112.8 648.3h17.9v11.2h-17.9z"/><text x="115.3" y="656.7" fill="#fff" font-family="Montserrat-Italic, Montserrat" font-size="8" font-style="italic" style="stroke-width:.5;stroke-dasharray:none"><tspan x="115.3" y="656.7" style="stroke-width:.5;stroke-dasharray:none">1/2”</tspan></text></g><g role="graphics-object" aria-labelledby="acc-t-121 acc-d-121" tabindex="0"><desc id="acc-d-121">A small, brass metal hex nut. It is a thick, hexagonal (six-sided) ring with a circular hole in the center. The six flat outer faces meet at distinct, slightly rounded corners, and the interior of the central hole is threaded with fine grooves to match a machine screw. Both the top and bottom surfaces are flat.</desc><title id="acc-t-121">#4-40 Hex Nut (8) - Brass Metal</title><text x="235.3" y="727.8" fill="#fff" font-family="Montserrat-Regular, Montserrat" font-size="14"><tspan x="235.3" y="727.8">#4-40 Nut x 8</tspan></text><rect width="105.1" height="105.1" x="230.2" y="591.7" fill="none" stroke="#fff" stroke-linecap="round" stroke-linejoin="round" stroke-width="2.9" rx="12.7" ry="12.7"/><path fill="none" stroke="#fff" stroke-linecap="round" stroke-linejoin="round" stroke-width=".5" d="m272.4 638.6-1.4 1.7m3.1-2-1.7.3m23.8 2.5-3.9-2.2-1.4-.6m-10.5 3.4h.3l1.1-.3h1.4m0 0h.3l1.4.3 1.1.5.5.6.3.5v.3"/><path fill="none" stroke="#fff" stroke-linecap="round" stroke-linejoin="round" stroke-width=".5" d="M287.6 641.7v-.3l-1.4-.6-1.6-.5-1.7-.3H281l-1.7.3-1.1.3-.8.5v.6m8.8 1.3v-.2l-1.6-.3-1.7-.3h-3.6l-.5.3"/><path fill="none" stroke="#fff" stroke-linecap="round" stroke-linejoin="round" stroke-width=".5" d="m283.2 641.4-1.4-.3-1.4-.3h-1.3l-.9.3-.8.3v.3m1.4.5 1.4-.3h3.6l1.6.3.6.3m-7.2-2.5 1.4-.3h3.6l1.6.6.6.3"/><path fill="none" stroke="#fff" stroke-linecap="round" stroke-linejoin="round" stroke-width=".5" d="M280.4 641.7h3.1l1.4.2 1.1.6.5.5m-8-.2.3-.3.8-.6.8-.2"/><path fill="none" stroke="#fff" stroke-linecap="round" stroke-linejoin="round" stroke-width=".5" d="m278.8 640 1.4-.3h3.6l1.6.6 1.4.5.8.6.3.8-.3.6m-16.6-2.5v.3l-1.4 3.5m24.9 6.1h.3l1.4-3.6m0-5.5v5.5m-1.4-3.8 1.4-1.7m-5.3 11.6h-.2l-1.4.6-1.4.3h-1.4m6.7-1.7 1.3-1.7m-8 3.4-1.6.2h-3.1l-1.6-.2h-1.7l-1.4-.3-1.4-.6-1.1-.3m-5-8.3-.2 5.3m0 0 1.1.8 4.1 2.2"/><path fill="none" stroke="#fff" stroke-linecap="round" stroke-linejoin="round" stroke-width=".5" d="m274.6 652.4 1.1.3 4.2.6m-10.3-9.2h.9l4.1.9m18.6 1.6 1.6-3.8m-20.2 2.2 1.4.5 3.9 2.5m-2.5-6.3.5.8 1.2.5 1.9.6 2.2.3 1.9-.3 2-.3 1.1-.8.3-.8-.6-.9-1.4-.8-1.6-.3-2.3-.3-2.2.3-1.6.3m0 0-.3.3-.3.3h-.3l-.2.2-.3.3v.6m9.1 4.7 1.7-.3 1.4-.3 1.1-.3 1.1-.5 1.1-.6.8-.3.6-.5.5-.8m0 0 .3-.6v-.5l-.3-.6-.3-.8-.5-.6-.8-.5-1.2-.6-1.1-.3m0 0-1.1-.5-1.3-.3-1.4-.3-1.7-.2h-6.1"/><path fill="none" stroke="#fff" stroke-linecap="round" stroke-linejoin="round" stroke-width=".5" d="m279.3 637-1.6.2-1.4.3-1.1.3-1.4.5-.8.3-.9.6-.5.5-.6.6m0 0-.2.8v.6l.2.5.3.6.6.8.8.5.8.3 1.1.6m0 0 1.4.5 1.4.3 1.4.3 1.6.3h6.1m-6.6 1.6v5.3m0 0 6.6.3m0 0h.3l6.4-1.7m0-5.3v5.3m-6.7-5.5.6-.3 6.1.5m-13.3 1.4 6.6-1.6m-11.6-8.3-.8.2m5 3.9h-.3m12.1 10.5.9-.3"/></g><g role="graphics-object" aria-labelledby="acc-t-130 acc-d-130" tabindex="0"><desc id="acc-d-130">A small wooden bracket. The top edge is deeply carved into a wide "U" or "cradle" shape, with a small rounded hill or "peak" rising in the center of the curve. The left and right sides each have a single T-shaped tab pointing outward. The bottom edge is flat but features two small, upright T-shaped cutouts (nut slots) and a single rectangular tab protruding from the center.</desc><title id="acc-t-130">Range Finder Holder (1) - Wood</title><text x="448.5" y="711" fill="#fff" font-family="Montserrat-Regular, Montserrat" font-size="14"><tspan x="448.5" y="711">Range Finder</tspan><tspan x="461.2" y="727.8">Holder x 1</tspan></text><path fill="none" stroke="#fff" stroke-linecap="round" stroke-linejoin="round" stroke-width="2" d="M519.8 650.2c0 .4.3.7.7.7h3.8c.4 0 .7.3.7.7v4.8c0 .4-.3.7-.7.7H521c-.4 0-.7.3-.7.7v7.6h36.9c4.7 0 8.5-3.8 8.5-8.5v-30c0-1.6 1.3-2.8 2.8-2.8h2.8c1.6 0 2.8 1.3 2.8 2.8 0 3.8 5.7 3.8 5.7 0v-22.7c0-3.8-5.7-3.8-5.7 0 0 1.6-1.3 2.8-2.8 2.8h-2.8c-1.6 0-2.8-1.3-2.8-2.8v-8.5c0-4.7-3.8-8.5-8.5-8.5h-3.7c-5.3 0-8.7 5.6-6.3 10.3 5.7 11.1 1.9 24.8-8.8 31.3s-24.6 3.6-31.8-6.5c-2.7-3.7-7-6-11.8-6s-9.1 2.2-11.8 6c-7.2 10.2-21.1 13.1-31.8 6.5-10.7-6.5-14.5-20.2-8.8-31.3 2.4-4.7-1-10.3-6.3-10.3h-3.7c-4.7 0-8.5 3.8-8.5 8.5v8.5c0 1.6-1.3 2.8-2.8 2.8h-2.8c-1.6 0-2.8-1.3-2.8-2.8 0-3.8-5.7-3.8-5.7 0v22.7c0 3.8 5.7 3.8 5.7 0 0-1.6 1.3-2.8 2.8-2.8h2.8c1.6 0 2.8 1.3 2.8 2.8v30c0 4.7 3.8 8.5 8.5 8.5h36.9v-7.6c0-.4-.3-.7-.7-.7h-3.3c-.4 0-.7-.3-.7-.7v-4.8c0-.4.3-.7.7-.7h3.8c.4 0 .7-.3.7-.7v-7c0-.4.4-.8.7-.8h6.2c.3 0 .7.3.7.8v7c0 .4.3.7.7.7h3.8c.4 0 .7.3.7.7v4.8c0 .4-.3.7-.7.7h-3.3c-.4 0-.7.3-.7.7v7.6h9.9v14.7c0 1.6 1.3 2.8 2.8 2.8h8.5c1.6 0 2.8-1.3 2.8-2.8v-14.7h9.9v-7.6c0-.4-.3-.7-.7-.7h-3.3c-.4 0-.7-.3-.7-.7v-4.8c0-.4.3-.7.7-.7h3.8c.4 0 .7-.3.7-.7v-7.1c0-.4.3-.7.7-.7h6.2c.4 0 .7.3.7.7v7.1z"/></g><g role="graphics-object" aria-labelledby="acc-t-132 acc-d-132" tabindex="0"><desc id="acc-d-132">A long, rectangular base panel. One end is flat (the back), while the opposite end (the front) tapers into a rounded, shield-like point. Each long side features three wide, rectangular tabs. Inset from these tabs are four small, T-shaped nut slots—two near the back and two near the middle. The rounded front end contains two vertical rectangular cutouts flanking a central square hole and two small circular holes.</desc><title id="acc-t-132">Bottom (1) - Wood</title><text x="924.8" y="748.2" fill="#fff" font-family="Montserrat-Regular, Montserrat" font-size="14"><tspan x="924.8" y="748.2">Bottom x 1</tspan></text><path fill="none" stroke="#fff" stroke-linecap="round" stroke-linejoin="round" stroke-width="2" d="M1173 590.4c0-5.3-2.5-10.3-6.6-13.5l-27.9-21.5c-1.5-1.1-3.3-1.8-5.2-1.8h-57.9v-11.3c0-1.6-1.3-2.8-2.8-2.8h-22.7c-1.6 0-2.8 1.3-2.8 2.8v11.3h-76.6v12c0 .4.3.7.7.7h3.6c.4 0 .7.3.7.7v4.6c0 .4-.3.7-.7.7h-4c-.4 0-.7.3-.7.7s-.3.7-.7.7h-6.2c-.4 0-.7-.3-.7-.7s-.3-.7-.7-.7h-4c-.4 0-.7-.3-.7-.7V567c0-.4.3-.7.7-.7h3.6c.4 0 .7-.3.7-.7v-12h-90.6v-11.3c0-1.6-1.3-2.8-2.8-2.8H846c-1.6 0-2.8 1.3-2.8 2.8v11.3h-70.9v-11.3c0-1.6-1.3-2.8-2.8-2.8h-22.7c-1.6 0-2.8 1.3-2.8 2.8v11.3h-42.2v12c0 .4.3.7.7.7h3.6c.4 0 .7.3.7.7v4.6c0 .4-.3.7-.7.7h-4c-.4 0-.7.3-.7.7s-.3.7-.7.7h-6.2c-.4 0-.7-.3-.7-.7s-.3-.7-.7-.7h-4c-.4 0-.7-.3-.7-.7V567c0-.4.3-.7.7-.7h3.6c.4 0 .7-.3.7-.7v-12h-36.6c-1.6 0-2.8 1.3-2.8 2.8v158.4c0 1.6 1.3 2.8 2.8 2.8h36.6v-12c0-.4-.3-.7-.7-.7h-3.6c-.4 0-.7-.3-.7-.7v-4.6c0-.4.3-.7.7-.7h4c.4 0 .7-.3.7-.7s.3-.7.7-.7h6.2c.4 0 .7.3.7.7s.3.7.7.7h4c.4 0 .7.3.7.7v4.6c0 .4-.3.7-.7.7h-3.6c-.4 0-.7.3-.7.7v12H744v11.3c0 1.6 1.3 2.8 2.8 2.8h22.7c1.6 0 2.8-1.3 2.8-2.8v-11.3h70.9v11.3c0 1.6 1.3 2.8 2.8 2.8h22.7c1.6 0 2.8-1.3 2.8-2.8v-11.3h90.6v-12c0-.4-.3-.7-.7-.7h-3.6c-.4 0-.7-.3-.7-.7v-4.6c0-.4.3-.7.7-.7h4c.4 0 .7-.3.7-.7s.3-.7.7-.7h6.2c.4 0 .7.3.7.7s.3.7.7.7h4c.4 0 .7.3.7.7v4.6c0 .4-.3.7-.7.7h-3.6c-.4 0-.7.3-.7.7v12h76.6v11.3c0 1.6 1.3 2.8 2.8 2.8h22.7c1.6 0 2.8-1.3 2.8-2.8v-11.3h57.9c1.9 0 3.7-.6 5.2-1.8l27.9-21.5c4.2-3.2 6.6-8.2 6.6-13.5v-90.6z"/><path fill="none" stroke="#fff" stroke-linecap="round" stroke-linejoin="round" stroke-width="2" d="M1161.9 610.5c-2.4 0-4.3 1.9-4.3 4.2s1.9 4.3 4.3 4.3 4.3-1.9 4.3-4.3-1.9-4.3-4.3-4.2m0 42.5c-2.4 0-4.3 1.9-4.3 4.2s1.9 4.3 4.3 4.3 4.3-1.9 4.3-4.3-1.9-4.3-4.3-4.2m-7.3-24.1h14.7v14.2h-14.7zm-35.9-32.7h16v29.6h-16zm0 49.5h16v29.6h-16z"/></g><text x="1061.1" y="776.4" fill="#cbcbcb" font-family="Roboto-LightItalic, Roboto" font-size="8" font-style="italic" font-weight="300"><tspan x="1061.1" y="776.4">Piper Make Base Station Version 1.0.1</tspan></text></svg>