<svg xmlns="http://www.w3.org/2000/svg" aria-label="Piper Logo, Title, and Headers" viewBox="0 0 1224 792"><path fill="#005cb9" d="M-16.5901-18.1633h1261.6665v832.6519H-16.5901z"/><path fill="none" stroke="#fff" stroke-width=".6" d="M601.4969-10.8507v818.9626M394.4731-10.8507v818.9626M146.0445-10.8507v818.9626M435.8778-10.8507v818.9626M187.4493-10.8507v818.9626M21.8304-10.8507v818.9626M477.2825-10.8507v818.9626M228.8541-10.8507v818.9626M63.2351-10.8507v818.9626M518.6873-10.8507v818.9626M270.2588-10.8507v818.9626m82.8095-818.9626v818.9626M104.6399-10.8507v818.9626M560.0921-10.8507v818.9626M311.6636-10.8507v818.9626m906.4909-818.9626v818.9626M1011.1307-10.8507v818.9626M762.7021-10.8507v818.9626m289.8333-818.9626v818.9626M804.1069-10.8507v818.9626M638.4879-10.8507v818.9626m455.4522-818.9626v818.9626M845.5117-10.8507v818.9626M679.8926-10.8507v818.9626m455.4523-818.9626v818.9626M886.9164-10.8507v818.9626m82.8095-818.9626v818.9626M721.2974-10.8507v818.9626m455.4523-818.9626v818.9626M928.3212-10.8507v818.9626" clip-path="url(#clipPath57)" opacity=".23" transform="translate(.2604 -.4208)"/><path fill="none" stroke="#fff" stroke-width=".6" d="M-10.6051 38.3505h1251.3519M-10.6051 228.4065h1251.3519M-10.6051.3392h1251.3519M-10.6051 190.3953h1251.3519M-10.6051 152.3841h1251.3519M-10.6051 114.3728h1251.3519M-10.6051 342.44h1251.3519M-10.6051 418.4625h1251.3519M-10.6051 266.4177h1251.3519M-10.6051 76.3616h1251.3519M-10.6051 304.4289h1251.3519M-10.6051 380.4513h1251.3519M-7.2169 490.1143H1244.135M-7.2169 680.1703H1244.135M-7.2169 452.103H1244.135M-7.2169 642.1591H1244.135M-7.2169 604.1479H1244.135M-7.2169 566.1366H1244.135M-7.2169 718.1815H1244.135M-7.2169 528.1254H1244.135M-7.2169 756.1927H1244.135" clip-path="url(#clipPath58)" opacity=".23" transform="translate(.2604 -.4208)"/><path fill="#005cb9" d="M70.4 593.9216c-9.653-6.8303-13.1203-16.8213-11.4206-29.4526l39.871-184.1292c.667-3.4106 2.0899-6.376 4.4073-8.8148l43.8787-48.0863c1.9075-2.1976 17.958-8.345 23.0404-4.809l55.7001 31.857c7.4196 4.358 9.7785 11.0746 11.6207 18.0321l15.2262 81.1446c.7019 3.7294.8977 7.4666 0 11.2205l-.7006 3.9067c6.34 7.7622 8.1308 16.3594 6.7116 25.5457L225.376 643.5105c-1.2257 4.854-5.6416 9.7202-8.515 10.5173l-24.6448 6.011c-4.0412 1.1336-6.0906-.043-8.4144-.9013z"/><text fill="#cbcbcb" font-family="Roboto-LightItalic, Roboto" font-size="8" font-style="italic" font-weight="300" transform="translate(30.4 764.141)"><tspan fill="#fff" fill-opacity=".8">Piper Make Light Show - Version 1.1.1</tspan></text><g aria-labelledby="acc-t-4 acc-d-4" tabindex="0" transform="translate(-6 5.082)"><title>Piper Logo, Title, and Headers</title><desc>Piper Logo, Title, and Headers</desc><text x="28.656" y="91.765" fill="#fff" stroke-width=".9894" font-family="Montserrat-ExtraBold, Montserrat" font-size="54.068" font-weight="700" transform="scale(.9894 1.0107)"><tspan x="28.656" y="91.765">Mission:</tspan></text><text x="30.6621" y="123.2472" fill="#fff" stroke-width=".9894" font-family="Montserrat-Regular, Montserrat" font-size="21.7678" transform="scale(.9894 1.0107)"><tspan x="30.6621" y="123.2472">Piper Make Light Show</tspan></text><text x="33.1462" y="207.882" fill="#fff" font-family="Montserrat-Regular, Montserrat" font-size="14.0976"><tspan x="33.1462" y="207.882">Gather and organize</tspan><tspan x="33.1462" y="228.799">your supplies</tspan></text><text x="32.1971" y="184.067" fill="#fff" font-family="Montserrat-Black, Montserrat" font-size="17.5494" font-weight="800"><tspan x="32.1971" y="184.067">Components Sheet</tspan></text><g><path fill="#f7323f" d="M32.7938 15.2696h21.4445v21.4445H32.7938Z"/><path fill="#fee300" d="M56.5133 15.2696h21.4445v21.4445H56.5133Z"/><path fill="#72d54a" d="M80.2328 15.2696h21.4445v21.4445H80.2328Z"/><path fill="#00a1df" d="M103.9603 15.2696h21.4445v21.4445h-21.4445z"/><path fill="#ef4136" d="M127.6798 15.2696h21.4445v21.4445h-21.4445z"/><path fill="#fff" d="M45.8351 22.1186c-.753-.5768-1.7383-.8651-2.9239-.8651H40.476v10.518h2.3551l-.008-3.8932c1.2737-.0561 2.259-.3605 2.9559-.9052.8331-.6489 1.2497-1.474 1.2497-2.4593s-.4005-1.7864-1.1936-2.3952m-1.2336 2.4193c0 .3845-.1282.6328-.4246.8011-.2163.1202-.6168.2643-1.3458.3204v-2.1869c.9933.0481 1.3137.2403 1.4179.3284.2403.2163.3525.4486.3525.737m21.3964-3.2844h2.3551v10.518h-2.3551zm27.2762.8651c-.753-.5768-1.7383-.8651-2.9239-.8651H87.915v10.518h2.3551v-3.8932c1.2737-.0561 2.259-.3605 2.9559-.9052.8251-.6489 1.2416-1.474 1.2416-2.4593s-.4005-1.7864-1.1936-2.3952zm-1.2336 2.4193c0 .3925-.1282.6328-.4246.8011-.2163.1202-.6168.2643-1.3458.3204v-2.1869c1.0013.0481 1.3218.2403 1.4179.3284.2403.2163.3525.4486.3525.737m19.6581 7.2336h6.3123v-2.3552h-3.9572v-2.1628h3.9572v-2.3552h-3.9572v-1.2737h3.9572v-2.3711h-6.3123zm27.893-4.2697c.6248-.2323 1.1215-.5607 1.482-.9773.4887-.5607.761-1.2817.753-2.0267 0-.9613-.3925-1.7623-1.1615-2.3711-.737-.5768-1.6822-.8732-2.8197-.8732h-2.5874v10.518h2.3712v-3.0761l2.0747 3.0761h2.7877l-2.8998-4.2697zm-.1923-2.9319c0 .2884 0 1.0174-1.7704 1.1055v-2.1869c.3204 0 .6409.0401.9613.1122.2323.0481.4486.1682.6088.3445.1362.1522.2003.3605.2003.6248z"/></g></g><g aria-labelledby="acc-t-12 acc-d-12" tabindex="0" transform="translate(0 8)"><title>Completed View of the Assembled Kit</title><desc>An isometric drawing of the fully assembled device. It is a tall, shield-shaped object made from two layers of 5mm plywood. The front features a large 8 by 8 grid of small square holes in the center. Three brass screws are visible: one on the right side near the top of the grid and two at the bottom corners. At the very bottom, there are two small square openings, one of which is marked with a capital letter E.</desc><path fill="#005cb9" d="m252.2183 458.8132 1.0886-4.9974.2001-1.2023.2002-1.4024v-1.4024l.2001-1.4024v-1.6025l-.2001-1.4024-.2002-1.4024-.2001-1.4024-15.23-81.1445-.7994-2.8061-.8019-2.8048-1.2023-2.6046-1.4024-2.6046-1.6025-2.2043-1.8027-2.0029-2.0041-1.6025-2.0029-1.4037-16.2294-9.4163-.4003-.2001h-1.4024l-10.0181 2.4045h-.2002l-.4016.2001-.4003.4003-.4029.4016-.1976.4003h-.2015l-1.8027-1.6026-1.4024-2.2043-1.0021-2.4045-.8019-2.4045-.2002-2.8048v-.6005l-.2002-.6018-.2027-.8006-.1976-.6018-.4003-.6004-.4029-.4016-.399-.4003-.603-.4003-16.0267-9.2175s-6.4799-5.0426-18.6339.6018l-2.0029.4003-2.0041.802-1.8027 1.2022-1.6025 1.6026-43.0774 47.2845-.8006.8007-.6018 1.0021-.8019 1.002-.6005 1.2023-.4003 1.2023-.4016 1.2022-.4003 1.2023-.4003 1.2022-39.871 184.1279-.6018 3.6066v4.007l.4016 3.8068 1.0008 3.8068 1.4024 3.6041 1.804 3.4078 2.2043 2.8061 2.6046 2.6046 2.6046 1.8027 111.9995 64.5134 2.8048 1.4037 2.8048.5992h2.8048l2.0506-.585 23.9968-5.8239c6.9783-3.1082 9.016-12.2224 9.016-12.2224l32.8578-151.4702c1.5896-14.1361-3.7462-21.3741-7.0985-24.4552" clip-path="url(#c)"/><path fill="#fff" d="m107.6475 585.4749-1.0499-.6082-.984 5.6147 1.0499.6069.3628-2.0674c1.0744.6173 1.9822.266 2.1539-.7141.173-.9775-.3848-2.1733-1.5328-2.8319m-.3963 2.3476.1963-1.1221c.6547.3654.7089.7619.6689 1.0021-.0555.3228-.2828.4403-.8652.1201" clip-path="url(#d)"/><path fill="none" stroke="#fff" stroke-miterlimit="10" stroke-width=".5" d="m121.64 602.9218-9.4564-5.4481 2.0054-11.4399 9.4564 5.4494z" clip-path="url(#f)"/><path fill="#fff" d="m116.8971 596.9813.984-5.6121 1.0512.6056-.9853 5.6135z" clip-path="url(#g)"/><path fill="none" stroke="#fff" stroke-miterlimit="10" stroke-width=".5" d="m132.0022 608.8914-9.4564-5.4481 2.0055-11.4399 9.4564 5.4481z" clip-path="url(#h)"/><path fill="#fff" d="m128.372 597.4115-1.0499-.6056-.984 5.6147 1.0499.6057.3628-2.0687c1.0718.6173 1.9822.2673 2.1539-.7115.173-.9775-.3861-2.1733-1.5328-2.8345m-.3963 2.3501.1963-1.1234c.6547.3667.7089.7632.6676 1.0034-.0568.3228-.2815.439-.8639.1201" clip-path="url(#i)"/><path fill="none" stroke="#fff" stroke-miterlimit="10" stroke-width=".5" d="m152.7257 620.8287-9.4564-5.4481 2.0067-11.4386 9.4552 5.4481z" clip-path="url(#j)"/><path fill="#fff" d="m150.1108 616.1154-.8716-3.0024c.6392.0413 1.1157-.3357 1.2358-1.0163.1704-.9801-.3861-2.1733-1.5328-2.8332l-1.0511-.6069-.984 5.6134 1.0498.6031.2867-1.6283.6043 2.1436zm-1.3688-5.6276c.6547.3667.709.7632.6676 1.0034-.0568.3215-.2828.4416-.8665.1201l.1989-1.1234z" clip-path="url(#k)"/><path fill="#005cb9" stroke="#fff" stroke-linecap="round" stroke-linejoin="round" stroke-width=".776" d="m188.78 422.6654 3.2051-1.2022m-2.8048 1.6026 3.4065-.802m-.6017-.6005-3.0049 1.0021m1.002-2.2043 2.4045-.4016m.2002-.4002-2.4045.4003m4.007 3.4065-2.6046 1.0021m.4003 0 2.2043-.802m-4.007-3.8068 2.4045-.4003m1.6025 4.2071-2.0041.802m3.4065 5.009 1.4024-.6018 1.2022-1.2022.8019-1.8027.4003-2.0041v-2.2031l-.4003-2.2043-1.0021-2.0028-1.2022-1.6039-1.6026-1.2022-1.6038-.6005h-1.6026m2.8049 15.6278 1.2022-.6005 1.2022-1.2022 1.0021-1.804.4003-2.0028v-2.2043l-.6005-2.2043-.8019-2.0029-1.4024-1.6038-1.4024-1.2022-1.6025-.6005h-1.6025M84.5944 577.7411l3.0049-1.0021m-2.8047 1.6038 3.4053-.8019m-.4004-.8019-3.2051 1.2022m1.0008-2.4031 2.4045-.2015m.2001-.6004-2.203.4028m3.8069 3.404-2.6046 1.2022m.4002 0 2.2043-.8019m-3.8068-3.8043 2.203-.4028m1.6039 4.2071-2.0041.8019m3.4065 4.8089 1.4024-.6018 1.2022-1.2022.8007-1.6012.6018-2.0028v-2.2056l-.6018-2.2043-.8007-2.0041-1.4024-1.8027-1.4024-1.0021-1.6038-.7994h-1.6025m2.6045 15.6264 1.2023-.5992 1.4024-1.2048.8019-1.6025.4003-2.0041v-2.2017l-.6005-2.2056-.8019-2.0041-1.2022-1.6025-1.6026-1.1997-1.6025-.603h-1.6038m78.1395 54.6992 3.2064-1.0021m-2.8061 1.6012 3.2064-1.0021m-.4003-.5991-3.2064 1.0021m1.0021-2.2056 2.4045-.2002m.2001-.5991-2.2043.3977m4.007 3.4065-2.8048 1.0021m.6018 0 2.203-.6018m-4.007-3.8068 2.2043-.3977m1.6025 4.2045-2.0028.8045m3.6054 4.8063 1.2022-.6018 1.4024-1.1996.8019-1.6051.4003-2.0041v-2.203l-.6005-2.2017-.8019-2.0041-1.2022-1.8053-1.6025-1.1996-1.6025-.6031h-1.6025m2.6045 15.6289 1.4024-.6031 1.2022-1.2022.8006-1.6025.6018-2.0028-.2002-2.2043-.4016-2.2043-1.0008-2.0028-1.2022-1.804-1.4037-1.2022-1.8027-.6005h-1.6025m-92.565-69.7228-1.2022.399m139.2478 90.5609-1.0021 3.4065-1.4024 3.0049-1.8027 2.4045-2.4045 2.0041-2.4045 1.4036-1.6025.399m-39.4707-339.8051 1.2022-.2001h2.2043l2.2043.2001 2.0028.8006 2.2043 1.0021m37.6774 21.6647-37.6773-21.6648m-.0001 0-10.0181 2.4045m16.0293 9.2162 10.0169-2.4045m24.2434 316.1637 40.0711-184.1279M202.6038 639.451l10.0181-2.4045m13.2243-294.5248-16.2294-9.4163m43.0762 108.5929.2015 1.4025.2001 1.4036.2002 1.4024v1.6025l-.2002 1.4025v1.4023l-.2001 1.4025-.2015 1.2022m0-.0001-10.0169 2.6046m-16.8299-113.0016 2.0029 1.4025 2.0041 1.6025 1.8027 2.0041 1.6026 2.2043 1.4024 2.6046 1.2022 2.6046.802 2.8048.8019 2.8048m-21.6389-15.6277 10.0181-2.4045m26.8468 99.1766-15.2261-81.1445m0 0-10.0181 2.4045m15.2274 81.1445 10.0169-2.4045m-74.3315-118.4109-16.0293-9.2162m0 0-2.2043-1.0021-2.0028-.6004-2.2043-.4016-2.2043.2015-2.0028.4003-2.0041.802-1.8027 1.2009-1.6026 1.6038m-.0001-.0001L103.2269 363.56m.0001 0-.8019.8006-.6005 1.0021-.8019 1.0021-.6005 1.2023-.4003 1.2023-.4016 1.2022-.4003 1.2009-.4003 1.2023m0-.0001-39.871 184.1292m0 0-.6018 3.608v4.0069l.4003 3.8056 1.0021 3.8068 1.4024 3.6054 1.804 3.4065 2.203 2.8048 2.6059 2.6072 2.6046 1.8014m0 0 111.9995 64.5147m0 0 2.8048 1.4024 2.8048.6005h2.8048l2.8048-.8006 2.4045-1.2022 2.2043-2.0041 2.0041-2.6046 1.4024-3.0049 1.0008-3.4065m-.0002-.0002 40.0724-183.9277m0 0 .2002-1.4025.2001-1.4024v-1.4024l.2002-1.4023-.2002-1.4025v-1.6038l-.2001-1.4025-.2002-1.4023m0 .0002-15.2274-81.1445m0 0-.8019-2.8048-.8007-2.8048-1.2022-2.6046-1.4024-2.4045-1.6038-2.4045-1.8027-2.0041-2.0041-1.6026-2.0029-1.4023m0 .0001-38.346-22.146m51.3691 139.3547-122.0176-70.5258m88.3579 225.2024 33.6597-154.6766M73.3741 546.4858l121.8174 70.3257m-88.3579-225.2024L73.374 546.4858m152.4723 87.3557-1.0021 3.4078-1.6025 3.0049-1.8039 2.4032-2.2043 2.0029-2.4032 1.4024-1.6038.4016m43.4776-164.0931-32.8578 151.4702m-10.0181 2.4058 10.0181-2.4058m26.0461-177.1159.2001.2001 2.2043 3.0062 1.8027 3.4053 1.6025 3.6067 1.0021 3.8068.6018 4.0069-.2015 4.007-.4003 3.6066m0 .0001-10.0181 2.6046m-45.0801 164.2945h.4016l2.6046-.8032 2.6046-1.4024 2.203-1.8014 1.804-2.6059 1.6025-3.0062 1.0021-3.404m32.8577-151.2713-32.8578 151.2713m32.8578-151.2713.4016-3.8068v-4.007l-.4017-3.8068-.2001-1.0021m-56.901-51.0915-3.6067.4016m4.8089 1.6026-3.4065.802m0-.2015 3.4065-.6005m0-.8019-3.6067.8019m2.0042 1.4024-1.804 1.0021m2.2043-5.4094v1.0007m0 0 .4003.2015m.8019 1.0008v.8019m0 0-.2002.802m-.6017-10.0182h-.2001m-.6005.2001h-.2014m3.4064 15.4276h.4004m-3.6054-4.8089v-.2002h.2002v-.2001m-.2002.4003v.2001m-.2014 1.4037v-.4017l.2014-.2001v-.802m-1.804.6018.2002.2002h.2002l.2014.2001.2002.2002h.2002l.2002.2015h.4004m-1.6028-2.4045v1.6025m0-1.6025v-.2015m-.2002-.6004.2002.2002v.4003m-.2002-.6005v-.2001m-.2001-.4004v.2002l.2002.2002m-.2002-.4004h-.2002m-.8019-1.0021v.2002l.2002.2002.2002.2001.2014.2002h.2002v.2014m-.4017-3.0061-.2002.2001v.2002l-.2002.2015v1.4023m1.4025-1.2023-.2002-.2001h-.2002v-.2015h-.2002v-.2002h-.2002l-.2014-.2001m1.4025.8019h-.4004m.4004 0h.2014m.2002-.4015-.2002.2015v.2001m.2002-.4016v-.2002m.8007-1.6025v.2001l-.2002.2002v.2014l-.2002.2002v.2002l-.2002.2001v.2002l-.2002.2001m2.6047-.8007h-.2002l-.2002-.2002-.2014-.2014-.4003-.2002h-.2002l-.2002-.2001h-.4016m1.0022 2.6046.2002-.2001v-.4003l.2014-.2015v-.2002l.2002-.2001v-.2002l.2002-.4003m-.802 1.8027v.2002m0 .6017v-.6017m0 .6017v.2002h.2002m.4016.4003h-.2002v-.2001l-.2014-.2002m2.0041 1.2023-.2002-.2002h-.2002l-.2014-.2002h-.2002l-.2002-.2014h-.4004l-.2002-.2002m1.2025 2.8048v-.2001l.2002-.2002v-.6004l.2002-.2015v-.8006m-2.0042 1.4024.2014.2001h.4004l.2002.2002h.2002l.2002.2001h.4016m-1.604-.6004h-.2002m-.4003 0h.4003m-.4003 0h-.2002m-.6017 4.4072 1.6038.6018h1.6025l1.4024-.6018 1.0021-1.2022.8007-1.6026.6017-2.0028-.2001-2.0041-.4016-2.0041-.8007-2.0029-1.2022-1.6025-1.4024-1.2023-1.6038-.4016h-1.6026l-1.4024.6018-1.2022 1.0021-.8019 1.6025-.4003 2.0029v2.0041l.6018 2.0041.8006 2.0028 1.2022 1.6026zM87.199 576.3387l-3.6067.6018m4.809 1.6025-3.4065.6031m-.0001-.0001 3.4065-.6031m.0001-1.002-3.4065 1.0021m2.0028 1.4023-2.0029.8019m2.2043-5.2091v.8006m0 0 .4003.4003m.802.8019v1.0021m0 0v.6031m-.6018-10.0182h-.2002v.1989m-.8018.2002h-.2002m3.6067 15.4274v-.2002h.2001m-3.6066-4.6061.2002-.2028v-.2002m-.2002 2.0029v-1.6003m-1.8028.5996.2002.2002.2002.2015.2001.1989h.2015l.2002.2002h.4003l.2001.2002h.2002m-1.8028-2.6023v1.6016m0-2.2046v.6032m0-.6032-.2002-.2002m-.2001-.4016v.2028h.2002v.1989m-.2002-.4017v-.2002m-1.002-.8006v.2015h.2002v.1989h.2002l.2001.2002.2002.2002h.2014m-.6018-3.005v.4028l-.2002.1976v.2015l-.2002.2002v1.2022m1.4024-1.4024h-.2002v-.2015h-.2002l-.2014-.1976-.2002-.2027-.2001-.2001m1.4025 1.002h-.2002l-.2002-.2002m.4004.2002h.2001v-.2002m.4016-.399h-.2002v.3991h-.2015m1.0022-2.2043v.2001l-.2001.2002v.2001l-.2002.4016v.4003l-.2002.2001v.2027m2.4045-.803-.2014-.1989-.2002-.2027h-.2001l-.2002-.2001-.2002-.2002h-.6018l-.2002-.2001m1.0021 2.8072.2002-.2027v-.2001l.2001-.2002v-.6017l.2002-.2001v-.2002l.2014-.2001m-.6017 2.403h-.2002v-.5979m.2002.5979v.2015m.4003.4002h-.2002v-.1989h-.2001v-.2015m.4003.4004v.2002m1.6039.6031h-.2015l-.2002-.2028h-.4004l-.2001-.2002h-.2002l-.2002-.2002h-.2014m1.2024 2.8049.2002-.1976v-.6031l.2015-.2015v-1.1997m-2.0043 1.6014h.2001l.2002.2002h.4016l.2002.2028h.2001l.2002.1976h.2002m-1.6026-.6006h-.2002m-.4003 0h.4004m-.4004 0h-.2014m-.6004 4.2071 1.6025.6018h1.6026l1.4036-.6018 1.2023-1.0021.8006-1.6025.4003-2.0041v-2.0028l-.6005-2.2017-.8019-1.8052-1.2022-1.6026-1.4024-1.2023-1.6025-.6017H86.197l-1.4024.6017-1.0021 1.2023-1.0021 1.6026-.4003 1.8052.2002 2.2017.4003 2.0028.8019 2.0041 1.2022 1.6025zm81.1445 38.869-3.6067.6018m5.0091 1.6025-3.4052.6005m0 0 3.4052-.8006m0-.802-3.6067 1.0021m2.0042 1.4024-1.8027.8032m2.203-5.4107v.4017l-.2002.1989v.4004m0-.0002.6018.2002m.8006 1.002v.8019m0 0v.2002m0 0-.2002.6005m-.6004-10.0169h-.2015m-.8006.2002h-.2002m3.6054 15.4288h.2015m-3.4065-4.6101v-.3978h.2002m-.2002.3978h-.2002m0 1.6052v-1.6055m-1.6025.6034.2002.1989.2002.2002.2002.2002h.2002l.2002.2002h.2015l.2002.2028h.2002m-1.6029-2.6074v1.6055m-.2015-2.206v.4004h.2015v.2002m-.2015-.6006v-.2002m-.4003-.5991v.1989h.2002v.2002l.2002.2002m-1.4025-1.4025h.2015v.2002l.2002.2002.2002.2002h.2002v.2028h.2002m-.4005-3.0051-.2002.1976v.4016l-.2002.2002v.6005l-.2015.2002v.6018m1.4025-1.4026-.2002-.2002h-.2002v-.2015h-.2002v-.2002h-.2002v-.1976m.8008.7995h.2015m.4003 0h-.4004m.8007-.4016-.2002.2015v.2002h-.2002m1.2023-2.2044-.2002.2002v.2028l-.2002.1976v.2015l-.2015.2002v.403l-.2002.3977m2.4046-.801-.2002-.2002-.2002-.2015-.2002-.1976h-.2015l-.2002-.2028h-.2002l-.2002-.2002h-.2002m1.0025 2.805v-.399l.2002-.2015v-.4017l.2002-.2002v-.1976l.2002-.2028v-.2002m-.6006 2.4061v-.6032m0 .6032v.1989m.4003.4003-.2002-.2002v-.2002h-.2002m.4004.4004h.2002m1.6025.8019h-.2002l-.2002-.2002h-.2002l-.2002-.1989h-.2002l-.2015-.2028h-.2002l-.2002-.2002m1.0024 3.0051.2002-.2002v-.3977l.2002-.2028v-.6018l.2002-.1976v-.6031m-2.2031 1.6053h.4004l.2002.1976h.2002l.2002.2002h.4017l.2002.2002m-1.6029-.598v-.2028m-.6018.0001h.6019m-.6019 0v.2028m-.6004 4.2045 1.4024.6018h1.6025l1.4024-.6018 1.2022-1.1996.8019-1.6051.4003-1.8027v-2.2043l-.4003-2.0041-1.0021-2.0028-1.2022-1.4011-1.4024-1.2035-1.4024-.6018h-1.6025l-1.4037.6018-1.2009 1.2035-.8019 1.6012-.4003 1.8027v2.0041l.4003 2.2043 1.0021 1.8027 1.2022 1.6051zm-90.1606-86.3511-.6018.1975m3.4066-13.8249-2.8048 13.6274m0 0 10.6186 6.2087m-6.4115-25.4456-.6018.2027m11.4206 27.8475-.4003.2028m-7.6137-41.8779-2.8048 13.6248m0 .0001 10.6186 6.2126m-6.6116-25.447h-.4003m10.2183 33.6598-3.0062 13.6248m0 0 10.82 6.2126m-6.6115-25.4469h-.4016m-7.6138-41.6751-3.0049 13.6248m0 0 10.8188 6.0112m11.2203 50.0893h-.4003M89.202 486.3783h-.4003M99.02 520.0381l-3.0049 13.6248m0 0 10.6186 6.0111m-6.4115-25.2455h-.4016m10.2183 33.6624-3.0049 13.6222m-.0001 0 10.6186 6.0098m-25.4443-95.1695-3.0062 13.825m0-.0001 10.6186 6.0111m11.4205 50.0893h-.4003M93.409 466.9439l-.4003.2001m10.2183 33.4596-3.0049 13.825m0-.0001 10.6186 6.0112m11.4205 50.0892h-.4003m-17.4317-75.5348-.4003.2001m10.2183 33.4596-3.0062 13.825m0-.0001 10.6199 6.0098M96.4152 453.319l-3.0062 13.6248m0 .0001 10.6199 6.2113m11.4205 49.8903-.4016.1989m-17.4303-75.5349-.4016.2002m28.0502 108.7943-3.0049 13.825m0-.0001 10.6186 6.0099m-25.4457-95.1696-3.0049 13.6248m0 .0001 10.6186 6.2113m11.4205 49.8904-.4003.1989m-17.4316-75.535-.4003.2002m10.2182 33.4595-3.0049 13.6261m0 0 10.6186 6.2088m-25.4456-95.1696-3.0049 13.6248m0 0 10.6186 6.2113m29.2524 125.2252-.6017.1976m-17.2302-75.5337-.4003.2002m-17.4317-75.535-.4003.2002m28.0502 108.7944-3.0062 13.6261m0 0 10.6186 6.2087m-25.4443-95.1696-3.0062 13.6248m0 0 10.6199 6.2113m11.4192 49.8892-.6005.2015m-17.2302-75.5363h-.4016m28.0502 108.9945-3.0049 13.6261m0 0 10.6186 6.2087m-25.4456-95.1696-3.0049 13.6248m0 0 10.6186 6.2113m-25.4457-95.1708-3.0049 13.6248m0-.0001 10.6186 6.2113m29.2525 125.2227-.6005.2028m-17.2315-75.5363h-.6005m-17.2315-75.3348h-.6005m28.2505 108.9946-3.0062 13.6248m0 0 10.6199 6.2125m-25.4457-95.1721-3.0049 13.6248m0 0 10.6186 6.2112m29.2525 125.2227-.6018.2027m-17.2302-75.5362h-.6018m-17.2302-75.3347h-.6018m28.2505 108.9945-3.0049 13.6235m0 0 10.6186 6.2139m-25.4444-95.1722-3.0062 13.6248m0 0 10.6186 6.2113m-25.4444-95.1709-3.0062 13.6248m0 0 10.6199 6.0112m29.2512 125.4228h-.6005m-17.2315-75.3335h-.6005m28.2505 108.9945-3.0049 13.6235m0 0 10.6186 6.2138m-25.4457-95.1721-3.0049 13.6248m0 0 10.6186 6.21m-25.4457-95.3697-3.0049 13.825m0 0 10.6186 6.0111M156.923 568.725h-.6018m-17.2302-75.3335h-.6005m-17.2314-75.535-.6005.2002m28.049 108.9958-2.8048 13.6222m0 .0001 10.6199 6.2113m-25.4457-95.3698-3.0062 13.825m0 0 10.6199 6.0098m29.2512 125.4241h-.6005m-17.2301-75.3348h-.6018m-17.2302-75.5336-.6018.2001m28.0503 108.9958-2.8048 13.6222m0 .0001 10.6186 6.2113m-25.6458-95.3698-2.8048 13.825m0 0 10.6186 6.0098m-25.4456-95.1696-3.0049 13.6248m0 0 10.6186 6.2114M160.93 549.4906h-.4003m-17.2315-75.5349-.6005.2015M170.748 583.153l-2.8061 13.6222m0 0 10.6199 6.2113m-25.6458-95.3698-2.8048 13.8237m.0001 0 10.6186 6.0112M135.084 432.282l-2.8048 13.6248m.0001 0 10.6186 6.2099m29.0523 125.4242h-.4016m-17.4304-75.535-.4016.2002m-17.2302-75.5337-.6005.2002m28.049 108.7944-3.0049 13.8236m0 0 10.8187 6.0112m-25.6457-95.1696-2.8048 13.6235m0 0 10.6199 6.2113m29.051 125.4241h-.4003m-17.4317-75.5324-.4003.1976m-17.4316-75.5349-.4003.2015m28.0502 108.7931-3.0049 13.8249m0 0 10.8187 6.0111m-25.6457-95.1696-3.0049 13.6235m-.0001 0 10.8187 6.2113m-25.6457-95.1696-2.8048 13.6248m0 0 10.6186 6.21m29.0523 125.2253-.4003.1989m-17.4316-75.535-.4003.2002m28.0502 108.7944-3.0062 13.825m0-.0001 10.6186 6.0111m-25.4443-95.1695-3.0062 13.6261m-.0001-.0001 10.6199 6.2087m-25.4456-95.1695-3.0062 13.6235m0 0 10.82 6.2113m29.051 125.2252-.4003.1989m-17.4303-75.5349-.4016.2001m-17.4304-75.535-.4016.2015m28.0502 108.7931-3.0049 13.6261m0 0 10.6186 6.21m-25.4456-95.1696-3.0049 13.6235m0 0 10.6186 6.2113m11.4205 49.8892-.4003.2027m-17.4317-75.5375-.4003.2001m28.0502 108.7944-3.0062 13.6261m0 0 10.6199 6.21m-25.4456-95.1696-3.0049 13.6236m0 0 10.6186 6.2112m-25.4457-95.1696-3.0049 13.6235m0 0 10.6186 6.2113m29.2525 125.224-.4016.2027m-17.4304-75.5375-.4003.2001m10.217 33.4596-3.0049 13.6248m0 .0001 10.6186 6.2125m-25.4444-95.1708-3.0062 13.6235m0 0 10.6199 6.2113m11.4192 49.8891-.4003.2002m-17.4304-75.535h-.4016m28.0503 108.9945-3.0049 13.6248m0 .0001 10.6186 6.2125m-25.4457-95.1708-3.0049 13.6235m0 0 10.6186 6.2113m11.4205 49.8891-.4003.2002m-17.4317-75.5349h-.4003m10.2183 33.6598-3.0062 13.6248m0-.0001 10.6199 6.2113m-25.4456-95.1696-3.0049 13.6235m-.0001 0 10.6186 6.0111m11.4205 50.0894h-.4016m10.2184 33.6624-3.0049 13.6222m-.0001-.0001 10.6186 6.2113m-25.4456-95.1695-3.0049 13.6235m-.0001 0 10.6186 6.0112m11.4206 50.0892h-.4003m-17.4317-75.3348h-.4003m10.2183 33.6598-3.005 13.6248m0 0 10.6186 6.0112m-6.4114-25.2455h-.6005m10.4185 33.6597-3.0062 13.6248m0 0 10.6199 6.0111m-25.4457-95.1709-3.0062 13.825m0 0 10.6199 6.0112m11.4205 50.0893h-.6018m-7.4135-41.8752-3.005 13.825m.0001 0 10.6186 6.0111m-6.4114-25.4457-.6005.2002m10.4184 33.4596-3.0049 13.825m0 0 10.6186 6.0111m-6.4114-25.4456-.6018.2001m-7.4123-41.8751-3.0062 13.6248m.0001-.0001 10.6186 6.2114m3.4065 8.2141-3.0049 13.6248m0 0 10.6186 6.2113m-6.4115-25.4456-.6005.2002m3.4052-13.8251-2.8047 13.6248m0 .0001 10.6186 6.2113m-16.4283 18.4323-3.2064 14.0251m14.2254-7.6136-11.0189-6.4115m8.0139 20.4367 3.0049-14.0251m-14.2252 7.6136 11.2203 6.4115m-103.385-53.6961-3.0049 14.0251m14.025-7.6136-11.0202-6.4115m8.0153 20.4366 3.0049-14.0251m-14.0251 7.6137 11.0202 6.4114m7.2121-11.6206-3.2051 13.825m14.2253-7.6137-11.0202-6.2113m8.014 20.2363 3.0062-14.0251m-14.2253 7.6137 11.2191 6.4114m7.0132-11.6206-3.0049 14.0251m14.2253-7.6137-11.2204-6.4114m8.014 20.4365 3.2064-14.0251m-14.2253 7.6137 11.0189 6.4115m41.8751-13.4247-3.0062 14.0251m14.0252-7.6137-11.0189-6.4114m8.014 20.4365 3.0049-14.0251m-14.0251 7.6137 11.0202 6.4115m-23.2414-29.0523-3.0049 14.0251m14.0238-7.8139-11.0189-6.2113m8.014 20.2364 3.0049-14.0251m-14.0238 7.8138 11.0189 6.2113M160.93 468.948l-3.0049 14.0238m14.0251-7.6124L160.93 468.948m8.014 20.4352 3.0062-14.0238m-14.0251 7.6124 11.0189 6.4114m-23.2414-29.2512-3.0049 14.0251m14.0251-7.6137-11.0202-6.4114m8.014 20.4366 3.0062-14.0251m-14.0251 7.6137 11.0189 6.4114m3.0062 7.6137-3.0062 14.0239m14.0251-7.6125-11.0189-6.4115m8.014 20.4353 3.0049-14.0238m-14.0251 7.6124 11.0202 6.4114m7.2134-11.6207-3.0062 14.0251m14.0251-7.6136-11.0189-6.4115m8.014 20.4367 3.0049-14.0251m-14.0251 7.6136 11.0202 6.4115m7.212-11.6207-3.0049 14.0251m14.0251-7.8139-11.0202-6.2113m8.0153 20.239 3.0049-14.0277m-14.0251 7.8139 11.0202 6.2138m7.2121-11.6232-3.0049 14.0251m14.0251-7.6136-11.0202-6.4115m8.0153 20.4365 3.0049-14.0251m-14.0251 7.6137 11.0202 6.4114m-103.3851-53.6959-3.0049 14.0251m14.0251-7.6137-11.0202-6.4114m8.014 20.4365 3.0062-14.0251m-14.0251 7.6137 11.0189 6.4115m7.2134-11.6207-3.0049 14.0251m14.025-7.6137-11.0202-6.4115m8.014 20.4366 3.0062-14.0251m-14.0251 7.6137 11.0189 6.4114m7.2134-11.6206-3.2064 13.825m14.2253-7.6137-11.0189-6.2113m7.8139 20.2363 3.2051-14.0251m-14.2254 7.6137 11.0202 6.4114m7.2121-11.6219-3.0049 14.0251m14.0251-7.6137-11.0202-6.4115m8.0153 20.4367 3.0049-14.0251m-14.0251 7.6136 11.0202 6.4115m24.0419-88.7582-3.0049 14.0251m14.0251-7.6137-11.0202-6.4114m8.0153 20.4366 3.0049-14.0251m-14.0251 7.6136 11.0202 6.4115m7.2121-11.6206-3.2051 14.0251m14.2252-7.6138-11.0202-6.4114m8.014 20.4366 3.0062-14.0251m-14.2252 7.6136 11.219 6.4115m7.0132-11.6207-3.0049 14.0251m14.2253-7.6136-11.2204-6.4115m8.0141 20.2364 3.2063-13.825m-14.2253 7.6137 11.0189 6.2113m-103.1836-53.696-3.2064 14.0251m14.2253-7.6136-11.0189-6.4115m8.014 20.4366 3.0049-14.0251m-14.2252 7.6137 11.2203 6.4114m41.675-13.4247-3.0062 14.0251m14.0251-7.6136-11.0189-6.4115m8.014 20.4366 3.0049-14.0251m-14.0251 7.6136 11.0202 6.4115m-23.2413-29.0511-3.0062 14.0251m14.0251-7.8137-11.0189-6.2114m8.014 20.2352 3.0049-14.0238m-14.0251 7.8138 11.0202 6.21m-23.2414-29.051-3.0049 14.0251m14.0239-7.6136-11.0189-6.4115m8.014 20.4365 3.0049-14.0251m-14.0239 7.6137 11.0189 6.4114m-23.0411-29.2524-3.2051 14.0251m14.2253-7.6137-11.0202-6.4114m7.8138 20.4366 3.2064-14.0251m-14.2253 7.6136 11.0189 6.4115m-1.0021 26.8479-3.2051 14.0251m14.2254-7.6136-11.0202-6.4115m7.8151 20.4366 3.2051-14.0251m-14.2253 7.6137 11.0202 6.4115m-23.0412-29.0524-3.0062 13.825m14.0251-7.6137-11.0189-6.2114m8.014 20.2365 3.0049-14.0251m-14.0251 7.6137 11.0202 6.4114m87.3558 13.0231-3.2064 14.0251m14.2253-7.6137-11.0189-6.4114m7.8138 20.4365 3.2051-14.0251m-14.2253 7.6136 11.0202 6.4115m-23.0412-29.2525-3.2051 14.0251m14.2253-7.6136-11.0202-6.4115m8.014 20.4366 3.0062-14.0251m-14.2253 7.6137 11.2191 6.4114m-23.2414-29.2524-3.0049 14.0251m14.0251-7.6137-11.0202-6.4114m8.0141 20.4365 3.0062-14.0251m-14.0252 7.6137 11.0189 6.4115m-23.2413-29.0511-3.0049 14.0238m14.0251-7.8138-11.0202-6.2099m8.0153 20.235 3.0049-14.0251m-14.0251 7.8138 11.0202 6.2113m-23.2426-29.051-3.0049 14.0251m14.0251-7.6136-11.0202-6.4115m8.0153 20.4366 3.0049-14.0251m-14.0251 7.6136 11.0202 6.4115m-23.2414-29.2525-3.0062 14.0251m14.2253-7.6137-11.2191-6.4114m8.014 20.4366 3.2051-14.0251m-14.2253 7.6136 11.0202 6.4115m-63.5139 77.738-3.0049 14.0251m14.2252-7.6137-11.2203-6.4114m8.0152 20.4365 3.2051-14.0251m-14.2253 7.6136 11.0202 6.4115m-3.8068-39.6709-3.0062 14.0277m14.0251-7.8164-11.0189-6.2113m8.014 20.2364 3.0049-14.0251m-14.0251 7.8164 11.0202 6.2088m-3.8069-39.671-3.0049 14.0251m14.0238-7.6137-11.0189-6.4114m8.014 20.4366 3.0049-14.0251m-14.0238 7.6136 11.0189 6.4115m-3.8068-39.6709-3.0049 14.0251m14.0251-7.6136-11.0202-6.4115m8.014 20.4365 3.0062-14.0251m-14.0251 7.6137 11.0189 6.4114m-3.8056-39.6709-3.0062 14.0251m14.0251-7.6136-11.0189-6.4115m8.014 20.4366 3.0049-14.0251m-14.0251 7.6137 11.0202 6.4115m-3.8068-39.671-3.0062 14.0251m14.0251-7.6137-11.0189-6.4114m8.0139 20.4366 3.0049-14.0251m-14.0251 7.6137 11.0202 6.4114m-3.8068-39.6709-3.0049 14.0251m14.0251-7.8138-11.0202-6.2113m8.014 20.2364 3.0062-14.0251m-14.0251 7.8138 11.0189 6.2113m12.4226 121.6173-3.0049 14.0251m14.0251-7.6137-11.0202-6.4114m8.014 20.4365 3.0062-14.0251m-14.0251 7.6136 11.0189 6.4115m-23.2413-29.2525-3.0049 14.0251m14.025-7.6123-11.0202-6.4127m8.014 20.4378 3.0062-14.0251m-14.0251 7.6124 11.0189 6.4127m-23.2413-29.051-3.0049 14.0251m14.0251-7.8164-11.0202-6.2087m8.014 20.2338 3.0062-14.0251M91.4062 553.1l11.0189 6.2087m87.3558 13.023-3.0049 14.0251m14.0251-7.6137-11.0202-6.4114m8.0152 20.4365 3.0049-14.0251m-14.0251 7.6137 11.0202 6.4115m-57.703-27.4486-3.2063 14.0238m14.2252-7.6123-11.0189-6.4115m8.014 20.4353 3.0049-14.0238m-14.2252 7.6124 11.2203 6.4114m7.0132-11.6181-3.0062 14.0251m14.2253-7.6162-11.219-6.4089m8.0139 20.434 3.2051-14.0251m-14.2253 7.6163 11.0202 6.4089m7.2121-11.8209-3.0049 14.0251m14.0251-7.6111-11.0202-6.414m8.0153 20.4391 3.0049-14.0251m-14.0251 7.6111 11.0202 6.414m7.212-11.6232-3.0049 14.0251m14.0251-7.6137-11.0202-6.4115m8.014 20.4366 3.0062-14.0251m-14.0251 7.6137 11.0189 6.4114m-30.0531-76.5369-3.0049 14.0251m14.0251-7.6137-11.0202-6.4114m8.014 20.4365 3.0062-14.0251m-14.0251 7.6136 11.0189 6.4115m-23.2413-29.051-3.0049 13.8237m14.2252-7.6111-11.2203-6.2126m8.014 20.2377 3.2064-14.0251m-14.2253 7.6111 11.0189 6.414m-23.0399-29.0536-3.2064 14.0265m14.2253-7.6151-11.0189-6.4115m8.0139 20.4367 3.0049-14.0251m-14.2252 7.6149 11.2203 6.4101m-23.2413-29.2524-3.0062 14.0251m14.0251-7.6136-11.0189-6.4115m8.014 20.4366 3.0049-14.0251m-14.0251 7.6137 11.0202 6.4114m41.6737-13.4247-3.0049 14.0251m14.0251-7.6136-11.0202-6.4115m8.0153 20.4365 3.0049-14.0251m-14.0251 7.6137 11.0202 6.4114m7.2121-11.6181-3.0049 14.0251m14.0251-7.6162-11.0202-6.4089m8.014 20.4341 3.0062-14.0251m-14.0251 7.6162 11.0189 6.4089m7.2133-11.6207-3.0049 14.0251m14.0251-7.8125-11.0202-6.2126m8.014 20.2377 3.0062-14.0251m-14.0251 7.8125 11.0189 6.2125m-103.3837-53.6972-3.0062 14.0251m14.0251-7.6136-11.0189-6.4115m8.014 20.4366 3.0049-14.0251m-14.0251 7.6136 11.0202 6.4115m63.7141 42.6758-3.0062 14.0251m14.0251-7.6137-11.0189-6.4115m8.014 20.4366 3.0049-14.0251m-14.0251 7.6137 11.0202 6.4114M159.3275 554.9l-3.0062 13.825m14.2252-7.6111-11.219-6.2139m8.014 20.239 3.2051-14.0251m-14.2253 7.6111 11.0202 6.414m-23.0412-29.0523-3.2051 14.0251m14.2253-7.615-11.0202-6.4101m7.8138 20.434 3.2064-14.0239m-14.2253 7.615 11.0189 6.4089m-23.0412-29.2512-3.0049 14.0251m14.0251-7.6136-11.0202-6.4115m8.014 20.4366 3.0062-14.0251m-14.0251 7.6137 11.0189 6.4114m-23.2413-29.2524-3.0049 14.0251m14.0251-7.6137-11.0202-6.4114m8.0153 20.4365 3.0049-14.0251m-14.0251 7.6136 11.0202 6.4115m-23.2426-29.2525-3.0049 14.0251m14.025-7.6111-11.0202-6.414m8.0153 20.4379 3.0049-14.0239m-14.0251 7.6112 11.0202 6.4127m87.3558 13.0243-3.0062 14.0251m14.0251-7.6163-11.0189-6.4088m8.014 20.434 3.0049-14.0251m-14.0251 7.6162 11.0202 6.4089m-23.2414-29.2525-3.0049 14.0251m14.0239-7.6136-11.0189-6.4115m8.0139 20.4365 3.0049-14.0251m-14.0238 7.6137 11.0189 6.4114m-78.1396-169.5022-3.2051 14.0251m14.2253-7.6137-11.0202-6.4114m8.0153 20.4366 3.0049-14.0251m-14.2252 7.6136 11.2203 6.4115m-9.6178-23.8419L73.5742 545.6838m0 0 121.4159 69.9254m0 0 33.4608-153.8747m-33.4608 153.8747h.6018m-3.6067 36.6673 10.0182-2.6072m-39.4709-339.8052-10.0181 2.6046m52.694 336.6001 10.0181-2.6046m-25.4457-226.0031 2.4045-.2001m2.0041 3.2051-2.8048 1.0021m4.007 4.8089h.6005l1.4024-.802 1.0021-1.2022.8019-1.4024.6005-2.0041v-2.0029l-.4003-2.0041-.8019-1.8027-1.0008-1.8027-1.4037-1.2023-1.6025-.8019-1.8027-.4003-.6017.2001m2.6045 15.6278.8019-.2002m-3.8068-15.4275-.8019.2002m0 14.827.8019.4003 1.6025.2002h1.002m-3.205-15.4276-.8019.2002-1.4024.8019-1.0021 1.2023-.8019 1.6025-.4003 1.8027v2.0041l.4003 2.0029.8019 2.0041 1.2022 1.6025 1.2022 1.2023.6005.4016M85.3951 575.7382l2.6046-.4016m1.804 3.2064-2.6046 1.2022m3.8068 4.8089h.6005l1.4024-.8019 1.2022-1.2022.8019-1.6025.4003-1.8014v-2.0041l-.4003-2.0029-.8019-2.0041-1.0021-1.6051-1.4024-1.3998-1.6025-.8032-1.6026-.1989-.8019.1989m2.6046 15.4274.802-.2002m-3.6068-15.2273-1.0021.2002m.0001 14.6281 1.0021.399 1.6026.4003.8019-.2002m-3.2064-15.2272-.8007.2001-1.2022.8019-1.2022 1.2023-.8019 1.6026-.4003 1.8052v2.0029l.4003 2.0041.8019 2.0028 1.2022 1.6012 1.4024 1.2022.4003.2028m79.3418 37.8656 2.4045-.2002m2.0028 3.2051-2.8048 1.2048m3.8069 4.8063.8019-.2002 1.4024-.5992 1.0021-1.2048.8006-1.6025.4016-1.804.2002-2.0028-.4016-2.0041-.8006-2.0028-1.2022-1.6025-1.4024-1.4037-1.6038-.8006-1.6025-.2002h-.8006m2.6044 15.6289 1.0008-.2015m-3.8069-15.4275-1.0008.2002m.2002 14.8257.8006.4016 1.6038.4003 1.0008-.1989m-3.205-15.2286h-.8019l-1.4024.8019-1.0008 1.2022-.8019 1.6025-.4003 2.0028v2.0041l.4003 2.0028.8019 1.804 1.2009 1.8053 1.2022 1.0021.6018.3977"/></g><g aria-labelledby="acc-t-25 acc-d-25" tabindex="0"><title>Project Component Layout and Identification</title><desc>This component guide shows several parts to organize: a large wooden Front Panel with a large central square opening and tapered top; a wooden Back Panel with two vertical rectangular cutouts; and a trapezoidal Kickstand with a central cross-shaped slot. Electronic parts include a square LED Matrix with a tactile grid and a flat ribbon Jumper Wire. Small items include two rectangular Foam Tape strips, four 5/8-inch brass screws, and four small hexagonal brass nuts.</desc><rect width="877.6129" height="744.9311" x="329.2223" y="20.8648" fill="#005cb9" stroke="#fff" stroke-linecap="round" stroke-linejoin="round" stroke-width="1.0259" rx="10.7462" ry="10.7462"/></g><g aria-labelledby="acc-t-27 acc-d-27" tabindex="0"><title>Large Wooden Front Panel with Square Cutout</title><desc>A single 5mm thick plywood piece with a tombstone-like shape: a flat bottom with rounded corners and a top that tapers inward. It features a large square cutout in the center. To orient the piece, find the top where the corners are angled inward. Above the central square cutout is a small circular hole. Along the bottom edge, you will find two more small holes with the word &apos;PIPER&apos; engraved between them.</desc><text fill="#fff" font-family="Montserrat-Regular,Montserrat" font-size="14" transform="translate(442.64 528.238)"><tspan x="0" y="0">Front Panel x 1</tspan></text><path fill="#005cb9" stroke="#fff" stroke-linecap="round" stroke-linejoin="round" stroke-width=".75" d="M459.9685 463.7254h-18.3393v18.337h18.3393zm20.7918 0H462.421v18.337h18.3393zm20.7917 0h-18.3399v18.337h18.3399zm20.7905 0h-18.3393v18.337h18.3393zm20.7918 0H524.795v18.337h18.3393z"/><path fill="none" stroke="#fff" stroke-width="2" d="M568.0663 466.7182c2.9221.0001 5.2908 2.3689 5.291 5.291-.0323 2.9221-2.4275 5.2648-5.3496 5.2324-2.8765-.0319-5.2006-2.356-5.2325-5.2324.0002-2.9221 2.369-5.2909 5.291-5.291zm-151.3691 0c2.9221.0001 5.2908 2.3689 5.291 5.291-.0323 2.9221-2.4275 5.2648-5.3496 5.2324-2.8765-.0319-5.2006-2.356-5.2325-5.2324.0002-2.9221 2.369-5.2909 5.291-5.291zM377.578 215.265h229.6074v229.6075H377.578Zm157.2676-32.4649c2.9221.0001 5.2908 2.3689 5.291 5.291.003 2.9227-2.3639 5.2944-5.2866 5.2975s-5.2944-2.3639-5.2974-5.2866v-.0109c.0002-2.9224 2.3693-5.2911 5.2917-5.291z"/><path fill="none" stroke="#fff" stroke-width="2" d="M442.1952 70.9251c-10.8019.0009-20.783 5.7642-26.1836 15.1191l-54.8672 95.0293a30.237 30.237 0 0 0-4.0508 15.1191v272.7168c0 16.699 13.5371 30.2363 30.2361 30.2363h210.1038c16.699 0 30.2363-13.5371 30.2363-30.2361V196.1927a30.237 30.237 0 0 0-4.0508-15.1191l-54.8652-95.0293c-5.401-9.3556-15.3829-15.119-26.1855-15.1191h-100.373z"/><path fill="#005cb9" fill-rule="evenodd" stroke="#fff" stroke-linecap="round" stroke-linejoin="round" stroke-width=".75" d="M470.7154 468.443h1.9208v8.8039h-1.9208zm19.574 8.7993.0123.1h1.974l.006-.09v-2.8834l.008-.144h.1332l.0506-.01.0505-.01.0506-.01.0505-.01.0582-.01.0567-.01.0567-.01.0582-.01.0628-.011.0643-.0129.0628-.0129.0643-.014.0673-.015.0659-.017.0843-.022.0888-.0229.0919-.026.098-.0291.1011-.032.1026-.0341.1057-.04.1072-.0439.1087-.047.1103-.054.1103-.0601.1103-.067.1087-.072.1087-.08.1057-.089.1057-.095.1011-.1056.0582-.0649.0368-.0389.0383-.048.0444-.057.0521-.0649.0506-.074.0505-.082.0506-.088.0505-.098.0505-.1027.052-.1117.0444-.1195.0444-.1256.0383-.1317.0245-.1394.0199-.1455.0123-.1516v-.1639l-.0123-.1746-.0199-.1654-.0322-.1592-.0444-.1501-.0505-.1425-.0567-.1332-.0567-.1256-.0643-.1165-.0643-.1086-.0659-.098-.0643-.09-.0643-.08-.0566-.071-.0567-.061-.0506-.05-.046-.041-.0168-.031-.0827-.075-.0843-.069-.0843-.0649-.0843-.057-.0843-.054-.0843-.048-.0812-.046-.0827-.0389-.0782-.036-.0782-.0341-.0766-.0291-.072-.027-.0704-.0229-.0659-.022-.0643-.02-.0567-.016-.0566-.016-.0582-.014-.0566-.014-.0567-.014-.0582-.0129-.0566-.011-.0567-.011-.0582-.01-.0566-.01-.0628-.01-.0643-.01-.0659-.01-.0689-.01-.0734-.01-.0765-.01-.0812-.01-.0857-.01-.0919-.01h-1.9021l-.147.01-.1333.0551v8.5031zm2.0185-5.019v-1.5543l.0245-.012h.1164l.1133.01.1088.01.1042.014.1011.016.0965.022.0904.026.0858.0291.0812.032.0735.035.0673.0389.0566.043.0521.0439.0444.046.0383.05.0306.05.0199.0389.0123.03.006.031.006.0291.006.0291v.208h.0107v.1251l-.008.028-.006.031-.0123.032-.0123.0341-.0137.036-.0123.035-.0184.036-.0199.036-.0245.041-.0383.048-.0444.0439-.0505.041-.0582.04-.0628.035-.0673.031-.072.0291-.0766.0229-.0796.02-.0843.016-.0873.011-.0904.01h-.1899l-.098-.01-.1011-.0129-.0178-.0251zm-44.2049 4.8765.0123.1h1.9695v-2.9736l.0123-.1454h.1271l.0444-.01.0506-.01.0506-.01.0506-.01.0582-.01.0567-.01.0566-.01.0582-.01.0628-.011.0643-.011.0628-.0129.0659-.015.0659-.014.0673-.015.0827-.022.0888-.025.0934-.026.0965-.028.1011-.032.1026-.036.1057-.04.1072-.043.1103-.048.1087-.056.1103-.058.1103-.067.1088-.072.1088-.08.1072-.089.1042-.095.1026-.1057.0566-.0649.0322-.0389.0383-.05.0444-.056.0505-.0649.0505-.073.0506-.082.0506-.089.052-.098.0505-.1025.0506-.1119.0444-.1195.0383-.1255.0383-.1317.0245-.1394.0199-.1455.0123-.1516v-.1639l-.0123-.1746-.0199-.1655-.0307-.1593-.0383-.15-.0506-.1425-.0583-.1333-.0566-.1256-.0643-.1163-.0643-.1088-.0659-.098-.0643-.09-.0628-.08-.0582-.0699-.0567-.061-.0506-.05-.0383-.041v-.024l-.0827-.075-.0843-.069-.0843-.0649-.0843-.057-.0843-.054-.0843-.048-.0812-.045-.0827-.041-.0782-.036-.0782-.032-.075-.031-.0734-.026-.0703-.024-.0659-.022-.0643-.02-.0567-.016-.0567-.015-.0582-.015-.0567-.014-.0566-.012-.0582-.0129-.0566-.011-.0566-.011-.0582-.01-.0567-.01-.0628-.01-.0643-.01-.0659-.01-.0703-.01-.072-.01-.0766-.01-.0827-.01-.0857-.01-.0904-.01-.095-.01h-1.8073l-.147.01-.1332.054v7.9563l.0003.5509zm2.0125-5.0142v-1.5563l.026-.011h.1164l.1118.01.1088.01.1057.0129.1011.019.095.022.0919.024.0857.0291.0796.032.0734.036.0673.0389.0643.041.0567.0439.0444.048.0383.048.0322.053.0184.0389.0137.031.0123.031.006.0291.006.0291.006.027v.181h-.009v.1241l-.006.028-.006.03-.0137.032-.0123.0341-.0123.035-.0199.036-.0184.036-.0183.036-.026.041-.0383.048-.0444.045-.0506.041-.0567.04-.0643.035-.0674.031-.0703.0291-.0766.0229-.0796.02-.0858.016-.0857.011-.0919.01h-.1884l-.0995-.01-.0996-.014-.0199-.025zm80.8777 4.9837.007.1667h1.9832l.0122-.0341v-2.2424l.0735.087.0858.1285.0873.1302.0858.1302.0873.1301.0858.1285.0873.1302.0873.1302.0858.1302.0858.1302.0873.13.0873.1302.0858.1285.0873.1302.0858.1301.0873.1301.0873.1302.0567.075h2.4508l-.1302-.196-.1302-.1975-.1302-.196-.1286-.1978-.1302-.196-.1302-.1976-.1302-.196-.1302-.1976-.1302-.196-.1287-.1975-.1302-.1978-.1302-.196-.1302-.1975-.1286-.1962-.1302-.196-.1302-.1975-.1302-.196-.0307-.093.0444-.022.0506-.024.0505-.026.0567-.031.0582-.032.0567-.035.0628-.038.0643-.041.0659-.046.0659-.048.0674-.052.0674-.056.0674-.0601.0689-.063.0674-.067.0674-.072.0643-.069.0383-.043.0444-.05.0444-.056.0505-.066.0506-.073.0505-.08.0505-.0861.0506-.093.0521-.1011.0506-.1072.0444-.1134.0444-.1194.0383-.1271.0322-.1317.0245-.1394.0122-.1455.008-.15v-.1716l-.0138-.1715-.0245-.1625-.0383-.1547-.0444-.1469-.0506-.1393-.0582-.1302-.0628-.1226-.0643-.1119-.0643-.1055-.0659-.095-.0643-.0861-.0628-.076-.0582-.067-.0505-.058-.0444-.048-.0383-.036-.0505-.046-.0827-.074-.0858-.067-.0842-.063-.0842-.056-.0842-.052-.0827-.048-.0827-.0439-.0812-.0389-.0781-.035-.0781-.0341-.0751-.0291-.072-.026-.0689-.0229-.0659-.022-.0643-.019-.0567-.016-.0567-.014-.0582-.015-.0567-.015-.0567-.0129-.0582-.0129-.0567-.011-.0567-.011-.0567-.01-.0582-.01-.0628-.01-.0643-.01-.0674-.01-.0689-.01-.0735-.01-.0781-.01-.0812-.01-.0873-.01-.0904-.01-.0965-.01h-1.6678l-.144.01-.1455.01-.1363.046v7.964l-.001.5295zm2.0017-5.0343v-1.4336l.0107-.0959h.2313l.1103.01.1072.012.1026.016.0965.02.0934.025.0873.0291.0827.032.075.036.0689.0389.0643.041.0567.045.0506.046.0383.048.0321.052.0183.045.0138.0291.0122.031.006.031.006.0291v.3352l-.006.0291-.006.0291-.0122.0341-.0138.0341-.0122.0341-.0122.036-.0199.036-.0183.036-.026.04-.0383.048-.0444.046-.0505.043-.0567.0389-.0643.035-.0659.0341-.072.027-.075.024-.0812.022-.0842.016-.0873.0129-.0904.01-.0934.01h-.0965l-.0996-.01-.1011-.0129-.0368-.0742zm-22.1957-3.5286v8.7159l.006.0001.0318.0007h.1207l.4821.01 1.9278.025 1.9278.025.4814.01h.1207l.0318.0009h.006v-1.9995l-2.3648.01h-.7774l-.006.0001v0-1.726h3.2101v-1.9871h-3.1932v-.9794h3.2038v-2.0717 0-.0002h-.3201l-.9769-.0129-3.9071-.053-.005.0319z"/></g><g aria-labelledby="acc-t-32 acc-d-32" tabindex="0"><title>Five-Pin Jumper Wire Ribbon Cable</title><desc>This component is a long, flexible ribbon consisting of five thin wires joined side-by-side. You can identify it tactually as a flat, multi-strand cable. One end terminates in a single wide, rectangular plastic connector housing with five small pins or holes arranged in a single row. The other end terminates in individual plugs with 5 individual metal pins and small plastic housings.</desc><path fill="none" stroke="#fff" stroke-linecap="round" stroke-linejoin="round" stroke-width=".8831" d="M683.1934 102.1868h523.6928v4.2873H683.1934zm0-5.7948h523.6928v4.2873H683.1934zm.5489-6.6657h523.0187v4.2873H683.7423zm.1253-13.1605h523.0187v4.2873H683.8676zm0 6.3529h523.0187v4.2873H683.8676z"/><rect width="22.5767" height="32.5733" x="660.5602" y="74.8785" fill="#005cb9" stroke="#fff" stroke-linecap="round" stroke-linejoin="round" stroke-width="2" rx=".9978" ry=".9978" transform="rotate(180 671.849 91.165)"/><path fill="none" stroke="#fff" stroke-linecap="round" stroke-linejoin="round" stroke-width="2" d="M660.6812 101.6145h21.5253m-21.2628-6.7561h21.5253m-21.5253-6.7561h21.5253m-21.5253-6.756h21.5253"/><text fill="#fff" font-family="Montserrat-Regular,Montserrat" font-size="14" transform="translate(738.431 138.275)"><tspan x="0" y="0">Jumper Wire x 1</tspan></text></g><g aria-labelledby="acc-t-36 acc-d-36" tabindex="0"><title>Identify the 8x8 LED Matrix Module</title><desc>A square electronic module with an 8 by 8 grid of 64 tiny, slightly raised square lights on its front face. To orient the piece, find the five thin metal pins protruding from one edge on the back side.</desc><text fill="#fff" font-family="Montserrat-Regular,Montserrat" font-size="14" transform="translate(720.881 533.278)"><tspan x="0" y="0">LED Matrix x 1</tspan></text><path fill="#005cb9" stroke="#fff" stroke-linecap="round" stroke-linejoin="round" stroke-width="2" d="M653.4506 272.2957h229.6075v229.6074H653.4506z"/><path fill="#005cb9" stroke="#fff" stroke-linecap="round" stroke-linejoin="round" d="M660.4251 280.2564h22.4103v22.4103h-22.4103zm27.5916 0h22.4103v22.4103h-22.4103zm27.5916 0h22.4103v22.4103h-22.4103zm27.5916 0h22.4103v22.4103h-22.4103zm27.5916 0h22.4103v22.4103h-22.4103zm27.5916 0h22.4103v22.4103h-22.4103zm27.5916 0h22.4103v22.4103h-22.4103zm27.5916 0h22.4103v22.4103h-22.4103zm-193.1412 27.2917h22.4103v22.4103h-22.4103zm27.5916 0h22.4103v22.4103h-22.4103zm27.5916 0h22.4103v22.4103h-22.4103zm27.5916 0h22.4103v22.4103h-22.4103zm27.5916 0h22.4103v22.4103h-22.4103zm27.5916 0h22.4103v22.4103h-22.4103zm27.5916 0h22.4103v22.4103h-22.4103zm27.5916 0h22.4103v22.4103h-22.4103zm-193.1412 27.2917h22.4103v22.4103h-22.4103zm27.5916 0h22.4103v22.4103h-22.4103zm27.5916 0h22.4103v22.4103h-22.4103zm27.5916 0h22.4103v22.4103h-22.4103zm27.5916 0h22.4103v22.4103h-22.4103zm27.5916 0h22.4103v22.4103h-22.4103zm27.5916 0h22.4103v22.4103h-22.4103zm27.5916 0h22.4103v22.4103h-22.4103zm-193.1412 27.2918h22.4103v22.4103h-22.4103zm27.5916 0h22.4103v22.4103h-22.4103zm27.5916 0h22.4103v22.4103h-22.4103zm27.5916 0h22.4103v22.4103h-22.4103zm27.5916 0h22.4103v22.4103h-22.4103zm27.5916 0h22.4103v22.4103h-22.4103zm27.5916 0h22.4103v22.4103h-22.4103zm27.5916 0h22.4103v22.4103h-22.4103zm-193.1412 27.2917h22.4103v22.4103h-22.4103zm27.5916 0h22.4103v22.4103h-22.4103zm27.5916 0h22.4103v22.4103h-22.4103zm27.5916 0h22.4103v22.4103h-22.4103zm27.5916 0h22.4103v22.4103h-22.4103zm27.5916 0h22.4103v22.4103h-22.4103zm27.5916 0h22.4103v22.4103h-22.4103zm27.5916 0h22.4103v22.4103h-22.4103zM660.4251 416.715h22.4103v22.4103h-22.4103zm27.5916 0h22.4103v22.4103h-22.4103zm27.5916 0h22.4103v22.4103h-22.4103zm27.5916 0h22.4103v22.4103h-22.4103zm27.5916 0h22.4103v22.4103h-22.4103zm27.5916 0h22.4103v22.4103h-22.4103zm27.5916 0h22.4103v22.4103h-22.4103zm27.5916 0h22.4103v22.4103h-22.4103zm-193.1412 27.2918h22.4103v22.4103h-22.4103zm27.5916 0h22.4103v22.4103h-22.4103zm27.5916 0h22.4103v22.4103h-22.4103zm27.5916 0h22.4103v22.4103h-22.4103zm27.5916 0h22.4103v22.4103h-22.4103zm27.5916 0h22.4103v22.4103h-22.4103zm27.5916 0h22.4103v22.4103h-22.4103zm27.5916 0h22.4103v22.4103h-22.4103zm-193.1412 27.2917h22.4103v22.4103h-22.4103zm27.5916 0h22.4103v22.4103h-22.4103zm27.5916 0h22.4103v22.4103h-22.4103zm27.5916 0h22.4103v22.4103h-22.4103zm27.5916 0h22.4103v22.4103h-22.4103zm27.5916 0h22.4103v22.4103h-22.4103zm27.5916 0h22.4103v22.4103h-22.4103zm27.5916 0h22.4103v22.4103h-22.4103z"/><rect width="2.6823" height="8.5071" x="728.188" y="264.3587" fill="#fff" rx="1.3412" ry="1.3412"/><rect width="2.6823" height="8.5071" x="735.8115" y="264.3587" fill="#fff" rx="1.3412" ry="1.3412"/><rect width="2.6823" height="8.5071" x="743.435" y="264.3587" fill="#fff" rx="1.3412" ry="1.3412"/><rect width="2.6823" height="8.5071" x="751.0585" y="264.3587" fill="#fff" rx="1.3412" ry="1.3412"/><rect width="2.6823" height="8.5071" x="758.682" y="264.3249" fill="#fff" rx="1.3412" ry="1.3412"/></g><g aria-labelledby="acc-t-44 acc-d-44" tabindex="0"><title>Back Panel Component Identification</title><desc>This is a single large, flat wooden piece called the Back Panel. It has a complex shape: the bottom is a straight horizontal edge with two small screw holes near the corners. The top edge is irregular, featuring a square shoulder on the left and a taller, rounded &apos;thumb-like&apos; protrusion on the right that contains a small screw hole. Between these two top features is a deep U-shaped notch. In the center of the panel, there are two large identical vertical rectangular cutouts. Between these large rectangles, there is a small vertical slot with a screw hole below it. Another small vertical slot is located near the center of the bottom edge.</desc><text fill="#fff" font-family="Montserrat-Regular,Montserrat" font-size="14" transform="translate(994.744 528.238)"><tspan x="0" y="0">Back Panel x 1</tspan></text><path fill="none" stroke="#fff" stroke-width="2" d="M1045.0149 380.883c2.9221.0002 5.2908 2.369 5.291 5.291.032 2.9221-2.3103 5.3172-5.2324 5.3496s-5.3172-2.3103-5.3496-5.2324a6 6 0 0 1 0-.1172c.0002-2.9221 2.3689-5.2908 5.291-5.291m75.5151 85.8351c2.9221.0002 5.2908 2.369 5.291 5.291.032 2.9221-2.3103 5.3172-5.2324 5.3496s-5.3172-2.3103-5.3496-5.2324a6 6 0 0 1 0-.1172c.0002-2.9221 2.3689-5.2908 5.291-5.291m-151.3691 0c2.9221.0002 5.2908 2.369 5.291 5.291.0323 2.9221-2.3103 5.3172-5.2324 5.3496s-5.3172-2.3103-5.3496-5.2324a6 6 0 0 1 0-.1172c.0002-2.9221 2.3689-5.2908 5.291-5.291m66.2363-24.2656h18.8965v37.7969h-18.8965zm0-151.1797h18.8965v37.7949h-18.8965zm37.8145-18.6328h37.7949c2.0872.0001 3.7792 1.6921 3.7793 3.7793v99.9688c-.0001 2.0872-1.6921 3.7792-3.7793 3.7793h-37.7949c-2.0872-.0001-3.7792-1.6921-3.7793-3.7793v-99.9688c.0001-2.0872 1.6921-3.7792 3.7793-3.7793m-100.1582 0h37.7949c2.0872.0001 3.7792 1.6921 3.7793 3.7793v99.9688c-.0001 2.0872-1.6921 3.7792-3.7793 3.7793h-37.7949c-2.0872-.0001-3.7792-1.6921-3.7793-3.7793v-99.9688c.0001-2.0872 1.6921-3.7792 3.7793-3.7793m114.2558-89.8399c2.9221.0002 5.2908 2.3689 5.291 5.291 0 2.9227-2.3747 5.2896-5.2974 5.2866-2.9184-.003-5.2836-2.3681-5.2866-5.2866.0002-2.9223 2.3693-5.2912 5.2917-5.291z"/><path fill="none" stroke="#fff" stroke-width="2" d="M1087.3093 157.8548c-16.699 0-30.2363 13.5371-30.2363 30.2361v61.8713c-.0002 4.1748-3.3848 7.5589-7.5595 7.5586h-60.4717c-4.1748.0008-7.5597-3.3828-7.5605-7.5576v-27.1768c-.0003-4.1744-3.3842-7.5583-7.5586-7.5586h-34.1289c-16.699 0-30.2363 13.5371-30.2363 30.2361v223.4455c0 16.699 13.5371 30.2363 30.2361 30.2363h210.1037c16.699 0 30.2363-13.5371 30.2363-30.2361V242.9602c.0002-13.3824-8.7968-25.1731-21.625-28.9844a30.236 30.236 0 0 1-17.8457-14.3438l-14.4883-26.1797c-5.325-9.624-15.4561-15.5972-26.4551-15.5977h-12.4102z"/></g><g aria-labelledby="acc-t-47 acc-d-47" tabindex="0"><title>Single Trapezoidal Wood Kickstand Component</title><desc>This is a single flat, trapezoidal plywood piece. Its top edge is shorter than the bottom edge. On the bottom edge, you can feel two wide, rectangular feet at the corners. In the center of the bottom edge is a vertical slot that opens into a cross-shaped cutout. To orient it, place the side with the two feet and the cross-shaped cutout facing towards you.</desc><text fill="#fff" font-family="Montserrat-Regular,Montserrat" font-size="14" transform="translate(452.656 713.413)"><tspan x="0" y="0">Kickstand x 1</tspan></text><path fill="#005cb9" stroke="#fff" stroke-linecap="round" stroke-linejoin="round" stroke-width="2" d="M504.0658 647.9165v23.6187h51.0236v15.118c0 2.0874 1.6921 3.7795 3.7795 3.7795h29.7003c1.9994 0 3.653-1.5573 3.7727-3.5531l.9207-15.3445h13.5041c2.0874 0 3.7795-1.6921 3.7795-3.7795 0-.3524-.0493-.703-.1464-1.0417l-22.2727-77.674c-1.3943-4.8625-5.8409-8.2133-10.8993-8.2133H419.5652c-5.0585 0-9.5051 3.3508-10.8994 8.2133l-22.2727 77.674c-.5753 2.0065.5848 4.0995 2.5914 4.6749.3387.097.6894.1464 1.0417.1464h13.5041l.9207 15.3445c.1198 1.9958 1.7733 3.5531 3.7728 3.5531h29.7003c2.0874 0 3.7795-1.6921 3.7795-3.7795h0v-15.118h51.0236v-23.6187a.945.945 0 0 0-.9448-.9449h-4.441c-.5219 0-.9449-.4231-.9449-.9448h0v-5.7654c0-.5219.4231-.9448.9449-.9448h5.0079a.945.945 0 0 0 .9438-.8986v-11.3386a.945.945 0 0 1 .9437-.8986h8.3195a.945.945 0 0 1 .9438.8986v11.3386a.945.945 0 0 0 .9437.8986h5.0079c.5218 0 .9448.423.9449.9448v5.7653a.945.945 0 0 1-.9448.9449h-4.441c-.5219 0-.9449.4231-.9449.9448h0Z"/></g><g aria-labelledby="acc-t-49 acc-d-49" tabindex="0"><title>Locate Two Foam Tape Strips</title><desc>Find two identical pieces of foam tape. These are thin, flexible, rectangular strips. Unlike the rigid plywood or plastic pieces, they will feel soft and compressible. Each strip will have a smooth paper or plastic backing on one side that can be peeled away to reveal a sticky surface. You will notice that each strip is significantly longer than it is wide. Once these are adhered to the RGB matrix PCBA, they should not be removed.</desc><text fill="#fff" font-family="Montserrat-Regular,Montserrat" font-size="14" transform="translate(698.88 713.413)"><tspan x="0" y="0">Foam Tape x 2</tspan></text><rect width="105.1235" height="187.2658" x="697.3716" y="540.1943" fill="none" stroke="#fff" stroke-linecap="round" stroke-linejoin="round" stroke-width="2.8778" rx="12.6839" ry="12.6839" transform="rotate(90 749.933 633.827)"/><path fill="none" stroke="#fff" stroke-linecap="round" stroke-linejoin="round" stroke-width=".75" d="m673.6133 619.9911 18.9817-10.9116 94.9079 54.7852-18.9816 10.9684z"/><path fill="none" stroke="#fff" stroke-linecap="round" stroke-linejoin="round" stroke-width=".75" d="m673.6133 622.2075 94.908 54.842 18.9816-10.9684m-78.9596-63.7273 18.9817-10.9116 94.9079 54.7853-18.9816 10.9684z"/><path fill="none" stroke="#fff" stroke-linecap="round" stroke-linejoin="round" stroke-width=".75" d="m708.5433 604.5702 94.908 54.8421 18.9816-10.9684"/></g><g aria-labelledby="acc-t-54 acc-d-54" tabindex="0"><title>Four 5/8-inch Brass Screws</title><desc>Locate four identical screws made of brass. Each screw measures 5/8 of an inch long. Tactilely, feel for a rounded, slightly domed head at one end of the screw. On top of this head, you may feel a cross-shaped indentation. The body of the screw is a slender shaft covered in spiraling ridges, called threads. You can confirm its length by holding the head and feeling the threaded shaft extend 5/8 of an inch.</desc><text fill="#fff" font-family="Montserrat-Regular,Montserrat" font-size="14" transform="translate(906.347 713.413)"><tspan x="0" y="0">Screws x 4</tspan></text><rect width="105.1235" height="105.1235" x="889.7595" y="581.2655" fill="none" stroke="#fff" stroke-linecap="round" stroke-linejoin="round" stroke-width="2.8778" rx="12.6839" ry="12.6839"/><path fill="none" stroke="#fff" stroke-miterlimit="10" d="M920.3213 648.0165h44"/><path fill="#fff" d="M919.8213 644.7665h1v6.5h-1zm44 0h1v6.5h-1z"/><text fill="#fff" font-family="Montserrat-Medium,Montserrat" font-size="8.9925" font-weight="500" transform="translate(937.011 660.116)"><tspan x="0" y="0">5/8”</tspan></text><path fill="none" stroke="#fff" stroke-linecap="round" stroke-linejoin="round" stroke-width=".5" d="M961.6057 623.0745v12.4738m-2.5664-12.8068v13.1395m1.5168-13.1395v13.1395m-34.2938-8.9813v.2494m.9333 4.5737v-.083l-.1164-.0829v-.2494l-.1172-.333v-.3324l-.1164-.4159-.1164-.416v-.4989l-.1172-.4989v-.416l-.1164-.4154v-.333l-.1172-.3324-.1164-.1665m.0003.0001.1164.1665v.4989l.1172.3324v.7484l.1164.416v1.2472l.1172.333v.6654l.1164.2494v.3323m-.5836-4.9895v4.5732m.2336-4.9056.1164-.0835v-.083h.1172l.2327.083.1172.0835.1164.1659.1164.2494.1172.333.1164.4159.1164.5819m28.2273-1.6632v.083l.1172.1665v.1665l.1164.3324v.333l.1172.4154v.416l.1164.4989.1164.4989v.416l.1172.4159v.3324l.1164.333v.2494l.1164.0829m-3.0329-4.7402v.083l.1172.1665v.1665l.1164.3324v.333l.1164.4154v.416l.1172.4989.1164.4989v.416l.1164.4159v.3324l.1172.333v.2494l.1164.0829m-3.0329-4.7402v.083l.1164.1665v.1665l.1172.3324v.333l.1164.4154v.416l.1164.4989.1172.4989v.416l.1164.4159v.3324l.1164.333v.2494l.1172.0829m-3.0337-4.7402v.083l.1172.1665v.1665l.1164.3324v.333l.1172.4154v.416l.1164.4989.1164.4989v.416l.1172.4159v.3324l.1164.333v.2494l.1164.0829m-3.0329-4.7402v.083l.1164.1665v.1665l.1172.3324v.333l.1164.4154v.416l.1172.4989.1164.4989v.416l.1164.4159v.3324l.1172.333v.2494l.1164.0829m-3.033-4.7402v.083l.1164.1665v.1665l.1172.3324v.333l.1164.4154v.416l.1164.4989.1172.4989v.416l.1164.4159v.3324l.1164.333v.2494l.1172.0829m-3.0337-4.7402v.083l.1172.1665v.1665l.1164.3324v.333l.1172.4154v.416l.1164.4989.1164.4989v.416l.1172.4159v.3324l.1164.333v.2494l.1164.0829m-3.0329-4.7402v.083l.1172.1665v.1665l.1164.3324v.333l.1164.4154v.416l.1172.4989.1164.4989v.416l.1164.4159v.3324l.1172.333v.2494l.1164.0829m-3.0329-4.7402v.083l.1164.1665v.1665l.1172.3324v.333l.1164.4154v.416l.1164.4989.1172.4989v.416l.1164.4159v.3324l.1164.333v.2494l.1172.0829m-3.0338-4.7402v.083l.1172.1665v.1665l.1164.3324v.333l.1172.4154v.416l.1164.4989.1164.4989v.416l.1172.4159v.3324l.1164.333v.2494l.1164.0829m-3.0329-4.7402v.083l.1172.1665v.1665l.1164.3324v.333l.1164.4154v.416l.1172.4989.1164.4989v.416l.1164.4159v.3324l.1172.333v.2494l.1164.0829m-3.0329-4.7402v.083l.1164.1665v.1665l.1172.3324v.333l.1164.4154v.416l.1164.4989.1172.4989v.416l.1164.4159v.3324l.1164.333v.2494l.1172.0829m-3.0329-4.7402v.083l.1164.1665v.1665l.1164.3324v.333l.1172.4154v.416l.1164.4989.1164.4989v.416l.1172.4159v.3324l.1164.333v.2494l.1164.0829m-3.0329-4.7402v.083l.1172.1665v.1665l.1164.3324v.333l.1164.4154v.416l.1172.4989.1164.4989v.416l.1164.4159v.3324l.1172.333v.2494l.1164.0829m-3.0329-4.7402v.083l.1164.1665v.1665l.1172.3324v.333l.1164.4154v.416l.1164.4989.1172.4989v.416l.1164.4159v.3324l.1164.333v.2494l.1172.0829m18.6624-5.655h.3499m-.3499 0h.1164v.1665l.1172.1665v.3324l.1164.3324v.8319l.1164.4159v.5819l.1172.4989v.5824l.1164.4989v.416l.1164.4989v.3324l.1172.416v.4159l.1164.1659m.3496-.0001h-.3499m1.0496-6.6527h.3499m-.3499 0h.1172v.1665l.1164.1665v.3324l.1164.3324v.8319l.1172.4159v.5819l.1164.4989v.5824l.1164.4989v.416l.1172.4989v.3324l.1164.416v.4159l.1164.1659m.3496-.0001h-.3499m1.0505-6.6527h.3499m-.3499 0h.1164v.1665l.1164.1665v.3324l.1172.3324v.8319l.1164.4159v.5819l.1164.4989v.5824l.1172.4989v.416l.1164.4989v.3324l.1164.416v.4159l.1172.1659m.3495-.0001h-.3499m-7.3484-6.6527h.3499m-.3499 0h.1164v.1665l.1164.1665v.3324l.1172.3324v.8319l.1164.4159v.5819l.1164.4989v.5824l.1172.4989v.416l.1164.4989v.3324l.1164.416v.4159l.1172.1659m.3496-.0001h-.3499m9.4477-6.6527h.3499m-.3499 0h.1172v.1665l.1164.1665v.3324l.1164.3324v.8319l.1172.4159v.5819l.1164.4989v.5824l.1164.4989v.416l.1172.4989v.3324l.1164.416v.4159l.1164.1659m.3495-.0001h-.3499m1.0505-6.6527h.3499m-.3499 0h.1164v.1665l.1164.1665v.3324l.1172.3324v.8319l.1164.4159v.5819l.1164.4989v.5824l.1172.4989v.416l.1164.4989v.3324l.1164.416v.4159l.1172.1659m.1161-.0001h-.1164m-29.0446 0h-.3499m-.5834-4.0747v-2.079m0 2.079v.3324l.1172.416v.5824l.1164.4989v.416l.1164.4989v.3324l.1172.416v.4159l.1164.1659m24.1452-6.6528h.3499m-.3499 0h.1164v.1665l.1172.1665v.3324l.1164.3324v.8319l.1164.4159v.5819l.1172.4989v.5824l.1164.4989v.416l.1164.4989v.3324l.1172.416v.4159l.1164.1659m.3495-.0001h-.3499m4.3158-5.6549v.1665m-2.0993-.1665v.1665l.1164.1665.1164.3324v.333l.1172.4154v.416l.1164.4989v.4989l.1172.416.1164.4159v.3324l.1164.333v.2494l.1172.0829v.083m-3.0337-4.7402v.1665l.1172.1665.1164.3324v.333l.1172.4154v.416l.1164.4989v.4989l.1164.416.1172.4159v.3324l.1164.333v.2494l.1164.0829v.083m-3.0329-4.7402v.1665l.1164.1665.1172.3324v.333l.1164.4154v.416l.1172.4989v.4989l.1164.416.1164.4159v.3324l.1172.333v.2494l.1164.0829v.083m-3.0329-4.7402v.1665l.1164.1665.1164.3324v.333l.1172.4154v.416l.1164.4989v.4989l.1172.416.1164.4159v.3324l.1164.333v.2494l.1172.0829v.083m-3.0338-4.7402v.1665l.1172.1665.1164.3324v.333l.1164.4154v.416l.1172.4989v.4989l.1164.416.1172.4159v.3324l.1164.333v.2494l.1164.0829v.083m-3.0329-4.7402v.1665l.1164.1665.1172.3324v.333l.1164.4154v.416l.1172.4989v.4989l.1164.416.1164.4159v.3324l.1172.333v.2494l.1164.0829v.083m-3.0329-4.7402v.1665l.1164.1665.1164.3324v.333l.1172.4154v.416l.1164.4989v.4989l.1172.416.1164.4159v.3324l.1164.333v.2494l.1172.0829v.083m-3.0337-4.7402v.1665l.1172.1665.1164.3324v.333l.1172.4154v.416l.1164.4989v.4989l.1164.416.1172.4159v.3324l.1164.333v.2494l.1164.0829v.083m-3.0329-4.7402v.1665l.1172.1665.1164.3324v.333l.1164.4154v.416l.1172.4989v.4989l.1164.416.1164.4159v.3324l.1172.333v.2494l.1164.0829v.083m-3.033-4.7402v.1665l.1164.1665.1164.3324v.333l.1172.4154v.416l.1164.4989v.4989l.1172.416.1164.4159v.3324l.1164.333v.2494l.1172.0829v.083m-3.0337-4.7402v.1665l.1172.1665.1164.3324v.333l.1172.4154v.416l.1164.4989v.4989l.1164.416.1172.4159v.3324l.1164.333v.2494l.1164.0829v.083m-3.0329-4.7402v.1665l.1164.1665.1172.3324v.333l.1164.4154v.416l.1172.4989v.4989l.1164.416.1164.4159v.3324l.1172.333v.2494l.1164.0829v.083m-3.0329-4.7402v.1665l.1164.1665.1172.3324v.333l.1164.4154v.416l.1164.4989v.4989l.1172.416.1164.4159v.3324l.1164.333v.2494l.1172.0829v.083m-3.0338-4.7402v.1665l.1172.1665.1164.3324v.333l.1172.4154v.416l.1164.4989v.4989l.1164.416.1172.4159v.3324l.1164.333v.2494l.1164.0829v.083m-2.4495.4158.3499-.4159m-.2335.333v.0829h-.1164m.8162-5.6549v-.4159h-.1164m.1164.4159.1172.1665v.7483l.1164.416v.4159l.1164.5819v.4989l.1172.5824v.9149l.1164.4989v.3324l.1164.416v.2494l.1172.1665v.1659h.1164m-.0003-.0001v-.0829m2.1001.0829v-.0829m2.0993.0829v-.0829m2.0993.0829v-.0829m2.0993.0829v-.0829m2.1002.0829v-.0829m2.0993.0829v-.0829m2.0993.0829v-.0829m1.0505-6.5698v.1665l.1164.1665v.3324l.1164.3324v.4159l.1172.416v.4159l.1164.5819v.4989l.1164.5824v.9149l.1172.4989v.3324l.1164.416v.2494l.1164.1665v.1659h.1172m-.0003-.0001v-.0829m1.0496-6.5698v.1665l.1164.1665v.3324l.1172.3324v.4159l.1164.416v.4159l.1164.5819v.4989l.1172.5824v.9149l.1164.4989v.3324l.1164.416v.2494l.1172.1665v.1659h.1164m-.0003-.0001v-.0829m1.0496-6.5698v.1665l.1172.1665v.3324l.1164.3324v.4159l.1164.416v.4159l.1172.5819v.4989l.1164.5824v.9149l.1164.4989v.3324l.1172.416v.2494l.1164.1665v.1659h.1164m-.0003-.0001v-.0829m1.0505-6.5698v.1665l.1164.1665v.3324l.1164.3324v.4159l.1172.416v.4159l.1164.5819v.4989l.1164.5824v.9149l.1172.4989v.3324l.1164.416v.2494l.1164.1665v.1659h.1172m-.0004-.0001v-.0829m1.0497-6.5698v.1665l.1164.1665v.3324l.1172.3324v.4159l.1164.416v.4159l.1164.5819v.4989l.1172.5824v.9149l.1164.4989v.3324l.1164.416v.2494l.1172.1665v.1659h.1164m-.0004-.0001v-.0829m1.0497-6.5698v.1665l.1172.1665v.3324l.1164.3324v.4159l.1164.416v.4159l.1172.5819v.4989l.1164.5824v.9149l.1164.4989v.3324l.1172.416v.2494l.1164.1665v.1659h.1164m-.0004-.0001v-.0829m1.0505-6.5698v.1665l.1164.1665v.3324l.1164.3324v.4159l.1172.416v.4159l.1164.5819v.4989l.1164.5824v.9149l.1172.4989v.3324l.1164.416v.3324m-22.1627-6.4034h.3499m-.3499 0h.1172v.1665l.1164.1665v.3324l.1164.3324v.8319l.1172.4159v.5819l.1164.4989v.5824l.1164.4989v.416l.1172.4989v.3324l.1164.416v.4159l.1164.1659m.3495-.0001h-.3499m-.6997-6.6527v.1665l.1172.1665v.3324l.1164.3324v.4159l.1164.416v.4159l.1172.5819v.4989l.1164.5824v.9149l.1164.4989v.3324l.1172.416v.2494l.1164.1665v.1659h.1164m-7.6987-6.6528h.3499m-.3499 0h.1172v.1665l.1164.1665v.3324l.1164.3324v.8319l.1172.4159v.5819l.1164.4989v.5824l.1164.4989v.416l.1172.4989v.3324l.1164.416v.4159l.1164.1659m.3504-.0001h-.3507m-.6998-6.6527v.1665l.1172.1665v.3324l.1164.3324v.4159l.1164.416v.4159l.1172.5819v.4989l.1164.5824v.9149l.1164.4989v.3324l.1172.416v.2494l.1164.1665v.1659h.1172m.6995-6.6528h.3499m-.3499 0h.1164v.1665l.1164.1665v.3324l.1172.3324v.8319l.1164.4159v.5819l.1164.4989v.5824l.1172.4989v.416l.1164.4989v.3324l.1164.416v.4159l.1172.1659m.3495-.0001h-.3499m-.6997-6.6527v.1665l.1164.1665v.3324l.1164.3324v.4159l.1172.416v.4159l.1164.5819v.4989l.1164.5824v.9149l.1172.4989v.3324l.1164.416v.2494l.1164.1665v.1659h.1172m.6994-6.6528h.3499m-.3499 0h.1164v.1665l.1172.1665v.3324l.1164.3324v.8319l.1164.4159v.5819l.1172.4989v.5824l.1164.4989v.416l.1164.4989v.3324l.1172.416v.4159l.1164.1659m.3495-.0001h-.3499m-.6997-6.6527v.1665l.1164.1665v.3324l.1172.3324v.4159l.1164.416v.4159l.1164.5819v.4989l.1172.5824v.9149l.1164.4989v.3324l.1164.416v.2494l.1172.1665v.1659h.1164m4.8989-6.6528h.3499m-.3499 0h.1164v.1665l.1172.1665v.3324l.1164.3324v.8319l.1164.4159v.5819l.1172.4989v.5824l.1164.4989v.416l.1164.4989v.3324l.1172.416v.4159l.1164.1659m.3495-.0001h-.3499m-.6998-6.6527v.1665l.1164.1665v.3324l.1172.3324v.4159l.1164.416v.4159l.1164.5819v.4989l.1172.5824v.9149l.1164.4989v.3324l.1164.416v.2494l.1172.1665v.1659h.1164m-3.4992-6.6528h.3499m-.3499 0h.1164v.1665l.1164.1665v.3324l.1172.3324v.8319l.1164.4159v.5819l.1164.4989v.5824l.1172.4989v.416l.1164.4989v.3324l.1164.416v.4159l.1172.1659m.3496-.0001h-.3499m-.6998-6.6527v.1665l.1164.1665v.3324l.1164.3324v.4159l.1172.416v.4159l.1164.5819v.4989l.1164.5824v.9149l.1172.4989v.3324l.1164.416v.2494l.1172.1665v.1659h.1164m2.7988-6.6528h.3499m-.3499 0h.1172v.1665l.1164.1665v.3324l.1164.3324v.8319l.1172.4159v.5819l.1164.4989v.5824l.1164.4989v.416l.1172.4989v.3324l.1164.416v.4159l.1164.1659m.3495-.0001h-.3499m-.6997-6.6527v.1665l.1172.1665v.3324l.1164.3324v.4159l.1164.416v.4159l.1172.5819v.4989l.1164.5824v.9149l.1164.4989v.3324l.1172.416v.2494l.1164.1665v.1659h.1164m20.8789-5.1561.1172.0835v.4158m-.1172-.4993v-.083m-.5826-1.4967.1164.1659.1164.1665v.2494l.1172.1665.1164.1665v.2494l.1164.1659v.1665m-.5828-1.663v.1665m0 6.8191v.1659m.5826-1.6631v.1665l-.1164.2494v.1665l-.1164.1659-.1172.2494v.1665l-.1164.1665-.1164.1665m.5828-1.4972v-.083m.1171-.4989v.4159l-.1172.0829m.1172-.4988v-.0835m-.1171-.1659h.1172v.1659m-.1172-.1659v-.0835m-.5826-.0001h.5828m-.5828-1.9955v1.9952m.5826-1.9952h-.5828m.6999-.2495v.1664l-.1172.083m.1172-.2494v-.083m-6.5323-4.3246v11.3927m-30.5605-3.3263h.2335m1.8658 0h.2335m1.8667 0h.2327m1.8666 0h.2335m1.8658 0h.2335m1.8666 0h.2327m1.8667 0h.2335m1.8658 0h.2335m1.8666 0h.2327m1.8666 0h.2335m1.8658 0h.2335m1.8667 0h.2327m1.8666 0h.2335m1.8658 0h.2335m1.8666 0h.2327m-.9333-4.8231h-.2327m-1.8666 0h-.2335m-1.8658 0h-.2335m-1.8666 0h-.2327m-1.8666 0h-.2335m-1.8659 0h-.2335m-1.8666 0h-.2327m-1.8666 0h-.2335m-1.8658 0h-.2335m-1.8667 0h-.2327m-1.8666 0h-.2335m-1.8658 0h-.2335m-1.8658 0h-.2335m-1.8666 0h-.2335m-1.8658 0h-.2335m-.0001 4.8231.5834.4159m.6998-6.0708-.9333.6654m-.1163.0835-.1172.0829m1.0504 4.7401.4662.4989.3499.4989m28.5776-.9978.4671.4989.3499.4989m-2.9163-.9978.4662.4989.3499.4989m-2.9154-.9978.4662.4989.3499.4989m-2.9162-.9978.4671.4989.3499.4989m-2.9163-.9978.4662.4989.3499.4989m-2.9154-.9978.4662.4989.3499.4989m-2.9163-.9978.4671.4989.3499.4989m-2.9163-.9978.4662.4989.3499.4989m-2.9154-.9978.4662.4989.3499.4989m-2.9162-.9978.4671.4989.3499.4989m-2.9164-.9978.4662.4989.3499.4989m-2.9154-.9978.4662.4989.3499.4989m-2.9162-.9978.4671.4989.3499.4989m-2.9163-.9978.4662.4989.3499.4989m26.2455-6.6527-.3499.4989-.4671.4159m-1.2831-.9148-.3499.4989-.4662.4159m-1.2832-.9148-.3499.4989-.4671.4159m-1.2823-.9148-.3499.4989-.4671.4159m-1.2832-.9148-.3499.4989-.4662.4159m-1.2832-.9148-.3499.4989-.4671.4159m-1.2823-.9148-.3499.4989-.4671.4159m-1.2831-.9148-.3499.4989-.4662.4159m-1.2832-.9148-.3499.4989-.4662.4159m-1.2833-.9148-.3499.4989-.4671.4159m-1.2831-.9148-.3499.4989-.4662.4159m-1.2832-.9148-.3499.4989-.4671.4159m-1.2823-.9148-.3499.4989-.4671.4159m-1.2832-.9148-.3499.4989-.4662.4159m-.1172.083-.4662-.4989-.3499-.4159m-.5834 5.9879.2335-.333m28.6939.8319.4671-.4989.2335-.333m-2.7999.8319.4671-.4989.2327-.333m-2.7991.8319.4662-.4989.2335-.333m-2.7998.8319.4671-.4989.2335-.333m-2.7999.8319.4671-.4989.2327-.333m-2.7991.8319.4662-.4989.2335-.333m-2.7999.8319.4671-.4989.2335-.333m-2.7999.8319.4671-.4989.2327-.333m-2.7991.8319.4662-.4989.2335-.333m-2.7999.8319.4671-.4989.2335-.333m-2.7999.8319.4671-.4989.2327-.333m-2.7991.8319.4662-.4989.2335-.333m-2.799.8319.4662-.4989.2335-.333m-2.7998.8319.4671-.4989.2327-.333m28.4611-4.7401-.4662-.4989-.3499-.4989m-1.2832.9978-.4671-.4989-.3499-.4989m-1.2831.9978-.4662-.4989-.3499-.4989m-1.2832.9978-.4662-.4989-.3499-.4989m-1.2832.9978-.4671-.4989-.3499-.4989m-1.2832.9978-.4662-.4989-.3499-.4989m-1.2832.9978-.4662-.4989-.3499-.4989m-1.2832.9978-.4671-.4989-.3499-.4989m-1.2831.9978-.4662-.4989-.3499-.4989m-1.2832.9978-.4662-.4989-.3499-.4989m-1.2833.9978-.4671-.4989-.3499-.4989m-1.2831.9978-.4662-.4989-.3499-.4989m-1.2832.9978-.4662-.4989-.3499-.4989m-1.2832.9978-.4671-.4989-.3499-.4989m-8.775.9148v.2494m.9333 4.5737v-.083l-.1164-.0829v-.2494l-.1172-.333v-.3324l-.1164-.4159-.1164-.416v-.4989l-.1172-.4989v-.416l-.1164-.4154v-.333l-.1172-.3324-.1164-.1665m.0003.0001.1164.1665v.4989l.1172.3324v.7484l.1164.416v1.2472l.1172.333v.6654l.1164.2494v.3323m-.5836-4.9895v4.5732m.2335-4.9056.1164-.0835v-.083h.1172l.2327.083.1172.0835.1164.1659.1164.2494.1172.333.1164.4159.1164.5819m3.0332-1.6632v.083l.1164.1665v.1665l.1164.3324v.333l.1172.4154v.416l.1164.4989.1164.4989v.416l.1172.4159v.3324l.1164.333v.2494l.1164.0829m-3.033-4.7402v.083l.1172.1665v.1665l.1164.3324v.333l.1164.4154v.416l.1172.4989.1164.4989v.416l.1164.4159v.3324l.1172.333v.2494l.1164.0829m-3.0329-4.7402v.083l.1164.1665v.1665l.1172.3324v.333l.1164.4154v.416l.1164.4989.1172.4989v.416l.1164.4159v.3324l.1164.333v.2494l.1172.0829m1.1658.9977h-.3499m-.5835-4.0747v-2.079m0 2.079v.3324l.1172.416v.5824l.1164.4989v.416l.1164.4989v.3324l.1172.416v.4159l.1164.1659m2.2164-5.655v.1665l.1164.1665.1172.3324v.333l.1164.4154v.416l.1164.4989v.4989l.1172.416.1164.4159v.3324l.1164.333v.2494l.1172.0829v.083m-3.0338-4.7402v.1665l.1172.1665.1164.3324v.333l.1172.4154v.416l.1164.4989v.4989l.1164.416.1172.4159v.3324l.1164.333v.2494l.1164.0829v.083m-2.4495.4158.3499-.4159m-.2335.333v.0829h-.1164m.8161-5.6549v-.4159h-.1164m.1164.4159.1172.1665v.7483l.1164.416v.4159l.1164.5819v.4989l.1172.5824v.9149l.1164.4989v.3324l.1164.416v.2494l.1172.1665v.1659h.1164m-.0002-.0001v-.0829m2.1001.0829v-.0829m-1.4004-6.5698h.3499m-.3499 0h.1172v.1665l.1164.1665v.3324l.1164.3324v.8319l.1172.4159v.5819l.1164.4989v.5824l.1164.4989v.416l.1172.4989v.3324l.1164.416v.4159l.1164.1659m.3504-.0001h-.3507m-.6998-6.6527v.1665l.1172.1665v.3324l.1164.3324v.4159l.1164.416v.4159l.1172.5819v.4989l.1164.5824v.9149l.1164.4989v.3324l.1172.416v.2494l.1164.1665v.1659h.1172m.6995-6.6528h.3499m-.3499 0h.1164v.1665l.1164.1665v.3324l.1172.3324v.8319l.1164.4159v.5819l.1164.4989v.5824l.1172.4989v.416l.1164.4989v.3324l.1164.416v.4159l.1172.1659m-.7002-6.6528v.1665l.1164.1665v.3324l.1164.3324v.4159l.1172.416v.4159l.1164.5819v.4989l.1164.5824v.9149l.1172.4989v.3324l.1164.416v.2494l.1164.1665v.1659h.1172m-5.5993-.9149h.2335m1.8658 0h.2335m1.8667 0h.2327m-.9325-4.8231h-.2335m-1.8667 0h-.2335m-1.8658 0h-.2335m0 4.8231.5834.4159m.6998-6.0708-.9333.6654m-.1164.0835-.1172.0829m1.0505 4.7401.4662.4989.3499.4989m3.3826-.9978.4671.4989.3499.4989m-2.9163-.9978.4662.4989.3499.4989m1.0505-6.6527-.3499.4989-.4671.4159m-1.2832-.9148-.3499.4989-.4662.4159m-.1172.083-.4662-.4989-.3499-.4159m-.5834 5.9879.2335-.333m3.4997.8319.4662-.4989.2335-.333m-2.7998.8319.4671-.4989.2327-.333m3.2661-4.7401-.4662-.4989-.3499-.4989m-1.2832.9978-.4671-.4989-.3499-.4989m37.3534 9.5637.2327-.333.3507-.3324.2327-.2494.3499-.333.2335-.3324.2335-.416.2327-.3324.1172-.333m.0001-7.1515-.1172-.3324-.2327-.333-.2335-.3324-.2335-.333-.3499-.3324-.2327-.3324-.3507-.333-.2327-.3324m-3.8496 11.9746.1164.1665v.1665l.1172.083.2335.1665.1164.083.2335.0835.2327.083h.2335m-.0001-13.1396h-.2335l-.2327.0835-.2335.0829-.1164.083-.2335.1665-.1172.1665v.1665l-.1164.1659m2.8 12.2247h.3499l.1164-.083h.1164l.1172-.0835h.1164l.1164-.083.1172-.0829m-.0003-12.4741-.1172-.0835h-.1164l-.1164-.083-.1172-.0829h-.2328l-.2335-.0835h-.1164m.0003-.0001h-1.5167m-.0001 13.1395h1.5167"/></g><g aria-labelledby="acc-t-59 acc-d-59" tabindex="0"><title>Locate Four #4-40 Hex Nuts</title><desc>Find four small, metallic brass nuts. Each nut feels like a tiny, short cylinder. When you trace your finger around its outer edge, you&apos;ll feel six flat sides, making it a hexagon shape. In the center of the nut, you can feel a round hole with spiral ridges inside, which is where a #4-40 bolt will screw in.</desc><text fill="#fff" font-family="Montserrat-Regular,Montserrat" font-size="14" transform="translate(1065.952 713.413)"><tspan x="0" y="0">Nuts x 4</tspan></text><rect width="105.1235" height="105.1235" x="1041.0762" y="581.2655" fill="none" stroke="#fff" stroke-linecap="round" stroke-linejoin="round" stroke-width="2.8778" rx="12.6839" ry="12.6839"/><path fill="none" stroke="#fff" stroke-linecap="round" stroke-linejoin="round" stroke-width=".75" d="m1083.3668 625.6352-1.3695 2.0061m3.0128-2.3404-1.6433.3343m23.5551 3.0094-3.8347-2.6751-1.3694-.6686m-10.4079 4.0123h.2738l1.0956-.3343h1.3695m0 0h.2739l1.3695.3343 1.0956.6685.5477.669.2738.6686v.3343"/><path fill="none" stroke="#fff" stroke-linecap="round" stroke-linejoin="round" stroke-width=".75" d="M1098.4311 629.3132v-.3343l-1.3695-.669-1.6433-.6686-1.6436-.3343h-1.9172l-1.6433.3343-1.0956.3343-.8219.669v.6686m8.7649 1.6718v-.3343l-1.6433-.3343-1.6436-.3347h-3.5605l-.548.3347"/><path fill="none" stroke="#fff" stroke-linecap="round" stroke-linejoin="round" stroke-width=".75" d="m1094.0488 628.9789-1.3695-.3343-1.3694-.3347h-1.3695l-.8218.3347-.8219.3343v.3343m1.3695.6685 1.3695-.3343h3.5608l1.6433.3343.548.3347m-7.1216-3.0094 1.3695-.3343h3.5608l1.6433.6686.548.3343"/><path fill="none" stroke="#fff" stroke-linecap="round" stroke-linejoin="round" stroke-width=".75" d="M1091.3099 629.3132h3.0128l1.3695.3342 1.0956.669.5477.6686m-7.9431-.3343.2738-.3343.8218-.669.8219-.3342m-1.6437-2.0062 1.3695-.3343h3.5608l1.6433.6686 1.3695.6686.8218.669.2739 1.0028-.2739.669m-16.4338-3.0094v.3343l-1.3695 4.3469m24.6507 7.356h.2739l1.3695-4.3466m0-6.6873v6.6873m-1.3695-4.6812 1.3695-2.0061m-5.2041 14.0433h-.2739l-1.3695.6685-1.3694.3347h-1.3695m6.5736-2.0065 1.3694-2.0061m-7.943 4.0126-1.6433.3343h-3.0129l-1.6436-.3343h-1.6433l-1.3695-.3347-1.3695-.6685-1.0956-.3343m-4.93-10.0311-.2738 6.3531m0 0 1.0953 1.0029 4.1085 2.6751"/><path fill="none" stroke="#fff" stroke-linecap="round" stroke-linejoin="round" stroke-width=".75" d="m1085.5578 642.3536 1.0956.3343 4.1085.6685m-10.1341-11.0339h.8215l4.1085 1.0029m18.3513 2.0065 1.6433-4.6812m-19.9946 2.6747 1.3694.669 3.8347 3.0094m-2.4652-7.6906.548 1.0032 1.0957.6686 1.9171.6686 2.1913.3347 1.9172-.3347 1.9171-.3343 1.0957-1.0029.2738-1.0032-.5476-1.0033-1.3695-1.0029-1.6433-.3343-2.1914-.3347-2.1909.3347-1.6437.3343m0 0-.2738.3343-.2738.3343h-.2739l-.2738.3343-.2742.3347v.6686m9.0388 5.684 1.6433-.3342 1.3695-.3343 1.0956-.3343 1.0957-.669 1.0956-.6686.8215-.3343.548-.6689.5477-1.0029m0 0 .2738-.669v-.6685l-.2738-.6686-.2739-1.0033-.5479-.6686-.8215-.6689-1.0957-.6686-1.0956-.3343m0 0-1.0957-.669-1.3695-.3343-1.3695-.3343-1.6433-.3342h-6.0256m0 0-1.6433.3342-1.3695.3343-1.0956.3343-1.3695.669-.8219.3343-.8214.6686-.548.6689-.5477.6686m0 0-.2738 1.0033v.6686l.2738.6685.2738.669.5477 1.0029.8218.6689.8218.3343 1.0954.6686"/><path fill="none" stroke="#fff" stroke-linecap="round" stroke-linejoin="round" stroke-width=".75" d="m1085.5578 633.3254 1.3694.669 1.3695.3343 1.3695.3343 1.6437.3342h6.0256m-6.5736 2.0066v6.3526m0 0 6.5736.3347m0 0h.2738l6.2998-2.0065m0-6.3527v6.3527"/><path fill="none" stroke="#fff" stroke-linecap="round" stroke-linejoin="round" stroke-width=".75" d="m1097.3355 634.9972.5476-.3342 6.026.6689m-13.1472 1.6719 6.5736-2.0066m-11.5036-10.031-.8218.3347m4.9303 4.6808h-.2742m12.0516 12.7062.8218-.3343"/></g><g fill="#005cb9" stroke="#fff" stroke-linecap="round" stroke-linejoin="round" stroke-width=".75"><path d="M229.2785 922.3722h-18.3393v18.337h18.3393zm20.7918 0H231.731v18.337h18.3393zm20.7917 0h-18.3399v18.337h18.34zm20.7905 0h-18.3393v18.337h18.3393zm20.7918 0H294.105v18.337h18.3393z" transform="matrix(.4963 .3069 -.1044 .6974 95.7615 -123.3058)"/><path fill-rule="evenodd" d="M240.0254 927.0898h1.9208v8.8039h-1.9208zm19.574 8.7993.0123.1h1.974l.006-.09v-2.8834l.008-.144h.1332l.0506-.01.0505-.01.0506-.01.0505-.01.0582-.01.0567-.01.0567-.01.0582-.01.0628-.011.0643-.013.0628-.013.0643-.014.0673-.015.066-.017.0842-.022.0888-.023.092-.026.098-.029.101-.032.1026-.034.1057-.04.1072-.044.1087-.047.1103-.054.1103-.06.1103-.067.1087-.072.1087-.08.1057-.089.1057-.095.1011-.1056.0582-.065.0368-.039.0383-.048.0444-.057.0521-.065.0506-.074.0505-.082.0506-.088.0505-.098.0505-.1027.052-.1117.0444-.1195.0444-.1256.0383-.1317.0245-.1394.02-.1455.0122-.1516v-.164l-.0123-.1745-.0199-.1654-.0322-.1592-.0444-.1501-.0505-.1425-.0567-.1332-.0567-.1256-.0643-.1165-.0643-.1086-.0659-.098-.0643-.09-.0643-.08-.0566-.071-.0567-.061-.0506-.05-.046-.041-.0168-.031-.0827-.075-.0843-.069-.0843-.065-.0843-.057-.0843-.054-.0843-.048-.0812-.046-.0827-.039-.0782-.036-.0782-.034-.0766-.029-.072-.027-.0704-.023-.0659-.022-.0643-.02-.0567-.016-.0566-.016-.0582-.014-.0566-.014-.0567-.014-.0582-.013-.0566-.011-.0567-.011-.0582-.01-.0566-.01-.0628-.01-.0643-.01-.0659-.01-.0689-.01-.0734-.01-.0765-.01-.0812-.01-.0857-.01-.0919-.01h-1.902l-.147.01-.1334.055v8.503zm2.0185-5.019v-1.5543l.0245-.012h.1164l.1133.01.1088.01.1042.014.1011.016.0965.022.0904.026.0858.029.0812.032.0735.035.0673.039.0566.043.0521.044.0444.046.0383.05.0306.05.02.039.0122.03.006.031.006.029.006.029v.208h.0107v.125l-.008.028-.006.031-.0123.032-.0123.034-.0137.036-.0123.035-.0184.036-.0199.036-.0245.041-.0383.048-.0444.044-.0505.041-.0582.04-.0628.035-.0673.031-.072.029-.0766.023-.0796.02-.0843.016-.0873.011-.0904.01h-.1899l-.098-.01-.101-.013-.0179-.025zm-44.2049 4.8765.0123.1h1.9695v-2.9736l.0123-.1454h.1271l.0444-.01.0506-.01.0506-.01.0506-.01.0582-.01.0567-.01.0566-.01.0582-.01.0628-.011.0643-.011.0628-.013.066-.015.0658-.014.0673-.015.0827-.022.0888-.025.0934-.026.0965-.028.1011-.032.1026-.036.1057-.04.1072-.043.1103-.048.1087-.056.1103-.058.1103-.067.1088-.072.1088-.08.1072-.089.1042-.095.1026-.1057.0566-.065.0322-.039.0383-.05.0444-.056.0505-.065.0505-.073.0506-.082.0506-.089.052-.098.0505-.1025.0506-.112.0444-.1194.0383-.1255.0383-.1317.0245-.1394.02-.1455.0122-.1516v-.164l-.0123-.1745-.0199-.1655-.0307-.1593-.0383-.15-.0506-.1425-.0583-.1333-.0566-.1256-.0643-.1163-.0643-.1088-.0659-.098-.0643-.09-.0628-.08-.0582-.07-.0567-.061-.0506-.05-.0383-.041v-.024l-.0827-.075-.0843-.069-.0843-.065-.0843-.057-.0843-.054-.0843-.048-.0812-.045-.0827-.041-.0782-.036-.0782-.032-.075-.031-.0734-.026-.0703-.024-.0659-.022-.0643-.02-.0567-.016-.0567-.015-.0582-.015-.0567-.014-.0566-.012-.0582-.013-.0566-.011-.0566-.011-.0582-.01-.0567-.01-.0628-.01-.0643-.01-.0659-.01-.0703-.01-.072-.01-.0766-.01-.0827-.01-.0857-.01-.0904-.01-.095-.01h-1.8073l-.147.01-.1332.054v7.9563l.0003.5509zm2.0125-5.0142v-1.5563l.026-.011h.1164l.1118.01.1088.01.1057.013.1011.019.095.022.092.024.0856.029.0796.032.0734.036.0673.039.0643.041.0567.044.0444.048.0383.048.0322.053.0184.039.0137.031.0123.031.006.029.006.029.006.027V930h-.009v.124l-.006.028-.006.03-.0137.032-.0123.034-.0123.035-.0199.036-.0184.036-.0183.036-.026.041-.0383.048-.0444.045-.0506.041-.0567.04-.0643.035-.0674.031-.0703.029-.0766.023-.0796.02-.0858.016-.0857.011-.0919.01h-.1884l-.0995-.01-.0996-.014-.0199-.025zm80.8777 4.9837.007.1667h1.9832l.0122-.034v-2.2424l.0735.087.0858.1285.0873.1302.0858.1302.0873.13.0858.1286.0873.1302.0873.1302.0858.1302.0858.1302.0873.13.0873.1302.0858.1285.0873.1302.0858.13.0873.1302.0873.1302.0567.075h2.4508l-.1302-.196-.1302-.1975-.1302-.196-.1286-.1978-.1302-.196-.1302-.1976-.1302-.196-.1302-.1976-.1302-.196-.1287-.1975-.1302-.1978-.1302-.196-.1302-.1975-.1286-.1962-.1302-.196-.1302-.1975-.1302-.196-.0307-.093.0444-.022.0506-.024.0505-.026.0567-.031.0582-.032.0567-.035.0628-.038.0643-.041.066-.046.0658-.048.0674-.052.0674-.056.0674-.06.069-.063.0673-.067.0674-.072.0643-.069.0383-.043.0444-.05.0444-.056.0505-.066.0506-.073.0505-.08.0505-.086.0506-.093.0521-.1011.0506-.1072.0444-.1134.0444-.1194.0383-.1271.0322-.1317.0245-.1394.0122-.1455.008-.15v-.1716l-.0138-.1715-.0245-.1625-.0383-.1547-.0444-.147-.0506-.1392-.0582-.1302-.0628-.1226-.0643-.112-.0643-.1054-.0659-.095-.0643-.086-.0628-.076-.0582-.067-.0505-.058-.0444-.048-.0383-.036-.0505-.046-.0827-.074-.0858-.067-.0842-.063-.0842-.056-.0842-.052-.0827-.048-.0827-.044-.0812-.039-.078-.035-.0782-.034-.075-.029-.072-.026-.069-.023-.0659-.022-.0643-.019-.0567-.016-.0567-.014-.0582-.015-.0567-.015-.0567-.013-.0582-.013-.0567-.011-.0567-.011-.0567-.01-.0582-.01-.0628-.01-.0643-.01-.0674-.01-.0689-.01-.0735-.01-.078-.01-.0813-.01-.0873-.01-.0904-.01-.0965-.01h-1.6678l-.144.01-.1455.01-.1363.046v7.964l-.001.5295zm2.0017-5.0343v-1.4336l.0107-.096h.2313l.1103.01.1072.012.1026.016.0965.02.0934.025.0873.029.0827.032.075.036.069.039.0642.041.0567.045.0506.046.0383.048.0321.052.0183.045.0138.029.0122.031.006.031.006.029v.3352l-.006.029-.006.029-.0122.034-.0138.034-.0122.034-.0122.036-.0199.036-.0183.036-.026.04-.0383.048-.0444.046-.0505.043-.0567.039-.0643.035-.0659.034-.072.027-.075.024-.0812.022-.0842.016-.0873.013-.0904.01-.0934.01h-.0965l-.0996-.01-.101-.013-.0369-.074zm-22.1957-3.5286v8.7159h.006l.0318.0008h.1207l.4821.01 1.9278.025 1.9278.025.4814.01h.1207l.0318.0009h.006v-1.9995l-2.3648.01h-.7834v0-1.726h3.2101v-1.987h-3.1932v-.9794h3.2038v-2.0717 0-.0002h-.32l-.977-.013-3.907-.053-.005.032z" transform="matrix(.4963 .3069 -.1044 .6974 95.7615 -123.3058)"/></g></svg>